<?xml version="1.0" standalone="no"?>
<!DOCTYPE svg PUBLIC "-//W3C//DTD SVG 1.1//EN" "http://www.w3.org/Graphics/SVG/1.1/DTD/svg11.dtd" >
<svg xmlns="http://www.w3.org/2000/svg">
<metadata></metadata>
<defs>
<font id="belepotanregular" horiz-adv-x="1212" >
<font-face units-per-em="2048" ascent="1638" descent="-410" />
<missing-glyph horiz-adv-x="546" />
<glyph horiz-adv-x="0" />
<glyph unicode="&#xd;" horiz-adv-x="1024" />
<glyph horiz-adv-x="0" />
<glyph horiz-adv-x="0" />
<glyph unicode=" "  horiz-adv-x="546" />
<glyph unicode="&#x09;" horiz-adv-x="546" />
<glyph unicode="&#xa0;" horiz-adv-x="546" />
<glyph unicode="!" horiz-adv-x="817" d="M256 676q8 57 11 119.5t5 122.5q-2 43 -4 98t-2 111.5t3 109.5t12 92q12 31 39.5 53.5t61.5 39t71.5 26.5t70.5 18q16 8 22.5 1t7.5 -21t-2 -29.5t-3 -21.5q-20 -117 -31.5 -242t-25.5 -246q-8 -98 -8.5 -215t1.5 -217q8 -20 6 -33.5t-10 -29.5q-10 -16 -46 -25.5 t-56 -11.5q-23 8 -45.5 47t-40 87t-27.5 95t-10 72zM268 57q4 2 9.5 16.5t10.5 32t9 34t4 20.5q-4 18 -3 37.5t17 29.5q20 2 53 -5t70 -19.5t70.5 -25.5t56.5 -21q6 -4 21.5 -10.5t-0.5 -8.5q-10 -8 -20.5 -33.5t-23 -53t-24.5 -48t-24 -20.5q-8 0 -43 6t-75 17t-73 24.5 t-35 27.5z" />
<glyph unicode="&#x22;" horiz-adv-x="1142" d="M244 1139q8 25 11 54.5t5 55.5q-4 43 -1 98.5t26 90.5q18 12 54 15t76 1t78.5 -8t65.5 -10q29 0 31 -11.5t-10 -27.5q-31 -39 -50.5 -95.5t-35.5 -103.5q-4 -16 -5.5 -39.5t-1.5 -50.5t1 -52.5t1 -43.5q14 -14 -4 -27q-4 -4 -19 -5t-31.5 -2t-33 -1h-22.5q-14 0 -39 21.5 t-48.5 48t-37.5 53t-10 39.5zM592 1139q8 25 11 54.5t5 55.5q-4 43 -1 98.5t26 90.5q18 12 54 15t76 1t80 -8t66 -10q27 0 29 -11.5t-10 -27.5q-31 -39 -49.5 -95.5t-34.5 -103.5q-4 -16 -6 -39.5t-2 -50.5t1 -52.5t1 -43.5q10 -10 7 -16.5t-11 -10.5q-4 -4 -19.5 -5t-32 -2 t-33 -1h-22.5q-14 0 -38.5 21.5t-48.5 48t-38 53t-10 39.5z" />
<glyph unicode="$" horiz-adv-x="1345" d="M153.5 1033q14.5 91 66.5 167t132 129t172 68q2 29 17 59q18 18 47.5 25.5t63.5 7.5t67 -6t57 -13q25 -2 25 -12t-13 -26q-10 -14 -19 -35t-17 -45q55 -31 98 -95q25 -47 36 -96t3 -106q4 -25 -9.5 -21t-33 21.5t-40 38t-30.5 28.5q-33 23 -65 31q-2 -47 -1 -100.5 t1 -91.5q6 -14 3 -22.5t-12 -18.5q-10 -10 -43.5 -13.5t-48.5 -3.5q-10 0 -29.5 25.5t-37 57.5t-29.5 63.5t-8 44.5l4 20t2 21q-59 -27 -92 -69t-17 -83q14 -37 53.5 -67.5t86.5 -53t96 -38t84 -23.5q172 -45 279.5 -120t156.5 -162t39 -177t-73.5 -165t-181.5 -125 t-284 -56q0 -14 -12 -27q-8 -10 -42 -15t-48 -5q-8 0 -20.5 15.5t-24.5 37.5q-61 6 -127 25q-47 10 -81 26.5t-68 48.5q-33 31 -56.5 74t-23.5 92q6 109 84 187q2 0 5 -16.5t7 -39t11 -47t16 -39.5q27 -47 78 -68.5t108 -29.5q2 18 3 36.5t3 35.5q-2 14 -3 36.5t-1 46t3 45 t11 31.5q18 8 49 4t65 -10t63.5 -10t43.5 0q-12 -43 -20 -89t-18 -83q-2 -8 -2 -17.5t-3 -19.5q41 6 71 13.5t83 19.5q72 27 99.5 58.5t22.5 63.5t-36 63.5t-72 57t-87 45t-81 27.5q-66 14 -136 36t-135.5 55.5t-119 80.5t-86.5 113q-43 88 -28.5 179z" />
<glyph unicode="%" horiz-adv-x="1705" d="M145 1221q0 -35 6.5 -65t20.5 -64q14 -33 30.5 -58.5t41.5 -54.5q27 -27 52.5 -46.5t57.5 -35.5q12 -6 23.5 -10t23.5 -8q23 -8 44.5 -11.5t43.5 -5.5q55 0 98.5 12.5t86.5 36.5q25 16 44 30.5t38 35.5q25 29 35 70q12 51 8 99t-29 101q-10 16 -33.5 46t-51.5 55.5 t-51.5 40t-33.5 2.5q-4 -27 -13 -60t-14 -53v-17.5t7 -17.5q2 -4 3 -5t3 -5q6 -33 -6 -66q-10 -20 -21.5 -35.5t-30.5 -27.5q-35 -25 -75 -25q-12 0 -27 6l-4 5q-12 8 -16 18q-10 16 -13 29q-4 14 -2 32q6 16 15 27q4 4 17 12.5t17 10.5q23 8 52.5 10t56.5 -2q2 0 21.5 -2 t38 -1t27.5 6t-9 21q-29 39 -64 77t-76 67.5t-86 45t-92 11.5q-10 -4 -18 -7t-19 -9q-33 -18 -54 -39t-40 -54q-33 -57 -33 -122zM481 77q0 44 7.5 94t15.5 96t18 83t19 53q47 90 91 182.5t89 184.5q33 72 70.5 154t80.5 163.5t88.5 157.5t92.5 135q68 66 163 79.5 t199 -19.5q23 -2 22 -14.5t-12.5 -28t-25 -28.5t-15.5 -15q-59 -63 -117.5 -144.5t-112.5 -167.5t-104.5 -173t-95.5 -164q-39 -72 -77.5 -152t-75.5 -163t-70 -166t-59 -161q-6 -51 -37 -83q-6 -8 -21.5 -14.5t-33 -9.5t-35 -3h-29.5q-18 12 -26.5 46t-8.5 78zM920 336 q0 -35 6 -63.5t20 -63.5t30.5 -59.5t41.5 -53.5q51 -53 110 -82q27 -14 48 -18q23 -10 44 -12t44 -4q55 0 98 11t86 36q25 16 43 31.5t39 35.5q14 14 21.5 31.5t13.5 36.5q12 53 7 100t-30 103q-10 16 -33.5 44.5t-50 54t-51.5 41t-35 3.5q-4 -29 -12 -61.5t-12 -53.5v-17 t6 -18q2 -4 6 -8q4 -18 1 -33.5t-7 -31.5q-16 -41 -51 -66q-18 -10 -36 -17t-40 -7q-12 0 -27 6q0 4 -6 4q-6 6 -14 18q-10 14 -15 31q-4 14 0 31q2 14 15 26q4 4 16 12.5t18 10.5q23 10 51.5 11t55.5 -1q4 0 23.5 -2t38 -1t27.5 6.5t-9 21.5q-29 39 -63.5 76.5t-75.5 66.5 t-86.5 45t-92.5 10q-16 -4 -39 -14q-31 -18 -53 -39.5t-41 -52.5q-16 -31 -23 -59.5t-7 -65.5z" />
<glyph unicode="&#x26;" horiz-adv-x="1595" d="M124 633q15 90 77 164q33 39 64.5 63.5t66.5 42t72.5 30.5t84.5 30q-59 59 -94 110t-45 135q-4 47 5.5 81t35.5 69q29 37 65 56.5t81 33.5q57 20 135 17t151.5 -28.5t130 -76.5t72.5 -129q-20 -20 -52 -24.5t-61 12.5q-63 35 -121.5 53t-104.5 20t-76.5 -12t-37.5 -43 q-8 -37 27 -95.5t127 -140.5q51 -49 52 -110.5t-44 -97.5q-23 -18 -47 -23.5t-55 -8.5t-70 -10.5t-86 -27.5q-78 -35 -119 -96.5t-14 -153.5q16 -57 53 -106.5t86 -84t107.5 -55t120.5 -20.5q109 0 197.5 42t156.5 113q74 76 71 155t-46 181q-41 -23 -78 -53.5t-62 -69.5 q-27 -45 -32 -92q4 -16 -0.5 -28.5t-12.5 -26.5q-4 -6 -17.5 -16.5t-28.5 -21.5t-29.5 -19.5t-22.5 -12.5q-31 8 -50.5 56.5t-25.5 110t6.5 124t46.5 99.5q35 39 72 67.5t84 56.5l199 142q10 8 21 16t22 14q12 4 50 8.5t83 9.5l90 10t74 11q20 12 23 -1t-3 -33.5t-16 -42 t-13 -23.5q-53 -88 -125.5 -143.5t-164.5 -100.5q2 -2 4 -3t4 -3q49 -51 82 -111.5t46 -125t6 -130t-38 -124.5q-37 -72 -96.5 -125.5t-131 -88t-153.5 -51t-164 -14.5q-117 4 -220 46t-183 109.5t-133 154.5t-73.5 178.5t-5.5 181.5z" />
<glyph unicode="'" horiz-adv-x="765" d="M174 1135q6 25 9 54.5t7 53.5q-4 45 -2 99.5t25 89.5q18 12 54 15t76 1t78.5 -8t65.5 -10q27 0 29 -11.5t-10 -27.5q-29 -39 -48.5 -94.5t-35.5 -102.5q-4 -16 -5 -40t-1 -50.5v-52t2 -41.5q10 -10 7 -16.5t-11 -10.5q-4 -4 -19.5 -5t-32 -2t-33 -1h-22.5 q-14 0 -38.5 20.5t-47 47t-37 53t-10.5 39.5z" />
<glyph unicode="(" horiz-adv-x="954" d="M188 763.5v27.5q-2 137 21.5 258.5t81.5 238.5q10 23 21.5 42.5t27.5 37.5q33 37 78 59.5t94 27.5t101.5 -8t103.5 -48q18 -8 14 -18.5t-16.5 -20.5t-26.5 -17.5t-18 -9.5q-49 -33 -84 -79t-64 -99q-51 -98 -77.5 -191.5t-38.5 -207.5v-13q-4 -104 16 -207.5t74 -207.5 q23 -39 46 -71t58 -64l7 -3.5t7 -5.5q20 -14 35 -27.5t31 -29.5q8 -10 19.5 -28.5t23.5 -39t23.5 -40t17.5 -31.5q-2 -16 -38 -10t-81 21t-87 33.5t-56 26.5q-66 41 -114 89.5t-89 113.5q-18 33 -31 64q-41 111 -58 207t-20 206q-2 12 -2 24.5z" />
<glyph unicode=")" horiz-adv-x="929" d="M188 -12q6 12 17.5 31.5t24 40t24.5 39t20 28.5l29.5 29.5t34.5 27.5q6 4 14 9q35 33 58.5 64.5t46.5 70.5q53 104 73.5 207.5t16.5 207.5v13q-12 115 -39 208t-78 191q-29 53 -63.5 99t-83.5 79q-4 2 -18.5 9.5t-27 17.5t-16 20.5t14.5 18.5q51 35 103 48t102.5 8 t94.5 -27.5t78 -59.5q14 -18 25.5 -37.5t22.5 -42.5q57 -117 80.5 -238.5t21.5 -258.5v-26.5t-2 -25.5q-2 -111 -19.5 -207t-56.5 -206q-16 -37 -33 -64q-41 -66 -89 -114t-113 -89q-14 -8 -56.5 -26.5t-87.5 -33.5t-81 -21.5t-38 10.5z" />
<glyph unicode="+" horiz-adv-x="1390" d="M161 895.5q7 5.5 22.5 5.5t32.5 -3t22 -3q76 -16 153.5 -26.5t155.5 -20.5q-8 59 -10 118.5t8 108.5q14 31 43.5 53.5t67.5 38t79 23.5t76 12q18 8 25.5 0t7.5 -22.5t-3 -28.5t-5 -21q-18 -70 -24.5 -144.5t-10.5 -149.5q59 2 118.5 8t108.5 10q16 10 30.5 9t35.5 -7 q8 -4 21 -16.5t27.5 -26.5t26 -29.5t17.5 -25.5q2 -20 -25.5 -47t-66.5 -51.5t-79 -42t-63 -17.5q-35 4 -72.5 4h-72.5q6 -66 14 -132t13 -126q10 -23 9 -40t-9 -36q-10 -18 -47 -34.5t-60 -20.5q-16 6 -42 47t-50.5 93.5t-42 100.5t-19.5 70q2 16 2 34v34q-47 0 -91 3 t-81 11q-35 14 -67.5 44t-62 67t-56.5 77.5t-47 75.5q-16 18 -9 23.5z" />
<glyph unicode="," horiz-adv-x="923" d="M297 76q8 23 11 49.5t5 48.5q-4 39 -1 89t26 81q20 12 58 15t82 0t86 -8t71 -9q29 0 31 -9t-11 -26q-33 -35 -52 -85t-36 -95q-4 -14 -5 -35.5t-1 -45t1 -47.5t3 -38q10 -10 7 -15t-11 -9q-6 -2 -21.5 -4.5t-34 -2.5h-35.5h-26q-16 0 -42.5 18.5t-51 43t-41 48 t-12.5 36.5z" />
<glyph unicode="-" d="M229.5 916.5q1.5 7.5 11 8.5t20.5 -2t22 -5q72 -23 152.5 -33.5t154.5 -20.5q25 -2 58.5 -2t69.5 2t69.5 5t60.5 5q20 12 49 -6q8 -4 18.5 -17t20.5 -29.5t17.5 -33t11.5 -24.5q6 -10 -13.5 -33.5t-48.5 -47.5t-58.5 -40t-43.5 -12q-35 4 -72 5t-72 1q-27 -4 -57.5 -7 t-62 -4t-63.5 1t-58 10q-29 14 -54.5 46t-49 70t-43 75.5t-31.5 66.5q-10 14 -8.5 21.5z" />
<glyph unicode="." horiz-adv-x="1110" d="M344 102q4 4 12.5 27t16.5 48.5t14 49t8 29.5q-8 29 -6 59.5t27 46.5q31 2 81 -9t106 -29.5t108.5 -39t85.5 -34.5q4 -2 14 -5t17.5 -8.5t8.5 -8.5t-12 -5q-14 -12 -30.5 -51t-34 -81t-35.5 -73.5t-39 -31.5q-12 0 -65.5 10t-114 27.5t-109.5 38t-53 40.5z" />
<glyph unicode="/" horiz-adv-x="1234" d="M159 80q1 45 7 94t15 95t19.5 83t18.5 54q47 92 91 184t89 184q33 74 71 156t81 164t89 157.5t93 137.5q68 66 163.5 78t199.5 -19q23 -2 21.5 -14.5t-11.5 -27.5t-23.5 -28.5l-15.5 -15.5q-59 -66 -117.5 -145.5t-114 -166.5t-106.5 -175.5t-96 -165.5q-39 -72 -78 -152 t-76 -163t-69.5 -167t-59.5 -161q-2 -47 -37 -84q-14 -16 -55 -22.5t-65 -4.5q-18 12 -26.5 46t-7.5 79z" />
<glyph unicode="0" horiz-adv-x="1423" d="M82 666.5q2 91.5 21.5 177.5t52.5 160q27 57 67.5 108t93 90t115 63.5t131.5 28.5q47 2 97.5 -5t97.5 -36q25 -8 15.5 -18t-33 -20.5t-51 -19.5t-38.5 -15q-86 -43 -153.5 -132.5t-108.5 -198t-49 -225t22 -216.5q39 55 75 118.5t71 122.5q53 117 119.5 248t136.5 233 q35 35 77 56.5t91 34.5q-47 37 -92 53t-91.5 23.5t-92.5 10.5t-95 9q-47 6 -69.5 30.5t-49.5 73.5q8 18 54.5 28.5t101.5 14.5t105.5 3t70.5 -3q86 -14 155.5 -42.5t145.5 -84.5q63 -51 112.5 -116.5t82.5 -137t49 -147.5t16 -148q0 -82 -11 -167.5t-33.5 -167.5t-57.5 -156 t-82 -133q-98 -123 -240.5 -171t-318.5 -20q-66 10 -118 30t-105 54q-12 4 -22.5 6.5t-18.5 4.5q-12 12 -19 32q-53 47 -90 95.5t-67 111.5q-39 84 -55.5 176t-14.5 183.5zM539 213q27 -10 49 -12q123 -25 216 2.5t163 113.5q70 94 96.5 199t36.5 227q6 78 -3 161t-44 163 q-84 -125 -162 -253t-160 -255q-49 -80 -97 -169t-95 -177z" />
<glyph unicode="1" horiz-adv-x="731" d="M64.5 1276.5q11.5 9.5 34 15.5t46 9.5t27.5 3.5q53 12 92 34.5t71 48t60.5 50t63.5 39.5q25 10 50.5 7t49 -16.5t41.5 -35t29 -50.5q8 -31 9 -92t-3 -127.5t-9 -127t-8 -91.5q-6 -53 -7 -109.5t-5 -111.5q-6 -154 -14 -304.5t-17 -303.5q10 -57 -12 -99q-6 -10 -18.5 -17 t-27.5 -10t-31.5 -4t-28.5 1q-23 8 -39.5 41.5t-26.5 82t-16 102.5t-9.5 105.5t-4.5 90t1 57.5q10 106 20.5 231t12.5 234v213l2 -2q-82 -6 -166.5 22.5t-154.5 91.5q-23 12 -11.5 21.5z" />
<glyph unicode="2" horiz-adv-x="1251" d="M131 1208q66 113 181.5 179.5t242.5 83t245 -18.5t189 -127q43 -55 57.5 -113.5t10.5 -117t-21.5 -113.5t-38.5 -102q-41 -88 -92 -149.5t-112.5 -110t-132 -87t-150.5 -83.5q-59 -35 -94 -65t-52.5 -55.5t-18.5 -48t5 -40.5q41 -4 81 -7.5t73 -6.5t56.5 -5t31.5 -2 q96 2 200.5 12.5t200.5 16.5q16 8 33.5 6t38.5 -10q10 -4 23.5 -16.5t26.5 -27t23.5 -29.5t16.5 -26q0 -18 -31.5 -40.5t-73.5 -43t-85 -36t-64 -15.5q-53 4 -108.5 1t-108.5 -7q-39 -6 -87 -12t-97 -10.5t-97.5 -5.5t-89.5 4q-37 10 -61.5 37.5t-43 61.5t-35.5 71.5 t-40 68.5q-16 18 35 25q-4 14 -6 24.5t-2 14.5q-4 45 2 79.5t22 73.5q33 72 80 118t111 91q29 23 59.5 42.5t61.5 33.5q98 47 173.5 110.5t121.5 163.5q37 86 37.5 135.5t-24 73t-69.5 24.5t-99 -10.5t-110.5 -30t-103.5 -34.5q-41 -14 -74.5 -26.5t-64.5 -26.5 q-18 12 -44 25.5t-49.5 26.5t-40 26.5t-18.5 29.5z" />
<glyph unicode="3" horiz-adv-x="1128" d="M75 1309.5q3 11.5 17 20.5t35 26q55 41 135 72.5t171 46t183.5 8.5t169.5 -41q160 -72 191 -232q47 -252 -152 -362q88 -61 137.5 -143t69.5 -179q18 -90 7 -164.5t-49 -134t-99.5 -103.5t-138.5 -73q-35 -12 -91.5 -28.5t-118 -28.5t-121 -17.5t-99.5 3.5 q-16 2 -43 23.5t-52.5 48t-44 54t-20.5 44.5q29 0 93 8t142 24.5t159 43t144 61.5q43 25 76 57.5t45.5 71.5t2 83t-53.5 93q-39 43 -101.5 71.5t-130 45t-132 23.5t-103.5 7q-31 -8 -42 9.5t-7 44t17.5 53t31.5 37.5q4 4 8 5t8 3t52.5 22.5t114 51t134 68.5t113.5 74 t52.5 67.5t-52.5 52.5q-31 10 -91 7t-126.5 -10t-126 -17.5t-88.5 -14.5q-66 -10 -112.5 12.5t-73.5 42.5q-27 25 -35 38t-5 24.5z" />
<glyph unicode="4" horiz-adv-x="1277" d="M89 692q5 6 16.5 7t24.5 -2t22 -5q10 29 25.5 61.5t29.5 62.5t27.5 52.5t21.5 30.5q41 33 76 74t65 82q23 39 46.5 83t48 88t49 86t51.5 77q27 25 65.5 39t81.5 22t87 9t85 1q23 6 24 -7t-7 -31.5t-18.5 -36t-10.5 -19.5q-74 -111 -141.5 -217.5t-153.5 -208.5 q-61 -78 -112.5 -145.5t-118.5 -135.5q86 -6 141 -8t104.5 -1t104.5 6.5t141 11.5q-2 82 2 166t21 147q16 33 45 54.5t65.5 34.5t76.5 19.5t79 6.5q18 6 23.5 -3.5t3.5 -22.5t-6.5 -26.5l-6.5 -19.5q-18 -53 -30.5 -113.5t-21.5 -124t-15 -127t-13 -120.5q-8 -104 -7 -223 t1 -230q10 -35 -8 -68q-6 -8 -19.5 -15t-28.5 -11t-31.5 -7t-26.5 -3q-20 8 -41 51t-37.5 94t-26.5 99t-8 71q4 35 6 72t4 75q-16 -6 -26 -6q-49 4 -100.5 3t-98.5 -5q-37 -6 -79 -10t-86 -7t-88 -1t-81 8q-35 14 -66.5 42t-57 62.5t-47 71.5t-38.5 70q-12 14 -7 20z" />
<glyph unicode="5" horiz-adv-x="1249" d="M115 776.5q4 26.5 10 52.5q16 37 26.5 84.5t20.5 87.5q4 23 9 62t13.5 78t19.5 70.5t28 39.5q-35 41 -65 89t-50 83q-12 14 -11 21.5t8 9.5t18.5 1t21.5 -3q86 -16 190.5 -18t192.5 -7q41 0 91 5.5t100 11.5t99.5 14t90.5 17q16 10 31.5 10t37.5 -4q10 -4 24.5 -14.5 t29 -25t28 -28.5t19.5 -22q4 -20 -25 -48t-68.5 -54.5t-81.5 -45t-67 -20.5q-53 0 -108.5 -4.5t-108.5 -8.5q-25 -4 -57.5 -9t-67.5 -9q-6 -10 -11 -18.5t-9 -16.5q-27 -47 -48.5 -99t-42.5 -106l-20 -73q61 16 137 31.5t155 19.5t156.5 -8.5t145.5 -53.5q68 -43 103.5 -98 t49 -116.5t9.5 -125t-17 -120.5q-18 -84 -65 -151t-111.5 -118t-142.5 -88t-158 -57q-33 -10 -70.5 -19.5t-77.5 -14.5t-80 -6t-77 9q-2 0 -8 2t-8 2q-35 10 -66 33t-50.5 47.5t-26.5 49t5 36.5q4 2 14.5 -3t14.5 -7q33 -8 81 -1t96 21.5t91 32t68 29.5q49 25 105.5 50.5 t106.5 59t88 75.5t50 99q16 84 -7.5 129.5t-72.5 62.5t-114.5 13t-135 -16t-133 -28.5t-106.5 -24.5q-14 0 -49 8t-56 12q-51 14 -75.5 34.5t-32.5 45.5t-4 51.5z" />
<glyph unicode="6" horiz-adv-x="1286" d="M115.5 812q29.5 228 158.5 407q63 86 154.5 154.5t208.5 84.5q27 2 62.5 5t73.5 5t74 1t62 -5q74 -10 132 -46t83 -124q-41 2 -83 3t-86 -2t-91 -12t-98 -30q-129 -53 -219 -145t-139.5 -211t-57.5 -258t25 -285q10 -49 32.5 -98t75.5 -76q59 -29 137 -10.5t151 70 t125 125t58 155.5q2 23 -1 56.5t-15 64.5t-34.5 52.5t-59.5 21.5q-23 2 -67 -5.5t-92 -18.5t-92 -20t-67 -9q-25 0 -45 11t-34.5 26.5t-24.5 32t-16 26.5q0 14 28.5 34.5t65.5 40t71.5 34t46.5 18.5q82 25 181.5 22.5t187.5 -55.5q80 -47 126 -122t61.5 -155.5t4 -161.5 t-45.5 -141q-59 -102 -153.5 -181t-209.5 -118q-104 -35 -201.5 -25.5t-179.5 57.5t-144.5 134t-92.5 205q-66 240 -36.5 468z" />
<glyph unicode="7" horiz-adv-x="1163" d="M101.5 1457q4.5 7 18 9t30 0t22.5 -2q98 -14 197.5 -23t197.5 -20q35 -2 78 0t86 7.5t84 13.5t74 16q12 10 24.5 12.5t30.5 -0.5h14q31 -10 56.5 -40.5t40.5 -59.5q2 -10 -4.5 -31.5t-16.5 -44t-20 -41t-17 -24.5q-39 -45 -76.5 -110.5t-72.5 -138.5t-64.5 -145.5 t-52.5 -129.5q-23 -61 -43 -136t-36.5 -154t-29 -157t-16.5 -145q6 -27 3 -46.5t-13 -41.5q-8 -20 -43 -41t-55 -29q-31 10 -52.5 68.5t-32 132t-12.5 143.5t5 102q25 86 47 172t49 172q12 51 28.5 110.5t36 120t43 120t47.5 108.5l-14 -2q-31 -4 -71 -7t-80.5 -4t-80.5 1 t-73 8q-31 12 -62.5 41t-61.5 62.5t-56.5 69.5t-44.5 63q-16 14 -11.5 21z" />
<glyph unicode="8" horiz-adv-x="1157" d="M117.5 476.5q11.5 62.5 48.5 113.5q35 47 87 85t116 73v2q-78 59 -140.5 123.5t-87.5 138.5q-18 63 -22 117.5t18 111.5q23 66 70 99.5t105.5 39.5t122 -12t122.5 -59q31 -12 21.5 -19.5t-34 -10.5t-54 -4t-37.5 -3q-37 -6 -70 -24.5t-41 -57.5q-6 -29 1 -56.5t17 -56.5 q2 -6 10.5 -17t12.5 -16q37 -41 94.5 -82.5t122.5 -91.5q76 43 132 91.5t79 107.5q10 25 10 66t-16 69q-27 41 -82 73t-100 48q-49 16 -84 27.5t-68 20.5t-68.5 17.5t-87.5 18.5q0 12 31 25.5t70 22.5t75.5 16.5t47.5 7.5q76 6 153.5 -12.5t145 -59.5t115.5 -103.5 t67 -144.5q16 -76 6 -142.5t-41 -123.5t-77 -104.5t-101 -83.5v-5q92 -86 159.5 -192.5t71.5 -239.5q4 -94 -33.5 -160.5t-102 -105.5t-148.5 -51t-172 2t-174 54t-156 104q-53 49 -87 110.5t-46.5 126t-1 127zM338.5 348q13.5 -53 52.5 -88q43 -41 111.5 -62.5t134 -20.5 t112 31t42.5 91q-4 82 -63.5 152.5t-143.5 136.5h-2q-68 -33 -133.5 -71t-94.5 -77t-15.5 -92z" />
<glyph unicode="9" horiz-adv-x="1218" d="M64.5 1014q11.5 80 46.5 141q59 104 154 183t210 118q104 35 202.5 26t180.5 -58.5t144.5 -135.5t93.5 -205q66 -242 36 -471t-161 -407q-63 -86 -154.5 -154.5t-208.5 -85.5q-27 -2 -62.5 -5t-74.5 -5t-75 -2t-62 4q-37 6 -71 17.5t-61.5 31t-49 49t-33.5 74.5 q41 -2 83 -3t86 2t91 12.5t100 29.5q129 53 219 146.5t139.5 213t58.5 259t-24 284.5q-12 49 -34.5 98.5t-73.5 75.5q-59 31 -139 11.5t-152 -69.5t-125 -125t-59 -157q-2 -25 1 -58.5t15 -64t36 -52t60 -21.5q23 -4 67 4t92 19t92 20.5t67 9.5q25 0 45 -11.5t34.5 -26.5 t25 -30.5t16.5 -27.5q2 -14 -27 -35t-66.5 -40.5t-72.5 -33.5t-47 -18q-82 -25 -181.5 -23t-189.5 55q-80 47 -126 122t-61.5 157t-4 162z" />
<glyph unicode=":" horiz-adv-x="985" d="M305 225q4 2 10.5 19.5t12.5 37t11 38t5 24.5q-4 23 -3 46.5t19 33.5q23 2 62 -6t82 -22.5t83.5 -30t65.5 -25.5q4 -2 11.5 -5t13.5 -6t7 -6.5t-9 -3.5q-12 -10 -24.5 -40.5t-26 -62.5t-27.5 -56.5t-31 -24.5q-8 0 -49 8.5t-87 20.5t-85 28.5t-41 32.5zM305 856 q4 2 10.5 19.5t12.5 38t11 39t5 22.5q-4 23 -3 46t19 34q23 2 62 -6.5t82 -22.5t84 -29.5t65 -25.5q4 -2 11.5 -5t13.5 -6.5t7 -6.5t-9 -3q-12 -10 -24.5 -40.5t-26 -62.5t-28 -56.5t-30.5 -24.5q-8 0 -49 8t-87 20.5t-85 29t-41 32.5z" />
<glyph unicode="&#x3c;" horiz-adv-x="1492" d="M174 692q-10 27 7.5 60.5t50 70.5t76.5 74t88 72t82 63.5t61 46.5q53 59 110.5 118.5t128.5 100.5q43 14 95.5 13.5t107.5 -11t107.5 -27t95.5 -30.5q27 -4 24.5 -15t-17.5 -23.5t-33.5 -24t-22.5 -13.5q-98 -51 -186.5 -118.5t-180.5 -126.5q-43 -31 -79 -59.5 t-71.5 -55.5t-72.5 -53.5t-82 -55.5q49 -29 90 -54.5t80 -52t79 -55t87 -59.5q100 -59 197.5 -126.5t205.5 -119.5q4 -2 24.5 -13t37 -23.5t20.5 -24.5t-22 -14q-41 -16 -91.5 -31.5t-104.5 -26t-106.5 -11.5t-97.5 13q-76 41 -142.5 100.5t-125.5 118.5q-51 39 -115.5 80 t-126 87t-110.5 96.5t-68 109.5z" />
<glyph unicode="=" horiz-adv-x="1705" d="M290 607q3 5 14 6t26.5 -1t27.5 -4q96 -20 201 -28.5t201 -18.5q33 -2 77 -2t90 2t91 4t80 4q26 12 63 -4q10 -4 23.5 -16t27 -26.5t23.5 -28t16 -21.5q6 -10 -18.5 -30.5t-61 -41t-75.5 -35t-60 -12.5q-45 4 -94 5t-92 1q-68 -8 -157 -11t-161 9q-35 14 -69.5 42t-64 62 t-55.5 67.5t-42 58.5q-14 14 -11 19zM290 1160q3 5 14 6t26.5 -1t27.5 -4q96 -20 201 -28.5t201 -18.5q33 -2 77 -2t90 2t91 4t80 4q27 12 63 -4q10 -4 23.5 -16t27 -26.5t23.5 -28t16 -21.5q6 -10 -18.5 -30.5t-61 -41t-75.5 -35t-60 -12.5q-45 4 -94 5t-92 1 q-68 -8 -157 -11t-161 9q-35 14 -69.5 42t-64 62t-55.5 67.5t-42 58.5q-14 14 -11 19z" />
<glyph unicode="&#x3e;" horiz-adv-x="1472" d="M186 170q4 12 20.5 24.5t37 23.5t26.5 13q106 51 203.5 119t198.5 127q47 31 87 59.5t79 55t79.5 52.5t90.5 54q-45 29 -82 55.5t-73 53.5t-70.5 55.5t-77.5 59.5q-94 59 -182.5 126.5t-186.5 118.5q-4 2 -22.5 13.5t-34 24t-18.5 23.5t26 15q43 14 95 30.5t107.5 27 t107.5 11.5t95 -14q72 -41 129.5 -100t110.5 -119q33 -29 99.5 -78t131 -104t106.5 -110.5t27 -94.5q-18 -59 -66 -109.5t-109.5 -96.5t-127 -87t-114.5 -80q-61 -59 -127 -118.5t-144 -100.5q-45 -14 -97 -13t-106.5 11.5t-104.5 25.5t-91 32q-27 2 -23 14z" />
<glyph unicode="?" horiz-adv-x="1193" d="M150 1214q18 59 56 111.5t87 87.5q51 37 115.5 55.5t135 16.5t141.5 -22.5t136 -61.5q78 -49 125 -111.5t67.5 -131t14.5 -140.5t-33 -137q-31 -68 -73.5 -117t-93 -90t-103.5 -81t-102 -89q-4 -4 -16.5 -22.5t-26.5 -39.5q-16 -23 -35 -53q-10 -6 -25.5 -4t-34 6t-36 7 t-29.5 -1q-18 6 -19.5 35t6 62.5t16.5 64.5t13 39q14 29 41 65.5t57.5 73.5t62.5 70t60 53q41 29 75 60.5t56 74.5q12 27 17.5 55.5t0.5 55.5t-22.5 51.5t-54.5 44.5q-59 33 -121.5 34t-119 -17.5t-105.5 -51t-84 -69.5q-16 -33 -43 -26t-52.5 34t-42 59.5t-11.5 48.5z M375 55q4 2 9 17.5t11 33t10.5 33t4.5 19.5q-4 20 -3 40.5t17 30.5q20 2 54 -6t71 -20.5t71.5 -26.5t57.5 -22q6 -2 21.5 -8.5t-1.5 -8.5q-10 -8 -20 -34.5t-22.5 -54.5t-25 -49.5t-26.5 -21.5q-8 0 -44 7.5t-76 18.5t-73.5 24.5t-35.5 27.5z" />
<glyph unicode="@" horiz-adv-x="1605" d="M164 700q-2 70 3 129.5t19.5 114.5t39 107.5t59.5 105.5q49 70 116.5 124t148.5 90t171 51.5t184 4.5q195 -23 339.5 -139.5t197.5 -308.5q39 -143 17.5 -281.5t-109.5 -240.5q-31 -35 -72 -62.5t-89 -40t-100.5 -7.5t-103.5 38q-41 27 -69.5 63.5t-47.5 77.5 q-47 -35 -98 -43t-113 15q-47 18 -78.5 52t-48 77t-20.5 91t4 95q14 86 66.5 144.5t124 86t155.5 23.5t162 -43q12 -4 18.5 -19.5t4 -33t-11.5 -28.5t-29 -7q-47 10 -124 -2t-137 -41q-51 -27 -69.5 -58.5t-12 -59t31 -45t59 -14.5t75.5 32.5t76 95.5q20 41 53 50t64 -4 t50.5 -46t12.5 -76q-6 -31 -11 -77t-1 -77.5t25.5 -37t68.5 44.5q59 63 73.5 154t-7.5 183q-23 88 -75 147.5t-120.5 90.5t-149.5 34t-159 -20.5t-147.5 -70.5t-118.5 -117q-59 -92 -75.5 -184.5t-0.5 -212.5q10 -72 43 -134.5t81 -115.5t109.5 -94t129.5 -66 q33 -12 76.5 -19.5t88.5 -10.5t88 -3t78 4q61 8 112.5 32t94.5 34q29 8 55.5 5t51.5 -11q2 -31 -35 -65t-86 -64.5t-100.5 -53t-77.5 -30.5q-100 -25 -189.5 -22t-197.5 34q-111 35 -208.5 99.5t-170 150.5t-116.5 189.5t-48 215.5z" />
<glyph unicode="A" horiz-adv-x="1318" d="M46 429q10 7 30 10t40.5 2t24.5 -1q14 -2 26.5 -2h27.5q25 66 63.5 126.5t63.5 133.5q10 29 25 80t34.5 113.5t40 129t40 126t36 106.5t26.5 68q31 57 64 84t68.5 42t76.5 26t88 36q5 6 10 6q7 0 15 -8q14 -14 27.5 -37.5t23.5 -49t14 -38.5q55 -182 91 -364t63 -367 q8 -41 17.5 -88t19.5 -98l24 -6q14 -6 31 -19.5t32 -30t26.5 -32t15.5 -23.5q1 -2 1 -4q0 -6 -8 -14q-12 -10 -27 -19.5t-31.5 -17.5t-22.5 -10q16 -59 31.5 -114.5t33.5 -102.5q20 -23 20 -52q0 -5 -1 -10q0 -6 -9.5 -16t-20.5 -21.5t-22.5 -20.5t-17.5 -13q-6 -2 -13 -2 q-24 -1 -50 23q-34 30 -66.5 75t-59 95t-40.5 87h-4q-35 3 -71 3q-17 0 -35 -1q-54 -2 -105 -6q-27 -4 -78 -12t-106.5 -15.5t-105.5 -9.5h-23q-33 0 -52 4q-10 -16 -17 -30.5t-18 -28.5q-8 -33 -24.5 -54.5t-40.5 -41.5q-12 -10 -31.5 -15.5t-41 -7.5t-43 -1t-38.5 5 q-6 8 -4 40t11.5 75t22.5 92t28 96q-27 25 -49.5 50.5t-43.5 48.5q-16 10 -16 16q0 3 3 5zM471 436h74t73 -2q63 2 130 7t135 10q-8 35 -15.5 70.5t-15.5 70.5q-29 113 -62.5 238.5t-60.5 244.5q-39 -111 -82 -221.5t-90 -214.5q-16 -35 -28.5 -69.5t-28.5 -69.5 q-17 -33 -29 -64z" />
<glyph unicode="B" horiz-adv-x="1273" d="M84 1434q27 10 75 17t85 15q80 14 190 24q62 6 125 7q49 0 99 -4q114 -8 220.5 -39t184.5 -100q57 -53 88 -123q23 -52 23 -102q0 -18 -3 -35q-6 -41 -28.5 -84t-54 -83t-67.5 -71t-69 -45q27 -8 58.5 -24.5t56.5 -34.5q49 -39 77 -88q26 -48 38 -100q10 -44 11 -89 q0 -8 -1 -16q-2 -53 -12 -101q-16 -84 -58.5 -146t-103 -108.5t-135 -76t-156.5 -47.5q-20 -4 -39.5 -7.5t-40.5 -7.5q-71 -18 -149 -18q-68 0 -142 14q-29 4 -64.5 16.5t-71.5 31t-67.5 41t-52.5 46.5q0 6 48.5 14.5t117.5 18.5q-14 33 -27.5 73t-24.5 78.5t-16 70.5t-5 48 q8 59 11 123t5 123q-2 49 -4 107q-1 38 -1 77v39q1 58 5 113t14 100q14 37 44 65t67 48t77.5 35.5t77.5 25.5q18 12 23.5 -1t5.5 -32.5t-4 -39t-4 -21.5q-25 -133 -43 -280q4 2 10 2q106 29 193.5 67.5t165.5 108.5q39 37 58 69.5t13 60.5t-39.5 49.5t-99.5 33.5 q-53 12 -125 14q-21 1 -41 1q-52 0 -104 -4q-74 -5 -140.5 -17.5t-109.5 -26.5q-33 6 -62.5 30.5t-52 55.5t-36 60.5t-13.5 48.5zM429 409q1 -122 3 -227q6 -16 6 -30q76 10 134.5 17t72.5 11q88 29 155.5 74t117.5 117q23 33 34 80q8 32 8 63q0 14 -2 27q-2 29 -8 41 t-32 22q-39 12 -83 16q-22 2 -44 2q-23 0 -45 -2q-44 -4 -87 -10t-79 -10h-26.5t-29.5 4q-49 14 -84 47l-2 -18q-9 -93 -9 -202v-22z" />
<glyph unicode="C" horiz-adv-x="1286" d="M79 700v12q0 94 15 181q14 84 45 171t78 164t110.5 138t143.5 94q45 18 103 26q52 8 109 8h13q64 -1 125.5 -12.5t112.5 -35.5q49 -25 99 -56.5t89 -74.5q23 -27 20 -52.5t-19.5 -45t-40 -31.5t-42.5 -12q-43 14 -97 34.5t-109 34.5q-56 13 -107 19q-15 2 -29 2 q-33 0 -59 -9q-57 -23 -108.5 -60.5t-86.5 -84.5q-29 -41 -52 -94t-40.5 -110.5t-28 -117t-14.5 -114.5q-2 -20 -2 -40q0 -32 4 -64q6 -54 22.5 -108t43 -104.5t67.5 -91.5q44 -46 104 -62q56 -16 114 -15h8q62 1 121 16.5t102 34.5q12 8 40 30.5t56.5 46t50.5 41.5l21 19 q16 8 36.5 7t43 -5t44 -7t42.5 1q11 -4 11 -18q0 -9 -4 -21q-11 -33 -33.5 -70t-45 -69.5t-29.5 -38.5q-51 -53 -104 -89t-123 -65q-106 -41 -221 -43h-7q-112 0 -229 59q-72 37 -128 90.5t-99 118t-71.5 134t-43.5 141.5q-20 98 -21 198z" />
<glyph unicode="D" horiz-adv-x="1363" d="M47 160q12 3 29.5 3t39.5 -3q44 -6 102 -10q47 -4 104 -4h26q72 1 154 24q45 12 76.5 26.5t60.5 30t56.5 34t64.5 40.5q80 51 145.5 146.5t101 207t37.5 225.5q0 6 1 11q-1 107 -47 193q-48 92 -152 146q-88 46 -226 46q-25 0 -53 -2q1 -9 1 -23q0 -27 -3 -73 q-4 -68 -13 -160t-18.5 -196.5t-16.5 -201t-10 -172.5q-1 -26 -1 -47q0 -42 4 -67q6 -39 -10.5 -59.5t-39 -29.5t-43 -10.5t-22.5 -1.5q-20 6 -35.5 45t-28 94.5t-21.5 120t-14 122t-7 102.5t0 61q5 74 5 133q0 36 -2 66q-2 35 -2 65q0 36 3 64q6 51 34.5 85t108.5 69 q-74 -12 -136 -27.5t-103 -26.5q-31 49 -49.5 107.5t-28.5 87.5q45 25 128 46t187 29q52 4 106 4t112 -4q114 -8 220.5 -40.5t195.5 -97t142 -167.5q46 -91 60 -209q6 -48 6 -98q0 -72 -12 -148q-20 -128 -72.5 -254t-140.5 -229.5t-209 -175t-277 -90.5q-49 -6 -101 -6 q-18 0 -38 1q-72 3 -139.5 22.5t-129 61.5t-110.5 114z" />
<glyph unicode="E" horiz-adv-x="1261" d="M72 1468q3 1 7 0q10 0 25 -4q35 -10 82 -15t96.5 -7t97.5 -3t85 -3q111 0 236.5 10t238.5 16q26 5 49 5q39 0 73 -14q54 -23 107 -89q-2 -16 -50 -40t-111.5 -45.5t-123 -37.5t-83.5 -16h-82h-69t-68.5 -3t-79.5 -10q-10 -80 -19.5 -161.5t-17.5 -163.5q25 -2 50.5 -4 t49.5 -6q22 -1 47 -1h26q40 1 81 4t80 5t73 4q14 8 27.5 6t30.5 -10q8 -4 20.5 -17.5t23.5 -29t20.5 -30.5t13.5 -24q0 -16 -23.5 -38.5t-56.5 -42t-67 -34t-54 -14.5q-66 3 -108 3h-19q-45 -1 -79 -4q-35 -3 -67 -6q-20 -2 -48 -2q-19 0 -42 1q-3 -69 -3 -143v-38 q1 -95 10 -167q14 -27 0 -49q-8 -8 -39 -19q59 -4 116.5 -5t104.5 -3q45 0 99 2t110.5 7.5t111 11.5t97.5 14q20 16 49 2q6 -4 17 -15.5t22.5 -25.5t20.5 -28.5t16 -20.5q2 -8 2 -16q0 -18 -14 -38q-20 -28 -52.5 -49.5t-69 -36t-61.5 -16.5q-25 1 -51 1q-38 0 -77 -2 q-65 -3 -128 -7q-43 -4 -98.5 -9t-113.5 -8q-44 -2 -86 -2h-27q-56 1 -99 9q-37 12 -66.5 39.5t-54 62.5t-43 72t-33.5 70q-10 14 -8 21t9.5 8t18.5 -2t21 -5q76 -16 164 -22q-23 20 -40 54t-30.5 70.5t-20.5 71.5t-7 56q0 12 3 56t6 92t5 88t0 46q-23 35 -42 69t-33 60 q-12 18 -6 24.5t19 6.5t30.5 -5t29.5 -7q0 78 2.5 153.5t12.5 128.5q-25 14 -49.5 44t-45 64t-37 67.5t-28.5 58.5q-10 17 -10 24q0 5 4 6z" />
<glyph unicode="F" horiz-adv-x="1267" d="M78 1464q3 1 7 0q10 0 26 -4q35 -10 82 -14t96 -7t97 -3.5t85 -3.5q111 0 237 11t240 17q25 5 48 5q40 1 75 -15q55 -24 111 -90q-2 -16 -50.5 -40t-111 -45.5t-121.5 -37.5t-84 -16q-41 3 -82 3q-21 0 -41 -1q-62 -2 -121 -6q2 -12 1 -58.5t-3 -102t-3 -106.5t-1 -69 q18 -2 37 -4.5t37 -4.5q26 -2 55 -2q47 0 100 4q87 6 154 11q14 8 28.5 6t31.5 -10q8 -4 19 -17.5t22.5 -29t21.5 -31t14 -23.5q2 -16 -21.5 -38.5t-55 -42t-65.5 -35t-54 -15.5q-82 4 -120 4t-63.5 -2t-55 -5t-93.5 -5l-12 -575q6 -23 2 -39.5t-15 -32.5q-6 -8 -20 -12.5 t-30.5 -7.5t-33 -3t-28.5 2q-23 12 -41.5 57.5t-32.5 98.5t-21.5 103.5t-7.5 72.5q10 68 12.5 141.5t2.5 145.5q-4 35 -6 75t-7 81q-29 39 -54 78.5t-42 72.5q-12 18 -6 24.5t21.5 4.5t36 -7.5t36.5 -7.5q-2 61 -3 103v7q0 39 12 69q12 32 40.5 56.5t83.5 51.5 q-51 -6 -100 -8h-24q-34 0 -60 4q-29 12 -54.5 42t-48 64.5t-42 70.5t-31.5 63q-10 15 -10 22q0 5 4 6z" />
<glyph unicode="G" horiz-adv-x="1325" d="M74 696q0 92 12 176q14 98 54 198.5t103.5 184.5t147.5 145.5t187 84.5q47 10 91 10q10 0 21 -1q53 -3 117 -24q226 -100 326 -319q20 -29 -3.5 -22.5t-61.5 26t-77 42t-49 26.5q-81 35 -155 35h-10q-79 -3 -146.5 -33.5t-121.5 -81.5t-93 -111q-39 -59 -68 -136 t-41 -161q-8 -53 -8 -107q0 -32 3 -64q7 -87 40 -167q25 -61 64.5 -109t89 -78t104.5 -37q13 -2 27 -2q42 0 86 17q53 20 90 52t64.5 71t46 85t34.5 98q0 4 4 12h-8q-51 -8 -118 -12q-13 -1 -27 -1q-50 0 -92 13q-27 14 -52.5 45t-48 66.5t-42 72.5t-32.5 64q-10 14 -7 20 t11.5 7t20.5 -1t21 -4q72 -23 150.5 -32t150.5 -19q25 -2 57.5 -2t67 2t68.5 4t61 4q10 10 21 7t26 -11q8 -4 18 -17.5t19.5 -28.5t17.5 -30.5t12 -23.5q1 -2 1 -4q0 -10 -13 -27q-16 -20 -42 -41.5t-54.5 -38t-46.5 -18.5q10 -37 10 -47q1 -17 1 -34q0 -26 -2 -52 q-3 -43 -14 -82q-41 -104 -99 -181t-163 -127q-67 -29 -142 -29h-3q-76 1 -151.5 25.5t-145.5 71.5t-125 113q-68 78 -107.5 168t-58 184t-18.5 186z" />
<glyph unicode="H" horiz-adv-x="1337" d="M60 878q8 6 26 6.5t36.5 -3.5t22.5 -4q14 -2 27.5 -4.5t28.5 -4.5q2 104 7 211t21 189q14 39 41 66.5t62 47t74.5 32t80.5 20.5q18 8 23.5 -2.5t5.5 -28t-4 -34.5t-4 -19q-25 -119 -40 -251t-28 -261q70 -6 120 -11.5t98 -6.5h32q33 0 67 1q52 2 124 8q0 63 -1 141v38 q0 58 2 116q3 78 10 150t19 125q14 35 44 55.5t66 28.5q29 6 60 6h16q40 -2 79 -10q31 -4 29.5 -14.5t-11.5 -28.5q-18 -43 -31.5 -116t-24 -154t-17.5 -162.5t-13 -145.5q27 -4 51.5 -18.5t45 -31.5t32.5 -30.5t12 -15.5q0 -10 -12 -24.5t-33.5 -29t-49.5 -29.5t-56 -28 q-1 -43 -1 -87q0 -88 3 -178q4 -136 16 -253q9 -24 9 -47q0 -21 -7 -41q-2 -10 -13 -20.5t-24.5 -18.5t-28 -15t-24.5 -11q-33 6 -61.5 62t-50 127t-34 138.5t-12.5 95.5q6 98 7 203q-41 0 -80 -1t-80 -1q-63 -6 -142 -10q-40 -2 -78.5 -2t-76.5 2q-3 -81 -3 -165 q0 -42 1 -86q2 -130 12 -243q9 -25 9 -49q0 -21 -7 -41q-6 -20 -39 -41.5t-53 -29.5q-29 8 -55.5 63t-48 124t-35 135.5t-13.5 94.5q6 82 8.5 165t6.5 165q-41 41 -75 85t-60 85q-11 11 -11 17q0 3 3 5z" />
<glyph unicode="I" horiz-adv-x="559" d="M133 1220.5q0 77.5 8 133.5q12 39 39 58.5t60.5 27.5t71.5 11t75 9q10 4 17 4q12 0 13 -12v-7q0 -14 -3 -28q-12 -53 -19.5 -136t-10.5 -175t-5 -180t-4 -150q-2 -75 -2 -150q0 -94 3 -188q4 -121 4 -242q0 -48 -1 -96q5 -18 5 -33q0 -26 -13 -47q-12 -18 -49 -23 q-21 -3 -37 -3q-13 0 -23 2q-29 14 -51.5 64.5t-36.5 109.5t-21.5 115.5t-7.5 81.5q5 94 7 192q1 42 1 84q0 56 -1 111q-4 61 -8.5 142t-7.5 164t-3 160.5z" />
<glyph unicode="J" horiz-adv-x="1060" d="M66 389q-1 13 -1 25.5t1 25.5q2 39 26 68q20 23 48 38q22 12 49 12q7 0 14 -1q2 0 3 -12.5t1 -27.5v-29.5t2 -20.5q4 -23 9 -40t15 -38q23 -41 47.5 -70.5t61.5 -58.5q35 -27 59.5 -37t63.5 -20q2 0 5 -1t5 -1q31 -8 55 -6q25 2 44.5 9t41.5 17q10 4 19.5 18.5t13.5 24.5 q14 29 25 66q4 16 6 31.5t6 31.5q14 96 18.5 193.5t6.5 197.5q0 86 -2 172q-1 29 -1 57q0 58 3 115q12 113 61.5 197t153.5 125q8 7 14 7t10 -7q8 -14 10 -36q2 -17 2 -33v-13q-1 -22 -1 -25q-2 -88 -2 -175q0 -65 1 -129q1 -45 1 -90q0 -106 -5 -214q-6 -109 -16 -215 t-37 -209q-10 -47 -22.5 -86t-30.5 -82q-18 -37 -41 -64.5t-59 -49.5q-37 -23 -71 -34t-79 -18q-33 -3 -62 -3h-14q-35 1 -75 12q-78 23 -136.5 59.5t-115.5 97.5q-23 25 -40.5 48.5t-33.5 52.5q-27 37 -40 70.5t-17 74.5z" />
<glyph unicode="K" horiz-adv-x="1245" d="M92 332q6 90 7 182t1 182q-2 70 -4 154q-1 56 -1 112v57q1 85 7.5 165t18.5 145q31 79 107 109q55 22 117 21q24 0 50 -3q18 0 23.5 -7t3.5 -18.5t-7 -22.5t-7 -17q-14 -41 -25.5 -94.5t-20 -113t-14.5 -123t-10 -124.5q39 33 75 70.5t66 74.5q20 27 51 75t63 97.5 t59.5 91t43.5 58.5q25 20 62 30.5t78 16.5t83 8t76 4q8 3 14 3q9 0 11 -6q4 -11 -1 -29.5t-12.5 -36t-9.5 -19.5q-72 -127 -148.5 -225t-172.5 -205q27 -70 50.5 -127t47 -112.5t50 -114t63.5 -127.5q23 -41 55.5 -90t67 -99.5t71.5 -97.5t70 -82q16 -8 23.5 -18t11.5 -27 q1 -2 1 -6q0 -7 -2 -15q-3 -14 -7 -29t-10.5 -29.5t-8.5 -20.5q-10 -9 -26 -9q-14 0 -33 7q-41 14 -85 41.5t-83 61.5t-58 59q-35 59 -72.5 117.5t-74.5 115.5q-20 27 -58 84t-75 118.5t-65.5 118t-30.5 82.5q-12 -12 -36 -37.5t-50.5 -52t-51 -47t-41.5 -24.5 q-1 -45 -1 -90q0 -79 2 -160q4 -127 8 -248q6 -16 6 -32q0 -20 -10 -38q-6 -8 -19.5 -14t-29 -9t-31 -3h-25.5q-31 10 -54.5 56t-39.5 101.5t-24.5 107.5t-8.5 77z" />
<glyph unicode="L" horiz-adv-x="1142" d="M95 260q7 4 28 -6q35 -16 90 -23q-14 31 -26.5 67t-20.5 70.5t-12 64.5t-4 46q6 82 7 167t3 169q-2 59 -4 133q-1 49 -1 100v51q1 77 6 147.5t17 123.5q14 35 43 55.5t63.5 31.5t75.5 12h12q35 0 68 -5q33 0 29 -18.5t-10 -34.5q-18 -53 -30.5 -129t-22 -159 t-14.5 -162.5t-11 -141.5q-4 -67 -5 -139v-72v-74q1 -74 4 -148.5t7 -141.5q8 -14 8 -31q16 0 31.5 -1t28.5 -1q22 -1 46.5 -1t50.5 1q52 2 105.5 6t104.5 8t98 8q20 10 40 8.5t42 -10.5q12 -4 26.5 -15t30 -25.5t28.5 -30t20 -25.5q0 -16 -38 -39.5t-87.5 -45t-97.5 -37 t-70 -15.5q-42 3 -86 3h-22q-56 -1 -109 -5q-29 -4 -68 -8t-79 -8q-28 -2 -56 -2h-23q-39 2 -69 10q-27 14 -49.5 44.5t-41 65.5t-32 71t-21.5 62q-6 15 -6 22q0 5 3 7z" />
<glyph unicode="M" horiz-adv-x="1398" d="M117 399q12 90 19 182.5t14 184.5q2 57 3 132t4 150.5t9 146.5t16 124q14 35 42 56.5t63 34.5t72.5 20.5t74.5 13.5q20 6 27 -4q16 6 20 -3.5t2 -27.5q0 -39 10.5 -100.5t27 -129t32.5 -132t29 -107.5q18 -59 42.5 -127t53.5 -139q31 66 58.5 135.5t54.5 136.5 q14 45 33.5 104.5t42 119t48 113.5t50.5 91q25 23 57 32q26 7 55 7h13q37 25 83 36t93 15q6 1 10 1q8 0 12 -4q6 -7 6 -19t-2.5 -24.5t-5.5 -18.5q-14 -70 -20 -146.5t-8.5 -155.5t-2.5 -158t-2 -153q2 -154 12.5 -314.5t18.5 -315.5q8 -29 7.5 -50.5t-11.5 -44.5 q-8 -23 -43 -41t-59 -22q-23 10 -46.5 66.5t-43 126t-33 134t-13.5 91.5q2 49 2 99q0 37 -1 75q-3 88 -7 174q-4 29 -6 62.5t-6 68.5l-8 -14q-10 -23 -25.5 -72t-34 -112.5t-39 -133t-41 -131t-40 -107.5t-33.5 -63q-12 -16 -30.5 -17t-40 10t-43 29.5t-40.5 41.5 q-66 80 -101.5 142t-60 123.5t-45 128t-55.5 152.5q-4 -29 -6 -54t-6 -52q-16 -156 -24.5 -327t-14.5 -330q6 -29 3 -51.5t-13 -47.5q-4 -10 -17.5 -20t-29 -18.5t-32 -14.5t-28.5 -8q-25 12 -44 73.5t-32.5 136t-20.5 144.5q-5 54 -5 82v14z" />
<glyph unicode="N" horiz-adv-x="1290" d="M102 369q4 86 6.5 174t2.5 174q-3 63 -5 140q-1 38 -1 77q-1 38 1 76q2 76 7.5 150.5t17.5 133.5q10 29 32.5 59.5t52.5 56.5t63.5 41t65.5 15t58.5 -19.5t42.5 -66.5q51 -147 125 -302.5t142 -301.5q41 -80 88 -164t96 -170v130.5t-2 129.5q-4 66 -6 142t-3 154v38 q0 57 2 113q3 74 11 135q25 82 96.5 128t151.5 71q8 6 13 6q6 -1 10 -7q6 -12 6 -31t-2.5 -38.5t-2.5 -21.5q-25 -160 -35 -335t-20 -341q-1 -42 -1 -89v-48q1 -74 4 -150t8.5 -150.5t13.5 -140.5q10 -23 10 -40t-6 -36q-18 -57 -55 -62q-6 -1 -12 -1q-32 0 -71 24 q-46 28 -95.5 78t-92.5 102t-72.5 95t-37.5 57q-35 76 -77 153t-83 150q-45 74 -97.5 162t-97.5 176q-6 -70 -11 -137t-11 -133q-4 -94 -4 -197q0 -52 1 -106q3 -162 13 -307q8 -27 7 -46.5t-9 -41.5q-6 -23 -39 -41.5t-55 -24.5q-27 8 -52.5 62.5t-46 122t-33 131 t-12.5 92.5z" />
<glyph unicode="O" horiz-adv-x="1380" d="M72 734v29q0 86 10 165q12 92 37 166q25 72 60.5 125t94.5 98q48 39 100 61q44 18 99 18q10 0 21 -1q47 -4 88.5 -20.5t76.5 -57.5q16 -12 11.5 -18.5t-22 -9.5t-39 -5t-38.5 -6q-25 -8 -43 -23q-49 -35 -85.5 -93t-61.5 -126.5t-38 -140.5t-17 -133q-1 -28 -1 -55 q0 -83 9 -165q12 -108 65 -218q73 -145 208 -145q12 0 24 1q94 8 168.5 52t130 113t91.5 157t50 183q9 63 9 127q0 32 -2 64q-7 96 -38 185q-14 35 -28.5 66.5t-36.5 62.5q-12 16 -32.5 37.5t-44.5 43t-46.5 39t-38.5 25.5q-37 25 -63.5 41.5t-51 29.5t-52.5 25.5t-66 28.5 q6 16 42 22q31 6 67 6h12q44 -1 87 -6t62 -9q72 -23 125 -57t110 -89q63 -63 109.5 -145t75 -170t38.5 -176q5 -48 4 -91q0 -37 -3 -71q-23 -182 -104 -344t-226 -262q-55 -37 -125 -66t-146 -40q-35 -5 -70 -5q-42 0 -85 7q-80 13 -154 59q-88 53 -149.5 133t-100 174 t-57 198t-20.5 206z" />
<glyph unicode="P" horiz-adv-x="1308" d="M36 1364q16 14 66 30.5t126.5 34t166.5 27.5q91 10 187 11h14q88 0 170 -11q129 -18 222 -69.5t149.5 -128t78.5 -174.5q13 -59 13 -123q0 -42 -6 -87q-8 -68 -38 -122t-74 -97t-98.5 -74.5t-113.5 -52.5q-37 -12 -81 -25.5t-90 -21.5t-92 -10h-15q-38 0 -74 8 q-25 6 -47 19q-3 -83 -3 -176v-47q1 -119 9 -216q14 -29 0 -49q-4 -4 -16.5 -9t-28 -9t-29.5 -7t-20 -5q-31 0 -57.5 34.5t-45 81.5t-28 95.5t-9.5 72.5q6 76 8.5 155t4.5 156q-2 63 -5.5 136t-4.5 148q0 38 -0.5 74.5t0.5 72.5q1 72 8 131q8 31 23 56t38 48 q-147 33 -291 102q-22 4 -22 12q-1 4 5 9zM508 637q66 18 148.5 46t157.5 65.5t129 86t63 107.5q2 22 4 50q1 9 1 19q0 19 -3 37q-4 28 -15.5 56.5t-31.5 48.5q-35 33 -91 47t-118 18q-37 3 -73 3q-23 0 -47 -1q-58 -3 -95 -3q-4 -147 -11.5 -290t-17.5 -290z" />
<glyph unicode="Q" horiz-adv-x="1460" d="M108 690q-2 29 -2 58q0 81 12 160q15 108 48 194q27 66 59.5 113t85.5 90q49 39 101.5 61.5t124.5 22.5q49 -2 95 -15.5t87 -54.5q18 -12 11 -19.5t-26.5 -11.5t-44 -8t-38.5 -10q-10 -4 -19.5 -10.5t-19.5 -12.5q-80 -53 -132.5 -164.5t-73.5 -244.5q-15 -87 -15 -175 q0 -47 5 -95q11 -136 60 -236q33 -72 81 -104q43 -29 105 -29h15q72 6 132 31.5t113 66.5q-25 27 -50 56.5t-48.5 60t-43 60.5t-32.5 56q-6 31 6.5 62t32 58.5t43 52t41.5 42.5q16 23 25.5 9.5t15.5 -31.5q20 -57 62.5 -127t83.5 -131q63 119 78 273q4 37 4 72 q0 118 -39 234q-12 35 -26.5 65t-35.5 60q-12 14 -32.5 37t-44 45.5t-46 41t-37.5 26.5q-35 27 -58 44t-47 31.5t-50.5 28t-63.5 31.5q6 16 41 20q21 3 45 3q16 0 33 -1q43 -3 84 -9.5t59 -12.5q70 -25 122.5 -59.5t105.5 -87.5q102 -104 155.5 -241.5t63.5 -268.5 q2 -28 2 -56q0 -43 -5 -87q-9 -72 -29.5 -142t-51.5 -133.5t-68 -114.5q41 -43 85 -84t79 -71q18 -8 27.5 -19.5t19.5 -28.5q4 -8 4 -23t-1 -31.5t-4 -33t-5 -24.5q-9 -9 -27 -9q-13 0 -29 4q-42 9 -89 30.5t-92 48t-66 49.5q-10 10 -19.5 22t-19.5 25q-141 -113 -336 -142 q-29 -4 -57 -4q-44 0 -87 9q-69 16 -131.5 54t-114.5 94t-91 130q-49 94 -74.5 206t-30.5 224z" />
<glyph unicode="R" horiz-adv-x="1302" d="M51 1362q14 18 37 30.5t45.5 20.5t39.5 11t24 6q68 18 127 28t119.5 14.5t123 4.5t135.5 -2q125 -4 229.5 -58.5t175.5 -138.5t103 -186q19 -63 19 -124q1 -38 -7 -75q-20 -98 -95.5 -181t-221.5 -130q31 -53 61.5 -101.5t49.5 -79.5q23 -35 52.5 -74.5t61 -79.5 t63.5 -80t60 -73q27 -16 29 -47q0 -8 -5 -20.5t-14.5 -23.5t-17.5 -21.5t-14 -16.5q-7 -3 -17 -3q-14 0 -35 6q-34 12 -71 32t-68.5 46t-46.5 46q-27 45 -60.5 92t-66.5 88q-20 25 -46.5 57.5t-53.5 66.5t-51.5 70t-40.5 66q-31 -6 -72 -6h-22q-54 2 -95 17q-5 -74 -5 -158 q0 -28 1 -58q2 -118 15 -210q10 -18 9 -33.5t-5 -32.5q-4 -6 -15.5 -15t-25 -17.5t-26.5 -15.5t-21 -11q-29 4 -56.5 45t-50 94t-37 106.5t-14.5 81.5q6 68 8 138.5t6 138.5v115.5t2 127t6.5 125t14.5 109.5q23 59 79 95t117 61h-135t-147 18q-25 6 -49.5 21.5t-46 32 t-37 34t-21.5 27.5zM504 709q49 14 125 32.5t151.5 45t136 65.5t82.5 92q13 30 13 62q0 18 -4 36q-11 50 -45.5 92t-89 68.5t-117.5 26.5q-47 0 -95.5 -1t-95.5 -1q4 -20 1 -43t-3 -27q-18 -111 -31.5 -223t-27.5 -225z" />
<glyph unicode="S" horiz-adv-x="1175" d="M51 444q2 31 17.5 61t38 54.5t49 44t55.5 29.5q2 -2 1 -27.5t-3 -58.5t-3 -64.5t1 -44.5q6 -35 18.5 -59.5t34.5 -52.5q37 -45 87 -73t105.5 -45.5t112 -24.5t105.5 -11q19 -2 38 -2q24 0 49 3q44 5 78.5 22.5t50.5 51.5q10 20 10 46q0 19 -5 43q-16 68 -69.5 139.5 t-119 139t-135 125t-121.5 98.5q-57 45 -104 89t-88 103q-50 74 -64 144q-6 28 -6 55q0 39 12 73q20 60 69.5 104t125.5 67q45 13 97 13q20 0 42 -2q76 -7 150 -34t138.5 -73t105.5 -105q16 -27 27 -54.5t7 -56.5q0 -16 -8 -16t-20 7t-24.5 15.5t-18.5 12.5q-41 25 -87 39 t-93.5 21t-92.5 7t-84 -8q-66 -12 -81 -36.5t0.5 -54.5t52.5 -63.5t76 -64.5q119 -98 228 -204.5t193 -237.5q59 -94 95 -194q22 -62 22 -126q0 -39 -8 -78q-18 -78 -69.5 -128t-124 -76.5t-158.5 -30.5q-17 -1 -35 -1q-69 0 -140 13q-89 16 -175.5 52t-155.5 87 q-41 29 -85 73t-69 85q-29 49 -38 93q-7 36 -7 78v19z" />
<glyph unicode="T" horiz-adv-x="1331" d="M41 1458q6 6 20.5 6t31 -2t22.5 -4q119 -23 251 -24.5t248 -3.5q106 4 228.5 18t228.5 27q18 10 37.5 10t44.5 -8q12 -4 27.5 -15.5t32 -26t29.5 -28.5t22 -25q2 -20 -33 -45.5t-83 -50t-95 -41t-72 -18.5q-82 0 -162 -6q0 -20 -4 -37q-12 -61 -17 -141t-8.5 -165 t-4.5 -168t-3 -153v-61q0 -100 4 -210q6 -144 15 -274q16 -27 -2 -41q-10 -4 -22 -4q-13 1 -30 5q-32 8 -53 8q-41 12 -66.5 40.5t-42 62.5t-23.5 72t-7 68q5 67 5 139v24q-1 85 -3 165q-4 61 -10 137t-9 155t-3 151.5t6 127.5q10 29 25.5 46.5t37.5 29.5q-74 -10 -152 -14 q-22 -1 -43 -1q-53 0 -100 7q-41 12 -77.5 38.5t-69.5 61.5t-60.5 73t-50.5 73q-12 12 -12 18q0 2 2 4z" />
<glyph unicode="U" horiz-adv-x="1234" d="M86 899q4 86 11 173t28 167q72 199 297 215q20 8 24.5 -6t-1 -35.5t-12.5 -40t-7 -20.5q-14 -45 -33.5 -129t-37 -186.5t-27.5 -214.5q-6 -71 -6 -139q0 -39 2 -77q6 -104 30.5 -189t75.5 -132q59 -53 136 -77t147 -26q9 0 17 -1q48 1 70 11q26 12 36 40q6 21 6 52 q0 11 -1 23q-2 28 -2 65q0 25 1 54q8 78 10 162t4 164q-4 61 -7 131.5t-4 142.5v48q0 46 1 92q2 68 10 124q12 39 38 69t58.5 51.5t71.5 35.5t78 24q8 5 13 5q6 0 9 -6q6 -11 6 -28.5t-3 -36t-3 -20.5q-23 -147 -31 -311t-18 -315q-5 -126 -5 -256v-43v-61q0 -121 -3 -240 q6 -29 2 -50.5t-14 -44.5t-46 -40t-61 -21q-14 6 -22 31q-82 -47 -194 -57q-24 -2 -47 -3q-87 0 -169 31q-53 20 -114.5 60t-104.5 81q-72 70 -115 167.5t-64.5 201.5t-26.5 206q-4 72 -4 133q0 24 1 46z" />
<glyph unicode="V" horiz-adv-x="1198" d="M41 1272q2 39 20.5 67.5t47 50t62.5 38t65 28.5q25 12 28.5 3t3.5 -32q0 -49 16.5 -126.5t38 -162.5t45 -166t38.5 -134q35 -111 76.5 -231t88.5 -236q6 39 13 59q33 88 60.5 181.5t53.5 185.5q14 63 33 143t39.5 163t43 159.5t46.5 132.5q25 37 57.5 52t68.5 18 q27 2 56 2h19h16l62 3q9 3 14 3t7 -2q4 -4 4 -12q0 -11 -5 -25q-4 -12 -8 -17q-31 -57 -61.5 -138t-59.5 -170t-55.5 -175t-48.5 -152q-47 -154 -89 -313.5t-89 -316.5q2 -37 -27 -62q-23 -18 -36 -39.5t-27.5 -40t-31 -32t-40.5 -13.5h-3q-17 1 -39 21q-24 22 -48.5 58 t-49 80t-45 87t-36 80t-21.5 55q-29 96 -60.5 191.5t-64.5 189.5q-20 53 -48 125t-54.5 147.5t-47 147.5t-28.5 125z" />
<glyph unicode="W" horiz-adv-x="1669" d="M82 1264q6 39 27.5 69.5t52.5 52t67.5 35t73.5 19.5q29 6 30 -5.5t-3 -33.5q-3 -28 -3 -63t3 -78q6 -86 17 -178.5t24.5 -181.5t23.5 -150q10 -59 21.5 -125t25.5 -133q16 57 29.5 115.5t26.5 113.5q10 66 22 140.5t26.5 149t32 146.5t39.5 131q43 80 126 118t174 48 q20 8 23 -4t-2 -30.5t-12 -37t-9 -20.5q-12 -31 -14 -83v-25q0 -42 4 -92q5 -64 16.5 -135t24 -137.5t23.5 -123.5t19 -92q10 -51 26.5 -106.5t35.5 -112.5q23 66 40 135t33 139q12 63 25.5 133t30 139.5t35 136t40.5 126.5q47 86 134.5 137t181.5 80q9 7 15 7t7 -8 q1 -4 1 -9q0 -15 -5 -33q-6 -26 -15 -51t-11 -31q-61 -158 -111.5 -323t-103.5 -326q-35 -125 -64 -263.5t-57 -267.5q2 -23 -10.5 -56.5t-32 -65t-44 -55.5t-44.5 -28q-5 -1 -9 -1l-69 40q-39 45 -72 108.5t-56.5 125t-29.5 86.5q-14 66 -32.5 132t-36.5 132 q-14 41 -28.5 83t-27.5 87q-8 -23 -14 -53q-39 -147 -68.5 -298t-68.5 -302q0 -49 -31 -88q-16 -20 -56 -30.5t-67 -10.5q-14 10 -42 53t-55.5 95t-50 101.5t-26.5 71.5q-12 90 -30.5 181t-34.5 184q-16 61 -35 139t-35.5 160t-27.5 159.5t-13 137.5z" />
<glyph unicode="X" horiz-adv-x="1310" d="M37 0q2 35 15.5 78t32.5 92t40.5 92t41 78t30.5 49q117 150 229 313q-78 102 -152.5 214t-134.5 206q-30 67 -30 132q1 25 5 50q16 90 68 166q5 14 12 14h4q10 -4 20.5 -20t19 -32.5t10.5 -20.5q59 -115 147 -241t178 -244q78 123 164 246.5t168 216.5q72 63 157 68 q15 1 30 1q72 0 149 -20q22 0 22 -15q1 -10 -7 -20q-8 -12 -19.5 -24.5t-15.5 -14.5q-61 -66 -121 -150t-118 -174t-115.5 -179t-114.5 -167q96 -119 194 -234.5t193 -238.5q23 -16 34 -36.5t21 -47.5q2 -8 2 -17q0 -22 -10 -46q-14 -36 -31 -56q-8 -2 -17 -2q-36 0 -92 38 q-70 48 -149.5 122t-158.5 160t-134 151q-82 -117 -162 -230.5t-178 -223.5q-10 -29 -38.5 -46.5t-51.5 -33.5q-17 -13 -48 -13h-12q-40 3 -65 11q-12 12 -12 41v8z" />
<glyph unicode="Y" d="M76 1281q8 34 25.5 64.5t40.5 57.5t46 47q7 10 14 10h2q9 -2 15 -11t10 -22.5t7 -19.5q33 -92 93 -187.5t117 -179.5q41 -55 98.5 -119.5t112.5 -123.5q12 70 27.5 147.5t36 154.5t43 147.5t51.5 125.5q49 68 133 83q22 4 44 4q63 0 130 -32q16 -6 20 -13q1 -3 1 -7 t-2 -8q-4 -8 -11.5 -16.5t-13.5 -14.5q-39 -51 -74.5 -133t-67.5 -172t-57.5 -179t-44.5 -157q-18 -74 -34.5 -154.5t-30.5 -164.5t-26.5 -168t-20.5 -160q1 -10 1 -19q0 -31 -16 -55q-6 -8 -18 -14t-27.5 -9t-32 -5.5t-26.5 -2.5q-31 12 -47 65.5t-24 117.5q-8 58 -8 113 v13q1 60 5 85q14 59 27.5 119.5t26.5 121.5q-51 27 -100.5 61t-67.5 56q-33 43 -70 88t-72 88q-61 66 -128.5 148t-104.5 159q-6 21 -6 40q0 16 4 31z" />
<glyph unicode="Z" horiz-adv-x="1267" d="M59 222q9 7 28 8t38.5 0t24.5 -1q16 -2 33.5 -3t33.5 -1q6 41 16.5 86t21.5 85t23.5 71t20.5 47q51 80 97 163t93 167q37 76 88.5 174t104.5 186q-37 -6 -83 -14t-94 -12t-94 -6q-12 -1 -24 -1q-33 0 -61 5q-35 12 -64 40.5t-53.5 63.5t-43 72.5t-32.5 68.5 q-10 14 -7 21.5t11 8.5t19.5 -1t21.5 -4q92 -20 207 -21.5t207 -1.5q41 2 90 7.5t99 12.5t98.5 16t89.5 18q11 10 28 10q13 0 29 -6q8 -4 21.5 -15.5t25.5 -25t22.5 -27.5l16.5 -22q1 -4 1 -8q0 -25 -32 -54q4 -2 5 -3t6 -3q29 -16 20.5 -24.5t-25.5 -22.5 q-41 -37 -91 -101.5t-101 -138t-96 -146.5t-78 -122q-78 -125 -152.5 -269.5t-140.5 -281.5h111.5t109.5 -2q43 2 92.5 7t100.5 13.5t100 17.5t90 17q16 10 31.5 10.5t36.5 -4.5q10 -4 25.5 -14t29.5 -24.5t26.5 -27.5t18.5 -22q2 -20 -25.5 -48.5t-68.5 -55.5t-83 -47.5 t-67 -22.5q-53 -2 -109 -7t-110 -9q-43 -8 -92 -15.5t-101 -12.5t-104 -7q-17 -1 -33 -1q-32 0 -61 3q-41 10 -80 36t-74.5 58.5t-67.5 69.5t-56 70q-12 11 -12 17q0 4 3 6z" />
<glyph unicode="^" horiz-adv-x="1705" d="M309 1123.5q-10 23.5 6 52.5q2 2 35 34.5t73 74.5t76 79t46 47q12 12 23.5 22.5t27.5 20.5q29 16 61.5 14t59.5 -28q68 -76 121 -145.5t112 -151.5q25 -14 29 -45q0 -14 -18.5 -43t-28.5 -41q-25 -25 -60.5 -9.5t-73.5 46t-77 65.5t-72 53q-27 -12 -53.5 -34.5t-54 -46 t-56 -44t-57.5 -26.5q-16 12 -42 27.5t-46.5 35t-30.5 43z" />
<glyph unicode="a" horiz-adv-x="1318" d="M46 429q10 7 30 10t40.5 2t24.5 -1q14 -2 26.5 -2h27.5q25 66 63.5 126.5t63.5 133.5q10 29 25 80t34.5 113.5t40 129t40 126t36 106.5t26.5 68q31 57 64 84t68.5 42t76.5 26t88 36q5 6 10 6q7 0 15 -8q14 -14 27.5 -37.5t23.5 -49t14 -38.5q55 -182 91 -364t63 -367 q8 -41 17.5 -88t19.5 -98l24 -6q14 -6 31 -19.5t32 -30t26.5 -32t15.5 -23.5q1 -2 1 -4q0 -6 -8 -14q-12 -10 -27 -19.5t-31.5 -17.5t-22.5 -10q16 -59 31.5 -114.5t33.5 -102.5q20 -23 20 -52q0 -5 -1 -10q0 -6 -9.5 -16t-20.5 -21.5t-22.5 -20.5t-17.5 -13q-6 -2 -13 -2 q-24 -1 -50 23q-34 30 -66.5 75t-59 95t-40.5 87h-4q-35 3 -71 3q-17 0 -35 -1q-54 -2 -105 -6q-27 -4 -78 -12t-106.5 -15.5t-105.5 -9.5h-23q-33 0 -52 4q-10 -16 -17 -30.5t-18 -28.5q-8 -33 -24.5 -54.5t-40.5 -41.5q-12 -10 -31.5 -15.5t-41 -7.5t-43 -1t-38.5 5 q-6 8 -4 40t11.5 75t22.5 92t28 96q-27 25 -49.5 50.5t-43.5 48.5q-16 10 -16 16q0 3 3 5zM471 436h74t73 -2q63 2 130 7t135 10q-8 35 -15.5 70.5t-15.5 70.5q-29 113 -62.5 238.5t-60.5 244.5q-39 -111 -82 -221.5t-90 -214.5q-16 -35 -28.5 -69.5t-28.5 -69.5 q-17 -33 -29 -64z" />
<glyph unicode="b" horiz-adv-x="1273" d="M84 1434q27 10 75 17t85 15q80 14 190 24q62 6 125 7q49 0 99 -4q114 -8 220.5 -39t184.5 -100q57 -53 88 -123q23 -52 23 -102q0 -18 -3 -35q-6 -41 -28.5 -84t-54 -83t-67.5 -71t-69 -45q27 -8 58.5 -24.5t56.5 -34.5q49 -39 77 -88q26 -48 38 -100q10 -44 11 -89 q0 -8 -1 -16q-2 -53 -12 -101q-16 -84 -58.5 -146t-103 -108.5t-135 -76t-156.5 -47.5q-20 -4 -39.5 -7.5t-40.5 -7.5q-71 -18 -149 -18q-68 0 -142 14q-29 4 -64.5 16.5t-71.5 31t-67.5 41t-52.5 46.5q0 6 48.5 14.5t117.5 18.5q-14 33 -27.5 73t-24.5 78.5t-16 70.5t-5 48 q8 59 11 123t5 123q-2 49 -4 107q-1 38 -1 77v39q1 58 5 113t14 100q14 37 44 65t67 48t77.5 35.5t77.5 25.5q18 12 23.5 -1t5.5 -32.5t-4 -39t-4 -21.5q-25 -133 -43 -280q4 2 10 2q106 29 193.5 67.5t165.5 108.5q39 37 58 69.5t13 60.5t-39.5 49.5t-99.5 33.5 q-53 12 -125 14q-21 1 -41 1q-52 0 -104 -4q-74 -5 -140.5 -17.5t-109.5 -26.5q-33 6 -62.5 30.5t-52 55.5t-36 60.5t-13.5 48.5zM429 409q1 -122 3 -227q6 -16 6 -30q76 10 134.5 17t72.5 11q88 29 155.5 74t117.5 117q23 33 34 80q8 32 8 63q0 14 -2 27q-2 29 -8 41 t-32 22q-39 12 -83 16q-22 2 -44 2q-23 0 -45 -2q-44 -4 -87 -10t-79 -10h-26.5t-29.5 4q-49 14 -84 47l-2 -18q-9 -93 -9 -202v-22z" />
<glyph unicode="c" horiz-adv-x="1286" d="M79 700v12q0 94 15 181q14 84 45 171t78 164t110.5 138t143.5 94q45 18 103 26q52 8 109 8h13q64 -1 125.5 -12.5t112.5 -35.5q49 -25 99 -56.5t89 -74.5q23 -27 20 -52.5t-19.5 -45t-40 -31.5t-42.5 -12q-43 14 -97 34.5t-109 34.5q-56 13 -107 19q-15 2 -29 2 q-33 0 -59 -9q-57 -23 -108.5 -60.5t-86.5 -84.5q-29 -41 -52 -94t-40.5 -110.5t-28 -117t-14.5 -114.5q-2 -20 -2 -40q0 -32 4 -64q6 -54 22.5 -108t43 -104.5t67.5 -91.5q44 -46 104 -62q56 -16 114 -15h8q62 1 121 16.5t102 34.5q12 8 40 30.5t56.5 46t50.5 41.5l21 19 q16 8 36.5 7t43 -5t44 -7t42.5 1q11 -4 11 -18q0 -9 -4 -21q-11 -33 -33.5 -70t-45 -69.5t-29.5 -38.5q-51 -53 -104 -89t-123 -65q-106 -41 -221 -43h-7q-112 0 -229 59q-72 37 -128 90.5t-99 118t-71.5 134t-43.5 141.5q-20 98 -21 198z" />
<glyph unicode="d" horiz-adv-x="1363" d="M47 160q12 3 29.5 3t39.5 -3q44 -6 102 -10q47 -4 104 -4h26q72 1 154 24q45 12 76.5 26.5t60.5 30t56.5 34t64.5 40.5q80 51 145.5 146.5t101 207t37.5 225.5q0 6 1 11q-1 107 -47 193q-48 92 -152 146q-88 46 -226 46q-25 0 -53 -2q1 -9 1 -23q0 -27 -3 -73 q-4 -68 -13 -160t-18.5 -196.5t-16.5 -201t-10 -172.5q-1 -26 -1 -47q0 -42 4 -67q6 -39 -10.5 -59.5t-39 -29.5t-43 -10.5t-22.5 -1.5q-20 6 -35.5 45t-28 94.5t-21.5 120t-14 122t-7 102.5t0 61q5 74 5 133q0 36 -2 66q-2 35 -2 65q0 36 3 64q6 51 34.5 85t108.5 69 q-74 -12 -136 -27.5t-103 -26.5q-31 49 -49.5 107.5t-28.5 87.5q45 25 128 46t187 29q52 4 106 4t112 -4q114 -8 220.5 -40.5t195.5 -97t142 -167.5q46 -91 60 -209q6 -48 6 -98q0 -72 -12 -148q-20 -128 -72.5 -254t-140.5 -229.5t-209 -175t-277 -90.5q-49 -6 -101 -6 q-18 0 -38 1q-72 3 -139.5 22.5t-129 61.5t-110.5 114z" />
<glyph unicode="e" horiz-adv-x="1261" d="M72 1468q3 1 7 0q10 0 25 -4q35 -10 82 -15t96.5 -7t97.5 -3t85 -3q111 0 236.5 10t238.5 16q26 5 49 5q39 0 73 -14q54 -23 107 -89q-2 -16 -50 -40t-111.5 -45.5t-123 -37.5t-83.5 -16h-82h-69t-68.5 -3t-79.5 -10q-10 -80 -19.5 -161.5t-17.5 -163.5q25 -2 50.5 -4 t49.5 -6q22 -1 47 -1h26q40 1 81 4t80 5t73 4q14 8 27.5 6t30.5 -10q8 -4 20.5 -17.5t23.5 -29t20.5 -30.5t13.5 -24q0 -16 -23.5 -38.5t-56.5 -42t-67 -34t-54 -14.5q-66 3 -108 3h-19q-45 -1 -79 -4q-35 -3 -67 -6q-20 -2 -48 -2q-19 0 -42 1q-3 -69 -3 -143v-38 q1 -95 10 -167q14 -27 0 -49q-8 -8 -39 -19q59 -4 116.5 -5t104.5 -3q45 0 99 2t110.5 7.5t111 11.5t97.5 14q20 16 49 2q6 -4 17 -15.5t22.5 -25.5t20.5 -28.5t16 -20.5q2 -8 2 -16q0 -18 -14 -38q-20 -28 -52.5 -49.5t-69 -36t-61.5 -16.5q-25 1 -51 1q-38 0 -77 -2 q-65 -3 -128 -7q-43 -4 -98.5 -9t-113.5 -8q-44 -2 -86 -2h-27q-56 1 -99 9q-37 12 -66.5 39.5t-54 62.5t-43 72t-33.5 70q-10 14 -8 21t9.5 8t18.5 -2t21 -5q76 -16 164 -22q-23 20 -40 54t-30.5 70.5t-20.5 71.5t-7 56q0 12 3 56t6 92t5 88t0 46q-23 35 -42 69t-33 60 q-12 18 -6 24.5t19 6.5t30.5 -5t29.5 -7q0 78 2.5 153.5t12.5 128.5q-25 14 -49.5 44t-45 64t-37 67.5t-28.5 58.5q-10 17 -10 24q0 5 4 6z" />
<glyph unicode="f" horiz-adv-x="1267" d="M78 1464h7q10 0 26 -4q35 -10 82 -14t96 -7t97 -4t85 -3q111 0 237 11t240 17q25 5 48 5q40 0 75 -15q55 -25 111 -90q-2 -16 -50.5 -40t-111 -45.5t-121.5 -37.5t-84 -16q-41 3 -82 3q-20 0 -41 -1q-61 -2 -121 -6q2 -12 1 -58.5t-3 -102t-3 -106.5t-1 -69 q18 -2 37 -4.5t37 -4.5q26 -2 55 -2q46 0 100 4q87 7 154 11q14 8 28.5 6t31.5 -10q8 -4 19 -17.5t22.5 -29t21.5 -31t14 -23.5q2 -16 -21.5 -38.5t-55 -42t-65.5 -35t-54 -15.5q-82 4 -120 4t-63.5 -2t-55 -5t-93.5 -5l-12 -575q6 -23 2 -39.5t-15 -32.5q-6 -8 -20 -12.5 t-30.5 -7.5t-33 -3t-28.5 2q-23 12 -41.5 57.5t-32.5 98.5t-21.5 103.5t-7.5 72.5q10 68 12.5 141.5t2.5 145.5q-4 35 -6 75t-7 81q-29 39 -54 78.5t-42 72.5q-12 18 -6 24.5t21.5 4.5t36 -7.5t36.5 -7.5q-2 61 -3 103v7q0 38 12 69q12 32 40.5 56.5t83.5 51.5 q-51 -6 -100 -8h-24q-34 0 -60 4q-29 12 -54.5 42t-48 64.5t-42 70.5t-31.5 63q-10 15 -10 22q0 5 4 6z" />
<glyph unicode="g" horiz-adv-x="1325" d="M74 696q0 92 12 176q14 98 54 198.5t103.5 184.5t147.5 145.5t187 84.5q47 10 91 10q10 0 21 -1q53 -3 117 -24q226 -100 326 -319q20 -29 -3.5 -22.5t-61.5 26t-77 42t-49 26.5q-81 35 -155 35h-10q-79 -3 -146.5 -33.5t-121.5 -81.5t-93 -111q-39 -59 -68 -136 t-41 -161q-8 -53 -8 -107q0 -32 3 -64q7 -87 40 -167q25 -61 64.5 -109t89 -78t104.5 -37q13 -2 27 -2q42 0 86 17q53 20 90 52t64.5 71t46 85t34.5 98q0 4 4 12h-8q-51 -8 -118 -12q-13 -1 -27 -1q-50 0 -92 13q-27 14 -52.5 45t-48 66.5t-42 72.5t-32.5 64q-10 14 -7 20 t11.5 7t20.5 -1t21 -4q72 -23 150.5 -32t150.5 -19q25 -2 57.5 -2t67 2t68.5 4t61 4q10 10 21 7t26 -11q8 -4 18 -17.5t19.5 -28.5t17.5 -30.5t12 -23.5q1 -2 1 -4q0 -10 -13 -27q-16 -20 -42 -41.5t-54.5 -38t-46.5 -18.5q10 -37 10 -47q1 -17 1 -34q0 -26 -2 -52 q-3 -43 -14 -82q-41 -104 -99 -181t-163 -127q-67 -29 -142 -29h-3q-76 1 -151.5 25.5t-145.5 71.5t-125 113q-68 78 -107.5 168t-58 184t-18.5 186z" />
<glyph unicode="h" horiz-adv-x="1337" d="M60 878q8 6 26 6.5t36.5 -3.5t22.5 -4q14 -2 27.5 -4.5t28.5 -4.5q2 104 7 211t21 189q14 39 41 66.5t62 47t74.5 32t80.5 20.5q18 8 23.5 -2.5t5.5 -28t-4 -34.5t-4 -19q-25 -119 -40 -251t-28 -261q70 -6 120 -11.5t98 -6.5h32q33 0 67 1q52 2 124 8q0 63 -1 141v38 q0 58 2 116q3 78 10 150t19 125q14 35 44 55.5t66 28.5q29 6 60 6h16q40 -2 79 -10q31 -4 29.5 -14.5t-11.5 -28.5q-18 -43 -31.5 -116t-24 -154t-17.5 -162.5t-13 -145.5q27 -4 51.5 -18.5t45 -31.5t32.5 -30.5t12 -15.5q0 -10 -12 -24.5t-33.5 -29t-49.5 -29.5t-56 -28 q-1 -43 -1 -87q0 -88 3 -178q4 -136 16 -253q9 -24 9 -47q0 -21 -7 -41q-2 -10 -13 -20.5t-24.5 -18.5t-28 -15t-24.5 -11q-33 6 -61.5 62t-50 127t-34 138.5t-12.5 95.5q6 98 7 203q-41 0 -80 -1t-80 -1q-63 -6 -142 -10q-40 -2 -78.5 -2t-76.5 2q-3 -81 -3 -165 q0 -42 1 -86q2 -130 12 -243q9 -25 9 -49q0 -21 -7 -41q-6 -20 -39 -41.5t-53 -29.5q-29 8 -55.5 63t-48 124t-35 135.5t-13.5 94.5q6 82 8.5 165t6.5 165q-41 41 -75 85t-60 85q-11 11 -11 17q0 3 3 5z" />
<glyph unicode="i" horiz-adv-x="559" d="M133 1220.5q0 77.5 8 133.5q12 39 39 58.5t60.5 27.5t71.5 11t75 9q10 4 17 4q12 0 13 -12v-7q0 -14 -3 -28q-12 -53 -19.5 -136t-10.5 -175t-5 -180t-4 -150q-2 -75 -2 -150q0 -94 3 -188q4 -121 4 -242q0 -48 -1 -96q5 -18 5 -33q0 -26 -13 -47q-12 -18 -49 -23 q-21 -3 -37 -3q-13 0 -23 2q-29 14 -51.5 64.5t-36.5 109.5t-21.5 115.5t-7.5 81.5q5 94 7 192q1 42 1 84q0 56 -1 111q-4 61 -8.5 142t-7.5 164t-3 160.5z" />
<glyph unicode="j" horiz-adv-x="1060" d="M66 389q-1 13 -1 25.5t1 25.5q2 39 26 68q20 23 48 38q22 12 49 12q7 0 14 -1q2 0 3 -12.5t1 -27.5v-29.5t2 -20.5q4 -23 9 -40t15 -38q23 -41 47.5 -70.5t61.5 -58.5q35 -27 59.5 -37t63.5 -20q2 0 5 -1t5 -1q31 -8 55 -6q25 2 44.5 9t41.5 17q10 4 19.5 18.5t13.5 24.5 q14 29 25 66q4 16 6 31.5t6 31.5q14 96 18.5 193.5t6.5 197.5q0 86 -2 172q-1 29 -1 57q0 58 3 115q12 113 61.5 197t153.5 125q8 7 14 7t10 -7q8 -14 10 -36q2 -17 2 -33v-13q-1 -22 -1 -25q-2 -88 -2 -175q0 -65 1 -129q1 -45 1 -90q0 -106 -5 -214q-6 -109 -16 -215 t-37 -209q-10 -47 -22.5 -86t-30.5 -82q-18 -37 -41 -64.5t-59 -49.5q-37 -23 -71 -34t-79 -18q-33 -3 -62 -3h-14q-35 1 -75 12q-78 23 -136.5 59.5t-115.5 97.5q-23 25 -40.5 48.5t-33.5 52.5q-27 37 -40 70.5t-17 74.5z" />
<glyph unicode="k" horiz-adv-x="1245" d="M92 332q6 90 7 182t1 182q-2 70 -4 154q-1 56 -1 112v57q1 85 7.5 165t18.5 145q31 79 107 109q55 22 117 21q24 0 50 -3q18 0 23.5 -7t3.5 -18.5t-7 -22.5t-7 -17q-14 -41 -25.5 -94.5t-20 -113t-14.5 -123t-10 -124.5q39 33 75 70.5t66 74.5q20 27 51 75t63 97.5 t59.5 91t43.5 58.5q25 20 62 30.5t78 16.5t83 8t76 4q8 3 14 3q9 0 11 -6q4 -11 -1 -29.5t-12.5 -36t-9.5 -19.5q-72 -127 -148.5 -225t-172.5 -205q27 -70 50.5 -127t47 -112.5t50 -114t63.5 -127.5q23 -41 55.5 -90t67 -99.5t71.5 -97.5t70 -82q16 -8 23.5 -18t11.5 -27 q1 -2 1 -6q0 -7 -2 -15q-3 -14 -7 -29t-10.5 -29.5t-8.5 -20.5q-10 -9 -26 -9q-14 0 -33 7q-41 14 -85 41.5t-83 61.5t-58 59q-35 59 -72.5 117.5t-74.5 115.5q-20 27 -58 84t-75 118.5t-65.5 118t-30.5 82.5q-12 -12 -36 -37.5t-50.5 -52t-51 -47t-41.5 -24.5 q-1 -45 -1 -90q0 -79 2 -160q4 -127 8 -248q6 -16 6 -32q0 -20 -10 -38q-6 -8 -19.5 -14t-29 -9t-31 -3h-25.5q-31 10 -54.5 56t-39.5 101.5t-24.5 107.5t-8.5 77z" />
<glyph unicode="l" horiz-adv-x="1142" d="M95 260q7 4 28 -6q35 -16 90 -23q-14 31 -26.5 67t-20.5 70.5t-12 64.5t-4 46q6 82 7 167t3 169q-2 59 -4 133q-1 49 -1 100v51q1 77 6 147.5t17 123.5q14 35 43 55.5t63.5 31.5t75.5 12h12q35 0 68 -5q33 0 29 -18.5t-10 -34.5q-18 -53 -30.5 -129t-22 -159 t-14.5 -162.5t-11 -141.5q-4 -67 -5 -139v-72v-74q1 -74 4 -148.5t7 -141.5q8 -14 8 -31q16 0 31.5 -1t28.5 -1q22 -1 46.5 -1t50.5 1q52 2 105.5 6t104.5 8t98 8q20 10 40 8.5t42 -10.5q12 -4 26.5 -15t30 -25.5t28.5 -30t20 -25.5q0 -16 -38 -39.5t-87.5 -45t-97.5 -37 t-70 -15.5q-42 3 -86 3h-22q-56 -1 -109 -5q-29 -4 -68 -8t-79 -8q-28 -2 -56 -2h-23q-39 2 -69 10q-27 14 -49.5 44.5t-41 65.5t-32 71t-21.5 62q-6 15 -6 22q0 5 3 7z" />
<glyph unicode="m" horiz-adv-x="1398" d="M117 399q12 90 19 182.5t14 184.5q2 57 3 132t4 150.5t9 146.5t16 124q14 35 42 56.5t63 34.5t72.5 20.5t74.5 13.5q20 6 27 -4q16 6 20 -3.5t2 -27.5q0 -39 10.5 -100.5t27 -129t32.5 -132t29 -107.5q18 -59 42.5 -127t53.5 -139q31 66 58.5 135.5t54.5 136.5 q14 45 33.5 104.5t42 119t48 113.5t50.5 91q25 23 57 32q26 7 55 7h13q37 25 83 36t93 15q6 1 10 1q8 0 12 -4q6 -7 6 -19t-2.5 -24.5t-5.5 -18.5q-14 -70 -20 -146.5t-8.5 -155.5t-2.5 -158t-2 -153q2 -154 12.5 -314.5t18.5 -315.5q8 -29 7.5 -50.5t-11.5 -44.5 q-8 -23 -43 -41t-59 -22q-23 10 -46.5 66.5t-43 126t-33 134t-13.5 91.5q2 49 2 99q0 37 -1 75q-3 88 -7 174q-4 29 -6 62.5t-6 68.5l-8 -14q-10 -23 -25.5 -72t-34 -112.5t-39 -133t-41 -131t-40 -107.5t-33.5 -63q-12 -16 -30.5 -17t-40 10t-43 29.5t-40.5 41.5 q-66 80 -101.5 142t-60 123.5t-45 128t-55.5 152.5q-4 -29 -6 -54t-6 -52q-16 -156 -24.5 -327t-14.5 -330q6 -29 3 -51.5t-13 -47.5q-4 -10 -17.5 -20t-29 -18.5t-32 -14.5t-28.5 -8q-25 12 -44 73.5t-32.5 136t-20.5 144.5q-5 54 -5 82v14z" />
<glyph unicode="n" horiz-adv-x="1290" d="M102 369q4 86 6.5 174t2.5 174q-3 63 -5 140q-1 38 -1 77q-1 38 1 76q2 76 7.5 150.5t17.5 133.5q10 29 32.5 59.5t52.5 56.5t63.5 41t65.5 15t58.5 -19.5t42.5 -66.5q51 -147 125 -302.5t142 -301.5q41 -80 88 -164t96 -170v130.5t-2 129.5q-4 66 -6 142t-3 154v38 q0 57 2 113q3 74 11 135q25 82 96.5 128t151.5 71q8 6 13 6q6 -1 10 -7q6 -12 6 -31t-2.5 -38.5t-2.5 -21.5q-25 -160 -35 -335t-20 -341q-1 -42 -1 -89v-48q1 -74 4 -150t8.5 -150.5t13.5 -140.5q10 -23 10 -40t-6 -36q-18 -57 -55 -62q-6 -1 -12 -1q-32 0 -71 24 q-46 28 -95.5 78t-92.5 102t-72.5 95t-37.5 57q-35 76 -77 153t-83 150q-45 74 -97.5 162t-97.5 176q-6 -70 -11 -137t-11 -133q-4 -94 -4 -197q0 -52 1 -106q3 -162 13 -307q8 -27 7 -46.5t-9 -41.5q-6 -23 -39 -41.5t-55 -24.5q-27 8 -52.5 62.5t-46 122t-33 131 t-12.5 92.5z" />
<glyph unicode="o" horiz-adv-x="1380" d="M72 734v29q0 86 10 165q12 92 37 166q25 72 60.5 125t94.5 98q48 39 100 61q44 18 99 18q10 0 21 -1q47 -4 88.5 -20.5t76.5 -57.5q16 -12 11.5 -18.5t-22 -9.5t-39 -5t-38.5 -6q-25 -8 -43 -23q-49 -35 -85.5 -93t-61.5 -126.5t-38 -140.5t-17 -133q-1 -28 -1 -55 q0 -83 9 -165q12 -108 65 -218q73 -145 208 -145q12 0 24 1q94 8 168.5 52t130 113t91.5 157t50 183q9 63 9 127q0 32 -2 64q-7 96 -38 185q-14 35 -28.5 66.5t-36.5 62.5q-12 16 -32.5 37.5t-44.5 43t-46.5 39t-38.5 25.5q-37 25 -63.5 41.5t-51 29.5t-52.5 25.5t-66 28.5 q6 16 42 22q31 6 67 6h12q44 -1 87 -6t62 -9q72 -23 125 -57t110 -89q63 -63 109.5 -145t75 -170t38.5 -176q5 -48 4 -91q0 -37 -3 -71q-23 -182 -104 -344t-226 -262q-55 -37 -125 -66t-146 -40q-35 -5 -70 -5q-42 0 -85 7q-80 13 -154 59q-88 53 -149.5 133t-100 174 t-57 198t-20.5 206z" />
<glyph unicode="p" horiz-adv-x="1308" d="M36 1364q17 14 66.5 30.5t126 34t166.5 27.5t187 11h14q89 0 170 -11q129 -18 222 -69.5t149.5 -128t78.5 -174.5q13 -59 13 -123q0 -42 -6 -87q-8 -68 -38 -122t-74 -97t-98.5 -74.5t-113.5 -52.5q-37 -12 -81 -25.5t-90 -21.5t-92 -10h-15q-38 0 -74 8q-25 6 -47 19 q-3 -83 -3 -176v-47q1 -119 9 -216q14 -29 0 -49q-4 -4 -16.5 -9t-28 -9t-29.5 -7t-20 -5q-31 0 -57.5 34.5t-45 81.5t-28 95.5t-9.5 72.5q6 76 8.5 155t4.5 156q-2 63 -5.5 136t-4.5 148q-1 37 -1 74t1 73q1 71 8 131q8 31 23 56t38 48q-147 33 -291 102q-22 4 -22 12 q0 4 5 9zM508 637q66 18 148.5 46t157.5 65.5t129 86t63 107.5q2 23 4 50q1 10 1 19q0 19 -3 37q-4 29 -15.5 57t-31.5 48q-35 33 -91.5 47t-117.5 18q-37 3 -73 3q-24 0 -47 -1q-59 -3 -95 -3q-4 -147 -11.5 -290t-17.5 -290z" />
<glyph unicode="q" horiz-adv-x="1460" d="M108 690q-2 29 -2 58q0 81 12 160q15 108 48 194q27 66 59.5 113t85.5 90q49 39 101.5 61.5t124.5 22.5q49 -2 95 -15.5t87 -54.5q18 -12 11 -19.5t-26.5 -11.5t-44 -8t-38.5 -10q-10 -4 -19.5 -10.5t-19.5 -12.5q-80 -53 -132.5 -164.5t-73.5 -244.5q-15 -87 -15 -175 q0 -47 5 -95q11 -136 60 -236q33 -72 81 -104q43 -29 105 -29h15q72 6 132 31.5t113 66.5q-25 27 -50 56.5t-48.5 60t-43 60.5t-32.5 56q-6 31 6.5 62t32 58.5t43 52t41.5 42.5q16 23 25.5 9.5t15.5 -31.5q20 -57 62.5 -127t83.5 -131q63 119 78 273q4 37 4 72 q0 118 -39 234q-12 35 -26.5 65t-35.5 60q-12 14 -32.5 37t-44 45.5t-46 41t-37.5 26.5q-35 27 -58 44t-47 31.5t-50.5 28t-63.5 31.5q6 16 41 20q21 3 45 3q16 0 33 -1q43 -3 84 -9.5t59 -12.5q70 -25 122.5 -59.5t105.5 -87.5q102 -104 155.5 -241.5t63.5 -268.5 q2 -28 2 -56q0 -43 -5 -87q-9 -72 -29.5 -142t-51.5 -133.5t-68 -114.5q41 -43 85 -84t79 -71q18 -8 27.5 -19.5t19.5 -28.5q4 -8 4 -23t-1 -31.5t-4 -33t-5 -24.5q-9 -9 -27 -9q-13 0 -29 4q-42 9 -89 30.5t-92 48t-66 49.5q-10 10 -19.5 22t-19.5 25q-141 -113 -336 -142 q-29 -4 -57 -4q-44 0 -87 9q-69 16 -131.5 54t-114.5 94t-91 130q-49 94 -74.5 206t-30.5 224z" />
<glyph unicode="r" horiz-adv-x="1302" d="M51 1362q14 18 37 30.5t45.5 20.5t39.5 11t24 6q68 18 127 28t119.5 14.5t123 4.5t135.5 -2q125 -4 229.5 -58.5t175.5 -138.5t103 -186q19 -63 19 -124q1 -38 -7 -75q-20 -98 -95.5 -181t-221.5 -130q31 -53 61.5 -101.5t49.5 -79.5q23 -35 52.5 -74.5t61 -79.5 t63.5 -80t60 -73q27 -16 29 -47q0 -8 -5 -20.5t-14.5 -23.5t-17.5 -21.5t-14 -16.5q-7 -3 -17 -3q-14 0 -35 6q-34 12 -71 32t-68.5 46t-46.5 46q-27 45 -60.5 92t-66.5 88q-20 25 -46.5 57.5t-53.5 66.5t-51.5 70t-40.5 66q-31 -6 -72 -6h-22q-54 2 -95 17q-5 -74 -5 -158 q0 -28 1 -58q2 -118 15 -210q10 -18 9 -33.5t-5 -32.5q-4 -6 -15.5 -15t-25 -17.5t-26.5 -15.5t-21 -11q-29 4 -56.5 45t-50 94t-37 106.5t-14.5 81.5q6 68 8 138.5t6 138.5v115.5t2 127t6.5 125t14.5 109.5q23 59 79 95t117 61h-135t-147 18q-25 6 -49.5 21.5t-46 32 t-37 34t-21.5 27.5zM504 709q49 14 125 32.5t151.5 45t136 65.5t82.5 92q13 30 13 62q0 18 -4 36q-11 50 -45.5 92t-89 68.5t-117.5 26.5q-47 0 -95.5 -1t-95.5 -1q4 -20 1 -43t-3 -27q-18 -111 -31.5 -223t-27.5 -225z" />
<glyph unicode="s" horiz-adv-x="1175" d="M51 444q2 31 17.5 61t38 54.5t49 44t55.5 29.5q2 -2 1 -27.5t-3 -58.5t-3 -64.5t1 -44.5q6 -35 18.5 -59.5t34.5 -52.5q37 -45 87 -73t105.5 -45.5t112 -24.5t105.5 -11q19 -2 38 -2q24 0 49 3q44 5 78.5 22.5t50.5 51.5q10 20 10 46q0 19 -5 43q-16 68 -69.5 139.5 t-119 139t-135 125t-121.5 98.5q-57 45 -104 89t-88 103q-50 74 -64 144q-6 28 -6 55q0 39 12 73q20 60 69.5 104t125.5 67q45 13 97 13q20 0 42 -2q76 -7 150 -34t138.5 -73t105.5 -105q16 -27 27 -54.5t7 -56.5q0 -16 -8 -16t-20 7t-24.5 15.5t-18.5 12.5q-41 25 -87 39 t-93.5 21t-92.5 7t-84 -8q-66 -12 -81 -36.5t0.5 -54.5t52.5 -63.5t76 -64.5q119 -98 228 -204.5t193 -237.5q59 -94 95 -194q22 -62 22 -126q0 -39 -8 -78q-18 -78 -69.5 -128t-124 -76.5t-158.5 -30.5q-17 -1 -35 -1q-69 0 -140 13q-89 16 -175.5 52t-155.5 87 q-41 29 -85 73t-69 85q-29 49 -38 93q-7 36 -7 78v19z" />
<glyph unicode="t" horiz-adv-x="1331" d="M41 1458q6 6 20.5 6t31 -2t22.5 -4q119 -23 251 -24.5t248 -3.5q106 4 228.5 18t228.5 27q18 10 37.5 10t44.5 -8q12 -4 27.5 -15.5t32 -26t29.5 -28.5t22 -25q2 -20 -33 -45.5t-83 -50t-95 -41t-72 -18.5q-82 0 -162 -6q0 -20 -4 -37q-12 -61 -17 -141t-8.5 -165 t-4.5 -168t-3 -153v-61q0 -100 4 -210q6 -144 15 -274q16 -27 -2 -41q-10 -4 -22 -4q-13 1 -30 5q-32 8 -53 8q-41 12 -66.5 40.5t-42 62.5t-23.5 72t-7 68q5 67 5 139v24q-1 85 -3 165q-4 61 -10 137t-9 155t-3 151.5t6 127.5q10 29 25.5 46.5t37.5 29.5q-74 -10 -152 -14 q-22 -1 -43 -1q-53 0 -100 7q-41 12 -77.5 38.5t-69.5 61.5t-60.5 73t-50.5 73q-12 12 -12 18q0 2 2 4z" />
<glyph unicode="u" horiz-adv-x="1234" d="M86 899q4 86 11 173t28 167q72 199 297 215q20 8 24.5 -6t-1 -35.5t-12.5 -40t-7 -20.5q-14 -45 -33.5 -129t-37 -186.5t-27.5 -214.5q-6 -71 -6 -139q0 -39 2 -77q6 -104 30.5 -189t75.5 -132q59 -53 136 -77t147 -26q9 0 17 -1q48 1 70 11q26 12 36 40q6 21 6 52 q0 11 -1 23q-2 28 -2 65q0 25 1 54q8 78 10 162t4 164q-4 61 -7 131.5t-4 142.5v48q0 46 1 92q2 68 10 124q12 39 38 69t58.5 51.5t71.5 35.5t78 24q8 5 13 5q6 0 9 -6q6 -11 6 -28.5t-3 -36t-3 -20.5q-23 -147 -31 -311t-18 -315q-5 -126 -5 -256v-43v-61q0 -121 -3 -240 q6 -29 2 -50.5t-14 -44.5t-46 -40t-61 -21q-14 6 -22 31q-82 -47 -194 -57q-24 -2 -47 -3q-87 0 -169 31q-53 20 -114.5 60t-104.5 81q-72 70 -115 167.5t-64.5 201.5t-26.5 206q-4 72 -4 133q0 24 1 46z" />
<glyph unicode="v" horiz-adv-x="1198" d="M41 1272q2 39 20.5 67.5t47 50t62.5 38t65 28.5q25 12 28.5 3t3.5 -32q0 -49 16.5 -126.5t38 -162.5t45 -166t38.5 -134q35 -111 76.5 -231t88.5 -236q6 39 13 59q33 88 60.5 181.5t53.5 185.5q14 63 33 143t39.5 163t43 159.5t46.5 132.5q25 37 57.5 52t68.5 18 q27 2 56 2h19h16l62 3q9 3 14 3t7 -2q4 -4 4 -12q0 -11 -5 -25q-4 -12 -8 -17q-31 -57 -61.5 -138t-59.5 -170t-55.5 -175t-48.5 -152q-47 -154 -89 -313.5t-89 -316.5q2 -37 -27 -62q-23 -18 -36 -39.5t-27.5 -40t-31 -32t-40.5 -13.5h-3q-17 1 -39 21q-24 22 -48.5 58 t-49 80t-45 87t-36 80t-21.5 55q-29 96 -60.5 191.5t-64.5 189.5q-20 53 -48 125t-54.5 147.5t-47 147.5t-28.5 125z" />
<glyph unicode="w" horiz-adv-x="1669" d="M82 1264q6 39 27.5 69.5t52.5 52t67.5 35t73.5 19.5q29 6 30 -5.5t-3 -33.5q-3 -28 -3 -63t3 -78q6 -86 17 -178.5t24.5 -181.5t23.5 -150q10 -59 21.5 -125t25.5 -133q16 57 29.5 115.5t26.5 113.5q10 66 22 140.5t26.5 149t32 146.5t39.5 131q43 80 126 118t174 48 q20 8 23 -4t-2 -30.5t-12 -37t-9 -20.5q-12 -31 -14 -83v-25q0 -42 4 -92q5 -64 16.5 -135t24 -137.5t23.5 -123.5t19 -92q10 -51 26.5 -106.5t35.5 -112.5q23 66 40 135t33 139q12 63 25.5 133t30 139.5t35 136t40.5 126.5q47 86 134.5 137t181.5 80q9 7 15 7t7 -8 q1 -4 1 -9q0 -15 -5 -33q-6 -26 -15 -51t-11 -31q-61 -158 -111.5 -323t-103.5 -326q-35 -125 -64 -263.5t-57 -267.5q2 -23 -10.5 -56.5t-32 -65t-44 -55.5t-44.5 -28q-5 -1 -9 -1l-69 40q-39 45 -72 108.5t-56.5 125t-29.5 86.5q-14 66 -32.5 132t-36.5 132 q-14 41 -28.5 83t-27.5 87q-8 -23 -14 -53q-39 -147 -68.5 -298t-68.5 -302q0 -49 -31 -88q-16 -20 -56 -30.5t-67 -10.5q-14 10 -42 53t-55.5 95t-50 101.5t-26.5 71.5q-12 90 -30.5 181t-34.5 184q-16 61 -35 139t-35.5 160t-27.5 159.5t-13 137.5z" />
<glyph unicode="x" horiz-adv-x="1310" d="M37 0q2 35 15.5 78t32.5 92t40.5 92t41 78t30.5 49q117 150 229 313q-78 102 -152.5 214t-134.5 206q-30 67 -30 132q1 25 5 50q16 90 68 166q5 14 12 14h4q10 -4 20.5 -20t19 -32.5t10.5 -20.5q59 -115 147 -241t178 -244q78 123 164 246.5t168 216.5q72 63 157 68 q15 1 30 1q72 0 149 -20q22 0 22 -15q1 -10 -7 -20q-8 -12 -19.5 -24.5t-15.5 -14.5q-61 -66 -121 -150t-118 -174t-115.5 -179t-114.5 -167q96 -119 194 -234.5t193 -238.5q23 -16 34 -36.5t21 -47.5q2 -8 2 -17q0 -22 -10 -46q-14 -36 -31 -56q-8 -2 -17 -2q-36 0 -92 38 q-70 48 -149.5 122t-158.5 160t-134 151q-82 -117 -162 -230.5t-178 -223.5q-10 -29 -38.5 -46.5t-51.5 -33.5q-17 -13 -48 -13h-12q-40 3 -65 11q-12 12 -12 41v8z" />
<glyph unicode="y" d="M76 1281q8 34 25.5 64.5t40.5 57.5t46 47q7 10 14 10h2q9 -2 15 -11t10 -22.5t7 -19.5q33 -92 93 -187.5t117 -179.5q41 -55 98.5 -119.5t112.5 -123.5q12 70 27.5 147.5t36 154.5t43 147.5t51.5 125.5q49 68 133 83q22 4 44 4q63 0 130 -32q16 -6 20 -13q1 -3 1 -7 t-2 -8q-4 -8 -11.5 -16.5t-13.5 -14.5q-39 -51 -74.5 -133t-67.5 -172t-57.5 -179t-44.5 -157q-18 -74 -34.5 -154.5t-30.5 -164.5t-26.5 -168t-20.5 -160q1 -10 1 -19q0 -31 -16 -55q-6 -8 -18 -14t-27.5 -9t-32 -5.5t-26.5 -2.5q-31 12 -47 65.5t-24 117.5q-8 58 -8 113 v13q1 60 5 85q14 59 27.5 119.5t26.5 121.5q-51 27 -100.5 61t-67.5 56q-33 43 -70 88t-72 88q-61 66 -128.5 148t-104.5 159q-6 21 -6 40q0 16 4 31z" />
<glyph unicode="z" horiz-adv-x="1267" d="M59 222q9 7 28 8t38.5 0t24.5 -1q16 -2 33.5 -3t33.5 -1q6 41 16.5 86t21.5 85t23.5 71t20.5 47q51 80 97 163t93 167q37 76 88.5 174t104.5 186q-37 -6 -83 -14t-94 -12t-94 -6q-12 -1 -24 -1q-33 0 -61 5q-35 12 -64 40.5t-53.5 63.5t-43 72.5t-32.5 68.5 q-10 14 -7 21.5t11 8.5t19.5 -1t21.5 -4q92 -20 207 -21.5t207 -1.5q41 2 90 7.5t99 12.5t98.5 16t89.5 18q11 10 28 10q13 0 29 -6q8 -4 21.5 -15.5t25.5 -25t22.5 -27.5l16.5 -22q1 -4 1 -8q0 -25 -32 -54q4 -2 5 -3t6 -3q29 -16 20.5 -24.5t-25.5 -22.5 q-41 -37 -91 -101.5t-101 -138t-96 -146.5t-78 -122q-78 -125 -152.5 -269.5t-140.5 -281.5h111.5t109.5 -2q43 2 92.5 7t100.5 13.5t100 17.5t90 17q16 10 31.5 10.5t36.5 -4.5q10 -4 25.5 -14t29.5 -24.5t26.5 -27.5t18.5 -22q2 -20 -25.5 -48.5t-68.5 -55.5t-83 -47.5 t-67 -22.5q-53 -2 -109 -7t-110 -9q-43 -8 -92 -15.5t-101 -12.5t-104 -7q-17 -1 -33 -1q-32 0 -61 3q-41 10 -80 36t-74.5 58.5t-67.5 69.5t-56 70q-12 11 -12 17q0 4 3 6z" />
<glyph unicode="&#xad;" d="M229.5 916.5q1.5 7.5 11 8.5t20.5 -2t22 -5q72 -23 152.5 -33.5t154.5 -20.5q25 -2 58.5 -2t69.5 2t69.5 5t60.5 5q20 12 49 -6q8 -4 18.5 -17t20.5 -29.5t17.5 -33t11.5 -24.5q6 -10 -13.5 -33.5t-48.5 -47.5t-58.5 -40t-43.5 -12q-35 4 -72 5t-72 1q-27 -4 -57.5 -7 t-62 -4t-63.5 1t-58 10q-29 14 -54.5 46t-49 70t-43 75.5t-31.5 66.5q-10 14 -8.5 21.5z" />
<glyph unicode="&#x2000;" horiz-adv-x="757" />
<glyph unicode="&#x2001;" horiz-adv-x="1515" />
<glyph unicode="&#x2002;" horiz-adv-x="757" />
<glyph unicode="&#x2003;" horiz-adv-x="1515" />
<glyph unicode="&#x2004;" horiz-adv-x="505" />
<glyph unicode="&#x2005;" horiz-adv-x="378" />
<glyph unicode="&#x2006;" horiz-adv-x="252" />
<glyph unicode="&#x2007;" horiz-adv-x="252" />
<glyph unicode="&#x2008;" horiz-adv-x="189" />
<glyph unicode="&#x2009;" horiz-adv-x="303" />
<glyph unicode="&#x200a;" horiz-adv-x="84" />
<glyph unicode="&#x2010;" d="M229.5 916.5q1.5 7.5 11 8.5t20.5 -2t22 -5q72 -23 152.5 -33.5t154.5 -20.5q25 -2 58.5 -2t69.5 2t69.5 5t60.5 5q20 12 49 -6q8 -4 18.5 -17t20.5 -29.5t17.5 -33t11.5 -24.5q6 -10 -13.5 -33.5t-48.5 -47.5t-58.5 -40t-43.5 -12q-35 4 -72 5t-72 1q-27 -4 -57.5 -7 t-62 -4t-63.5 1t-58 10q-29 14 -54.5 46t-49 70t-43 75.5t-31.5 66.5q-10 14 -8.5 21.5z" />
<glyph unicode="&#x2011;" d="M229.5 916.5q1.5 7.5 11 8.5t20.5 -2t22 -5q72 -23 152.5 -33.5t154.5 -20.5q25 -2 58.5 -2t69.5 2t69.5 5t60.5 5q20 12 49 -6q8 -4 18.5 -17t20.5 -29.5t17.5 -33t11.5 -24.5q6 -10 -13.5 -33.5t-48.5 -47.5t-58.5 -40t-43.5 -12q-35 4 -72 5t-72 1q-27 -4 -57.5 -7 t-62 -4t-63.5 1t-58 10q-29 14 -54.5 46t-49 70t-43 75.5t-31.5 66.5q-10 14 -8.5 21.5z" />
<glyph unicode="&#x2012;" d="M229.5 916.5q1.5 7.5 11 8.5t20.5 -2t22 -5q72 -23 152.5 -33.5t154.5 -20.5q25 -2 58.5 -2t69.5 2t69.5 5t60.5 5q20 12 49 -6q8 -4 18.5 -17t20.5 -29.5t17.5 -33t11.5 -24.5q6 -10 -13.5 -33.5t-48.5 -47.5t-58.5 -40t-43.5 -12q-35 4 -72 5t-72 1q-27 -4 -57.5 -7 t-62 -4t-63.5 1t-58 10q-29 14 -54.5 46t-49 70t-43 75.5t-31.5 66.5q-10 14 -8.5 21.5z" />
<glyph unicode="&#x2013;" horiz-adv-x="1497" d="M229 916.5q2 7.5 15.5 8.5t28.5 -2t31 -5q100 -23 211.5 -33.5t214.5 -20.5q35 -2 81.5 -2t96.5 2t96.5 5t83.5 5q28 12 69 -6q11 -4 25.5 -17t28.5 -29.5t24 -33t16 -24.5q8 -10 -19 -33.5t-67 -47.5t-81 -40t-61 -12q-48 4 -99.5 5t-100.5 1q-37 -4 -79.5 -7t-86.5 -4 t-88.5 1t-80.5 10q-40 14 -75.5 46t-68 70t-59.5 75.5t-44 66.5q-14 14 -12 21.5z" />
<glyph unicode="&#x2014;" horiz-adv-x="2521" d="M229.5 916.5q4.5 7.5 31 8.5t57 -2t60.5 -5q200 -23 424 -33.5t429 -20.5q70 -2 163 -2t193 2t193 5t168 5q56 12 136 -6q22 -4 51.5 -17t57 -29.5t48.5 -33t32 -24.5q17 -10 -37.5 -33.5t-135 -47.5t-162.5 -40t-121 -12q-97 4 -199.5 5t-200.5 1q-75 -4 -159.5 -7 t-172 -4t-176.5 1t-161 10q-81 14 -152 46t-136 70t-119 75.5t-88 66.5q-28 14 -23.5 21.5z" />
<glyph unicode="&#x202f;" horiz-adv-x="303" />
<glyph unicode="&#x205f;" horiz-adv-x="378" />
</font>
</defs>
</svg>
