<?xml version="1.0" standalone="no"?>
<!DOCTYPE svg PUBLIC "-//W3C//DTD SVG 1.1//EN" "http://www.w3.org/Graphics/SVG/1.1/DTD/svg11.dtd" >
<svg xmlns="http://www.w3.org/2000/svg">
<metadata></metadata>
<defs>
<font id="dumabold" horiz-adv-x="1705" >
<font-face units-per-em="2048" ascent="1536" descent="-512" />
<missing-glyph horiz-adv-x="595" />
<glyph horiz-adv-x="0" />
<glyph unicode="&#xd;" horiz-adv-x="595" />
<glyph unicode=" "  horiz-adv-x="595" />
<glyph unicode="&#x09;" horiz-adv-x="595" />
<glyph unicode="&#xa0;" horiz-adv-x="595" />
<glyph unicode="!" horiz-adv-x="290" d="M0 1522h268l-30 -1166h-209zM23 8v195h217v-195h-217z" />
<glyph unicode="&#x22;" d="M426 774v518h168v-518h-168zM762 774v518h168v-518h-168z" />
<glyph unicode="#" horiz-adv-x="1249" d="M66 522l45 213h145l35 164h-146l45 213h146l41 184h213l-41 -184h211l41 184h213l-41 -184h145l-45 -213h-145l-35 -164h145l-45 -213h-145l-33 -153h-213l33 153h-211l-33 -153h-213l33 153h-145zM469 735h211l35 164h-211z" />
<glyph unicode="$" horiz-adv-x="1490" d="M4 322v30h209l2 -28q0 -43 17.5 -81t45 -65.5t64.5 -43t80 -15.5h31v-2h139v499q-14 4 -28.5 6.5t-28.5 6.5l-41 6l-23 4q0 2 -4 2q-23 4 -42 7t-36 7q-18 4 -33.5 6.5t-25.5 4.5l-2 -2l-21 6q-66 18 -121 56t-96 91q-86 111 -86 254q0 84 31 160t88 135q121 121 291 125 h8h170v94h209v-94h170h24q76 -4 145.5 -36t123.5 -85q53 -53 85.5 -121.5t36.5 -144.5l5 -33h-211l-2 27q-10 76 -64.5 127t-130.5 55h-4h-2h-6h-8h-162v-485q94 -16 164.5 -33t121.5 -33q63 -18 119 -57t97 -92q86 -111 86 -254q0 -86 -33 -162t-90.5 -133.5t-133 -90 t-161.5 -32.5h-170v-137h-209v137h-170h-8q-168 4 -289 125q-117 121 -121 289zM215 1042h2v-2v-2v-2v-2v-2v-2q2 0 2 -2v-2v-2v-2h2v-2v-2v-4h2v-2v-2q0 -2 1 -3t1 -3q4 -8 4 -13q2 -2 2 -4l2 -4q2 -2 3 -4q2 -2 2 -4q2 -2 2 -4l2 -2l2 -2v-2l2 -2v-2l2 -3v-2h2v-2l2 -2v-2 q2 0 2 -2h2v-2l2 -2l4 -4q2 -2 3 -4t3 -4l8 -8l3 -2v-2q2 0 4 -2l2 -3l4 -4q2 0 2 -1t2 -1q0 -2 2 -2l2 -2h2v-2h2l2 -2h2v-2h2q2 -2 4 -2l23 -14q2 0 3 -1t3 -1t4 -2h2l2 -2h2l4 -3h4v-2h4h3l2 -2h2h4v-2h4h4h2q0 -2 2 -2h2h4l6 -2h4h7q14 -4 63 -11t121 -19v446h-162h-8 h-6q-84 -4 -142.5 -63.5t-58.5 -145.5v-4v-6v-4v-2v-2v-2v-2v-2v-3v-2zM801 117h129v2h33h8q43 0 81 16.5t66.5 44t45 65.5t16.5 81q0 2 -1 3t-1 3v4v2v2v2v2v2v2v2v2v2q0 2 -1 2t-1 2v9l-2 2v2v2v2v2h-3v2v2v4h-2v4l-4 8v2q0 2 -1 3t-1 4q0 2 -1 2t-1 2v2l-2 2v2l-2 2 q0 2 -2 4l-6 12l-2 2v2l-2 2l-2 2v2h-2v5h-2q0 2 -4 6q0 2 -1 2t-1 2q-2 0 -2.5 1t-2.5 1v2l-2 2l-2 2l-2 2l-2 2q0 2 -2 2l-2 2l-6 6l-2 2q-2 2 -4 2v2h-2v2h-2l-2 3q-2 2 -4 2l-7 6q-2 0 -2 1t-2 1t-2 1t-2 1l-2 2h-2q0 2 -2 2h-2q-4 4 -6 4q-4 4 -8 4q-2 0 -2 2l-6 2 l-7 2h-2q-2 2 -4 2t-4 2q-4 0 -5 1t-3 1h-4l-2 2h-2h-2h-2q-23 8 -76 19.5t-135 28.5v-461z" />
<glyph unicode="%" horiz-adv-x="1554" d="M6 1190q0 68 23.5 130t64.5 116q53 53 123 80.5t152 27.5q168 0 276 -108q47 -53 68.5 -116t21.5 -130q0 -150 -90 -246q-104 -108 -276 -108q-166 0 -275 108q-41 49 -64.5 111.5t-23.5 134.5zM102 -51l1131 1681l209 -14l-1131 -1682zM182 1192q0 -35 11.5 -68.5 t35 -60.5t59.5 -44.5t85 -17.5t85 16.5t59.5 42t34.5 59.5t11 71q0 33 -11 66.5t-35.5 61.5t-61.5 44t-86 16t-84 -16t-58.5 -42t-34 -59.5t-10.5 -68.5zM797 354q0 68 23.5 130.5t64.5 115.5q53 53 122.5 81t151.5 28q86 0 154.5 -28t122.5 -81q47 -53 68.5 -115.5 t21.5 -130.5q0 -150 -90 -245q-105 -109 -277 -109q-166 0 -274 109q-41 49 -64.5 111.5t-23.5 133.5zM973 356q0 -35 11 -68.5t34.5 -60t59.5 -44t85 -17.5t85 16.5t59.5 42t35 59t11.5 70.5q0 33 -11.5 67t-36 61.5t-61.5 44t-86 16.5t-84 -16.5t-58.5 -42t-33.5 -59.5 t-10 -69z" />
<glyph unicode="&#x26;" horiz-adv-x="1216" d="M0 467q0 147 82 266q45 68 106 113q-51 55 -78.5 125.5t-27.5 146.5q0 82 30.5 156t84 127t125 85t153.5 32t153.5 -32t125 -85t85 -127t31.5 -156q0 -152 -102 -266q-78 -88 -188 -119l147 -182l-2 76l219 2l2 -88q2 -23 1 -42.5t-1 -35.5q-4 -74 -28 -148l178 -219 l-176 -143l-134 164q-20 -18 -41.5 -34.5t-46.5 -29.5q-102 -59 -225 -59q-96 0 -182 36t-152 103q-68 68 -103.5 154t-35.5 180zM221 467q0 -53 19.5 -98t54.5 -80t80 -54.5t98 -19.5q102 0 174 72l-315 389q-53 -35 -82 -89.5t-29 -119.5zM309 1118q0 -70 49.5 -120 t116.5 -50q70 0 118 50.5t48 119.5q0 72 -48 121t-118 49q-68 0 -117 -49t-49 -121z" />
<glyph unicode="'" horiz-adv-x="1425" d="M596 772v494h162v-494h-162z" />
<glyph unicode="(" horiz-adv-x="567" d="M0 549q0 131 31.5 253t90 220t139.5 170t179 104l47 15v-238l-20 -10q-57 -29 -104.5 -81t-82 -119.5t-54 -148.5t-19.5 -165q0 -86 19.5 -167t54 -149.5t83 -122t105.5 -81.5l18 -11v-233l-47 14q-98 33 -179 104.5t-139.5 171t-90 220.5t-31.5 254z" />
<glyph unicode=")" horiz-adv-x="565" d="M0 23l20 10q57 29 104.5 81t82.5 119.5t54.5 148.5t19.5 165q0 86 -19.5 167t-54.5 149.5t-83 121.5t-106 82l-18 10v234l47 -15q98 -33 179 -104.5t139.5 -170.5t90 -220t31.5 -254t-31.5 -254t-90 -219.5t-139.5 -170t-179 -104.5l-47 -14v238z" />
<glyph unicode="*" horiz-adv-x="1089" d="M190 915l220 220l-215 215l129 129l122 -125v180h185v-178l127 127l129 -131l-219 -219l221 -222l-129 -129l-129 131v-180h-185v178l-127 -127z" />
<glyph unicode="+" d="M266 567v133h752v-133h-752zM567 250v749h117v-749h-117z" />
<glyph unicode="," horiz-adv-x="325" d="M0 4v291h256v-291h-2q-4 -53 -28.5 -98t-53.5 -80q-35 -39 -76 -74l-96 78q12 4 32.5 24.5t39 46t33 54.5t18.5 49h-123z" />
<glyph unicode="-" horiz-adv-x="1318" d="M86 559v209h1094v-209h-1094z" />
<glyph unicode="." horiz-adv-x="319" d="M0 6v262h256v-262h-256z" />
<glyph unicode="/" horiz-adv-x="1542" d="M209 -211l938 1727l211 -7l-938 -1726z" />
<glyph unicode="0" horiz-adv-x="1366" d="M6 766q0 152 49 289t142 245q88 104 204 164q125 59 254 60q129 0 254 -60q117 -60 205 -164q92 -109 140.5 -245.5t48.5 -288.5q0 -154 -48.5 -291t-140.5 -246q-90 -106 -205 -161q-123 -61 -254 -62q-131 0 -254 62q-115 55 -204 161q-92 109 -141.5 246t-49.5 291z M209 766q0 -94 26.5 -179t75.5 -157l545 805q-41 41 -93.5 63.5t-105.5 22.5q-92 0 -174 -46t-142 -123t-96 -177.5t-36 -208.5zM471 287q41 -35 89 -50.5t95 -15.5q92 0 173 44t142.5 119t96.5 174t35 208q0 86 -23.5 167t-68.5 150z" />
<glyph unicode="1" horiz-adv-x="350" d="M0 1309v213h266v-1522h-211v1309h-55z" />
<glyph unicode="2" horiz-adv-x="940" d="M2 1073v66v2q8 78 42 146.5t91 121.5t130 82t151 29q84 0 159.5 -32t135.5 -91q59 -59 89.5 -134t30.5 -159t-30.5 -159t-89.5 -134q-104 -109 -256 -121l-35 -2q-82 0 -139.5 -57.5t-57.5 -138.5v-271h608v-219h-827v490q0 82 31 156.5t90 133.5q109 109 256 121l35 2 q41 0 76.5 15.5t63.5 42t43 63.5t15 78t-15 77t-43 62.5t-63.5 41.5t-76.5 15q-72 0 -128.5 -47t-66.5 -118v-62h-219z" />
<glyph unicode="3" horiz-adv-x="917" d="M0 1098l4 39q6 78 40 149.5t93 124.5t133 83t154 30q86 0 163 -33t136 -92t92 -136t33 -163q0 -102 -46 -191.5t-126 -148.5q80 -59 126 -148.5t46 -191.5q0 -88 -34 -165t-91 -134.5t-134 -90t-165 -32.5q-84 0 -161 30.5t-136 90.5q-59 59 -91 135t-34 162v35h217v-35 q0 -41 17.5 -78t45 -64.5t64.5 -43t78 -15.5q43 0 81 16.5t65.5 44t44 64.5t16.5 80t-16.5 80t-44 64.5t-65.5 44t-81 16.5l-35 2v268h35q43 0 81 16.5t65.5 44t44 64.5t16.5 80t-16.5 81t-44 65.5t-65.5 44t-81 16.5q-78 0 -135.5 -51.5t-67.5 -127.5l-4 -30h-217z" />
<glyph unicode="4" horiz-adv-x="872" d="M0 709l4 14l176 559l203 -63l-115 -361l56 27l8 4h188v633h211v-633h72v-213h-72v-676h-211v676h-141l-299 -139l-74 157z" />
<glyph unicode="5" horiz-adv-x="1200" d="M0 877l193 624l6 21h32h826v-211h-703l-86 -285q131 84 293 84q113 0 214.5 -42t180.5 -120q78 -78 120 -179t42 -214q0 -111 -42 -212t-120 -179q-80 -78 -181 -121t-214 -43q-92 0 -186 33q-86 31 -160 90t-123 137t-72 168l-10 43h221l9 -25q35 -104 123 -166.5 t198 -62.5q70 0 132.5 26.5t108.5 72.5t72.5 107.5t26.5 131.5t-26.5 131.5t-72.5 107.5t-108.5 72.5t-132.5 26.5q-61 0 -106 -13.5t-86 -43.5q-16 -12 -31.5 -27.5l-32.5 -32.5q-18 -18 -35 -37l-20 -22l-227 145z" />
<glyph unicode="6" horiz-adv-x="1179" d="M0 555q0 141 70 268l288 705l191 -78l-148 -363q70 20 154 21q111 0 212 -42t179 -120q80 -78 122 -179t42 -212q0 -113 -42 -214t-122 -179q-78 -78 -179 -120t-212 -42t-212 42t-181 120q-78 78 -120 179t-42 214zM213 555q0 -72 26.5 -134.5t73.5 -109.5t108.5 -73.5 t133.5 -26.5q70 0 132.5 26.5t109.5 73.5t73.5 109.5t26.5 134.5q0 70 -26.5 132.5t-73.5 109.5t-109.5 73.5t-132.5 26.5q-72 0 -133.5 -26.5t-108.5 -73.5t-73.5 -109.5t-26.5 -132.5z" />
<glyph unicode="7" horiz-adv-x="903" d="M0 0v35q0 248 178 479q74 94 153 160.5t134 111.5q106 84 145 195q10 35 12.5 59.5t0.5 28.5v6v6v230h-623v211h834v-439q2 -18 -1.5 -65t-26 -111.5t-71.5 -139.5t-139 -146q-51 -39 -117.5 -95.5t-126 -130t-100.5 -164t-41 -196.5v-35h-211zM0 0v35q0 248 178 479 q74 94 153 160.5t134 111.5q106 84 145 195q10 35 12.5 59.5t0.5 28.5v6v6v230h-623v211h834v-439q2 -18 -1.5 -65t-26 -111.5t-71.5 -139.5t-139 -146q-51 -39 -117.5 -95.5t-126 -130t-100.5 -164t-41 -196.5v-35h-211z" />
<glyph unicode="8" horiz-adv-x="1017" d="M0 471q0 135 72 250q57 90 141 143q-57 53 -89 126t-32 153q0 78 30 147.5t82 121.5t121.5 82t147.5 30q80 0 148.5 -30t121 -82t82 -121.5t29.5 -147.5q0 -80 -30.5 -152.5t-88.5 -126.5q41 -29 77 -64.5t62 -78.5q72 -115 72 -250q0 -96 -36 -182t-103 -154 q-66 -66 -152 -101.5t-182 -35.5t-182 36t-152 101q-68 68 -103.5 154t-35.5 182zM213 471q0 -55 20.5 -102t55.5 -83t83 -56.5t101 -20.5t100.5 20.5t83 56.5t56 83t20.5 102q0 53 -20.5 100t-56 83t-83 56.5t-100.5 20.5t-101 -20.5t-83 -56.5t-55.5 -83t-20.5 -100z M305 1143q0 -72 49 -121t119 -49q72 0 121 49t49 121q0 70 -49 119t-121 49q-70 0 -119 -49.5t-49 -118.5z" />
<glyph unicode="9" horiz-adv-x="1034" d="M0 1038q0 98 37 185.5t104 156.5q70 68 157 105t185 37t186.5 -37t155.5 -105q70 -70 106 -156.5t36 -185.5q0 -106 -39 -192l-273 -852l-200 65l166 514q-68 -18 -138 -18q-98 0 -185 36t-157 105q-68 68 -104.5 156t-36.5 186zM209 1038q0 -57 21.5 -107t58.5 -88 t87 -59.5t107 -21.5q78 0 144.5 41t101.5 110q4 8 4 11q25 51 25 114q0 57 -21.5 107.5t-58.5 87.5t-87.5 58.5t-107.5 21.5t-107 -21.5t-87 -58.5t-58.5 -87t-21.5 -108z" />
<glyph unicode=":" horiz-adv-x="430" d="M29 -6v262h256v-262h-256zM29 840v262h256v-262h-256z" />
<glyph unicode=";" horiz-adv-x="325" d="M0 4h123q-4 -20 -18.5 -49t-33 -54.5t-39 -46t-32.5 -24.5l96 -78q41 35 76 74q29 35 53.5 80t28.5 98h2v291h-256v-291zM6 840v262h256v-262h-256z" />
<glyph unicode="&#x3c;" horiz-adv-x="960" d="M0 721v2v2l737 752l150 -148l-596 -606l596 -606l-150 -148z" />
<glyph unicode="=" horiz-adv-x="1294" d="M16 494v208h1094v-208h-1094zM16 838v209h1094v-209h-1094z" />
<glyph unicode="&#x3e;" horiz-adv-x="960" d="M0 117l596 606l-596 606l150 148l737 -752v-2v-2l-737 -752z" />
<glyph unicode="?" horiz-adv-x="1050" d="M0 1055l4 39q10 90 51 169.5t111 139.5q70 61 155 94t179 33q100 0 190 -37t160 -107q72 -70 109.5 -158.5t37.5 -187.5q0 -98 -36.5 -185t-104.5 -157q-59 -61 -138 -99t-165 -46v-246h-211v447h121v4h37q59 0 111.5 22.5t90 60.5t60 89t22.5 110q0 57 -22.5 108.5 t-60 89.5t-90 60.5t-111.5 22.5q-53 0 -100.5 -17.5t-85.5 -49t-63.5 -75.5t-33.5 -96l-6 -28h-211zM342 -4v213h211v-213h-211z" />
<glyph unicode="@" horiz-adv-x="1617" d="M18 430q0 76 14.5 148.5t45.5 142.5q57 135 160 235q100 102 235 160q141 59 291 60q150 0 291 -60q133 -55 237 -160q100 -100 160 -235q57 -135 57 -291q0 -109 -28.5 -210t-87.5 -193l-21 -31h-221l-176 340h-422l-160 -307q76 -70 171 -107t200 -37q41 0 82 6l78 11 v-203l-58 -8q-27 -4 -51 -6t-51 -2q-150 0 -291 59q-131 55 -235 160q-104 104 -160 237q-31 70 -45.5 142.5t-14.5 148.5zM219 430q0 -98 35 -190l371 716q-88 -23 -162 -72.5t-128 -118.5t-85 -155t-31 -180zM668 559h192l-96 186zM903 956l373 -716q16 45 24.5 93t8.5 97 q0 94 -31 180t-85 155t-128 119t-162 72z" />
<glyph unicode="A" horiz-adv-x="1867" d="M0 0l772 1495l14 27h33h74h74h32l15 -27l772 -1495h-236l-278 541h-758l-278 -541h-236zM623 752h540l-270 522z" />
<glyph unicode="B" horiz-adv-x="1419" d="M0 0v1522h901q162 -23 275 -129q59 -59 91.5 -134t32.5 -155q0 -100 -51 -193q-39 -66 -94 -114q74 -53 117 -129q61 -102 61 -222q0 -88 -32.5 -165.5t-89 -137t-134.5 -97.5t-166 -46h-911zM213 209h621l34 2q51 0 97.5 18.5t80 50t53 74.5t19.5 92q0 84 -56 151 t-142 83h-707v-471zM213 893h655h11h10h12h12q78 23 125 81t47 130q0 78 -58 136t-153 73h-661v-420z" />
<glyph unicode="C" horiz-adv-x="1566" d="M-2 762q0 156 61 295q29 70 69 129t93 112q104 104 242 164q143 59 297 60q201 0 377 -101q172 -96 272 -266l33 -53h-244l-10 14q-80 96 -191.5 148.5t-236.5 52.5q-115 0 -216.5 -44t-177 -119t-119.5 -176t-44 -216t44 -216.5t119.5 -177t177 -118.5t216.5 -43 q92 0 176 28.5t153.5 80t122 123t78.5 159.5l8 25h209l-10 -43q-33 -127 -100 -232q-70 -106 -166 -182q-98 -78 -217 -121q-123 -43 -254 -43q-154 0 -297 59q-68 29 -128.5 69t-113.5 93t-93 113.5t-69 128.5q-61 141 -61 297z" />
<glyph unicode="D" horiz-adv-x="1548" d="M0 2v1518h737h4q147 0 285 -60q131 -57 234 -164q102 -104 157 -241q57 -143 58 -295q0 -150 -58 -293q-55 -137 -157 -242q-102 -106 -234 -164q-137 -59 -285 -59h-4h-737zM209 211h467h2q4 -2 16 -2t21 2h22q111 0 208 43t170 117.5t115 174t42 214.5t-42 215 t-115 175t-170 118t-208 43h-22q-6 0 -11.5 1t-9.5 1t-8 -1t-8 -1h-2h-467v-1100z" />
<glyph unicode="E" horiz-adv-x="1251" d="M0 0v1522h1196v-211h-985v-424h985v-211h-985v-465h985v-211h-1196z" />
<glyph unicode="F" horiz-adv-x="1300" d="M0 0v1522h1202v-211h-991v-422h991v-211h-991v-678h-211z" />
<glyph unicode="G" horiz-adv-x="1572" d="M0 760q0 152 59 295q59 137 162 239q109 109 240 162q143 59 295 60q201 0 377 -101q168 -96 270 -264l31 -51h-242l-10 12q-78 96 -189.5 148.5t-236.5 52.5q-115 0 -215.5 -43t-176 -119t-118.5 -176.5t-43 -214.5q0 -115 43 -215.5t118.5 -176t176 -118.5t215.5 -43 q84 0 162.5 24.5t145 68.5t119 106.5t83.5 140.5h-299v205h526v-197q-16 -53 -45 -107.5t-59 -101.5q-70 -106 -166 -180q-98 -78 -215 -119q-121 -43 -252 -43q-152 0 -295 59q-137 59 -240 162q-102 102 -162 240q-59 143 -59 295z" />
<glyph unicode="H" horiz-adv-x="1361" d="M0 0v1522h211v-637h879v637h213v-1522h-213v672h-879v-672h-211z" />
<glyph unicode="I" horiz-adv-x="688" d="M0 0v213h219v1096h-219v213h639v-213h-219v-1096h219v-213h-639z" />
<glyph unicode="J" horiz-adv-x="1388" d="M0 600h213l6 -27q16 -80 57 -147.5t99.5 -114.5t132.5 -73.5t156 -26.5q94 0 178 35t147.5 96t99 143t35.5 174v21v14v13v596h-336v217h545v-861q0 -135 -52 -254.5t-143 -209t-213 -141.5t-259 -52q-121 0 -232.5 41t-204.5 119q-92 78 -149 180t-74 219z" />
<glyph unicode="K" horiz-adv-x="1865" d="M6 0v1522h209v-713l1188 713h405l-1323 -797l1205 -659l118 -66h-135h-297l-1097 600l-64 -37v-563h-209z" />
<glyph unicode="L" horiz-adv-x="1185" d="M0 0v1522h215v-1307h881v-215h-1096z" />
<glyph unicode="M" horiz-adv-x="1851" d="M6 0v1522h199l14 -27l666 -1253l667 1253l13 27h198v-1522h-211v1042l-559 -1042h-215l-561 1051v-1051h-211z" />
<glyph unicode="N" horiz-adv-x="1566" d="M0 0v1522h162h28l21 -23l1055 -1163v1186h211v-1522h-164h-29l-18 20l-1055 1166v-1186h-211z" />
<glyph unicode="O" horiz-adv-x="1581" d="M6 762q0 158 60 295q29 68 68.5 127t92.5 112t113.5 93.5t128.5 68.5q143 59 295 60q154 0 295 -60q68 -29 128 -68.5t113 -93.5q109 -109 162 -239q59 -137 60 -295q0 -158 -60 -295q-53 -131 -162 -240q-106 -106 -241 -161q-70 -31 -143.5 -45.5t-151.5 -14.5 q-158 0 -295 60q-135 55 -242 161q-109 109 -161 240q-59 137 -60 295zM209 762q0 -115 44 -215.5t118.5 -176t176 -118.5t216.5 -43t216 43t176 118.5t119 176t44 215.5t-44 215t-119 176t-176 119t-216 43t-216.5 -43t-176 -119t-118.5 -176t-44 -215z" />
<glyph unicode="P" horiz-adv-x="1363" d="M-2 4v1514h848q2 0 21.5 -1t51 -7.5t71.5 -18.5t83 -35q39 -20 81 -53t75 -82t54.5 -116.5t21.5 -155.5q0 -90 -21.5 -159t-55.5 -119t-76 -85t-81 -57q-43 -25 -83 -38t-72.5 -20.5t-52 -9.5t-21.5 -2h-2h-631v-555h-211zM209 782h635q8 2 44 11.5t77 35.5 q116 75 116 229q0 159 -114 220q-43 25 -81 30t-42 5h-635v-531z" />
<glyph unicode="Q" horiz-adv-x="1626" d="M2 758q0 152 59 295q57 133 164 239q106 106 240 164q143 59 295 60q154 0 295 -60q137 -59 241 -164q109 -109 162 -239q59 -137 60 -295q0 -129 -42 -250t-122 -223l213 -283h-262l-232 307l66 49q84 78 128 180.5t44 219.5q0 113 -43 213t-119 175t-176.5 118 t-212.5 43q-115 0 -214.5 -43t-174 -118t-117.5 -175.5t-43 -212.5q0 -115 43 -214.5t117.5 -175t174 -118.5t214.5 -43q127 0 241 55l107 -178q-162 -84 -348 -84q-158 0 -295 59q-131 53 -240 162q-104 104 -164 242q-59 141 -59 295z" />
<glyph unicode="R" horiz-adv-x="1409" d="M-2 2v1518h917q84 -6 159 -42t132 -96q121 -127 121 -295q0 -80 -29.5 -153.5t-83.5 -132.5q-47 -49 -105 -83t-124 -50l315 -666h-235l-309 653h-545v-653h-213zM211 866h698q43 6 80 25.5t64.5 48.5t43 66.5t15.5 80.5t-17.5 83t-47 70t-69.5 48.5t-87 20.5h-680v-443z " />
<glyph unicode="S" horiz-adv-x="1433" d="M2 397v29h199l2 -27q0 -41 16.5 -77.5t44 -63.5t63 -42t76.5 -15h29h461h29h8q84 0 142 58t58 142v7v4v2v2v2v2v2v2v2q0 2 -2 2v2v4q0 4 -2 8v2v2v5h-2v2v2v2l-2 2v4q-2 2 -2 4t-2 4v2q0 2 -1 3t-1 3l-2 2v2q0 2 -2 2v2q0 2 -2 5q0 2 -2 2q0 6 -6 12v2l-2 2q0 2 -2 2v2 l-2 2q0 2 -1 2t-1 2q-4 4 -4 6q-2 0 -2.5 1t-2.5 1v2l-2 2l-2 3l-2 2q0 2 -2 2q0 2 -1 2t-1 2l-2 2h-2l-6 6l-2 2v2q-2 0 -4 2l-2 2h-2q0 2 -2 2l-2 2l-2 2q-2 0 -7 4l-2 2h-2l-2 2h-2v2h-2q-2 2 -4 3q-4 4 -6 4l-8 4q-2 0 -4 2l-4 2l-5 2h-4q-2 2 -8 2q-2 2 -4 2t-4 2h-2 h-2q-2 0 -4 2h-2q-61 16 -287 59q-14 4 -28.5 6.5t-28.5 6.5h-4q-29 6 -55.5 11t-55.5 9l-41 8q-6 0 -12 2h-8q-2 0 -5 3q-23 4 -40 7t-33 7q-20 4 -34.5 6t-25.5 4l-2 -2l-18 6q-61 16 -114.5 53t-94.5 88q-82 111 -82 244q0 80 29.5 152.5t85.5 130.5q115 115 278 121h8 h527q6 0 12 -1t12 -1q150 -10 258 -115q51 -51 82 -116.5t35 -137.5l4 -31h-200l-3 25q-10 72 -63 122t-125 54h-4h-8h-8h-510h-9h-8q-82 -4 -137 -61.5t-55 -141.5v-4v-6v-4v-2v-2v-4v-2q2 0 2 -2v-2v-3v-4q0 -2 2 -4v-2v-2v-2q0 -2 2 -2v-2v-2q0 -2 2 -4v-2v-2l2 -4 t2 -7.5t2 -7.5q2 0 2 -4l2 -2v-2q2 0 2 -4q2 -2 2 -4l2 -2v-2l2 -2l2 -2v-2l2 -2v-2h3v-2l2 -2q0 -2 2 -2v-3l2 -2v-2q2 0 2 -1t2 -1q0 -2 1 -2t1 -2q4 -4 6 -8l8 -8q2 0 2 -2h2q0 -2 2 -2v-2q2 0 2 -2l4 -2l2 -2h3q0 -2 2 -2l2 -3v-2h2h2v-2q2 0 2 -2h2l2 -2q2 0 2 -2 l22 -10q4 -4 7 -4l4 -2h2h2l2 -2h2l2 -2h2h2q2 0 2 -1t2 -1h4l2 -2h2h2q2 0 2 -2h2h5h4l4 -2h6h4l4 -2h2q8 -2 32.5 -5.5t61.5 -9.5t82 -14t97 -17q4 -2 10 -2q6 -2 16 -2q240 -47 354 -80q61 -18 114.5 -54t92.5 -89q82 -106 82 -244q0 -84 -31.5 -156.5t-86 -127t-128 -86 t-155.5 -31.5h-527h-8q-80 4 -150.5 33.5t-125.5 87.5q-55 55 -85 126.5t-32 149.5z" />
<glyph unicode="T" horiz-adv-x="1261" d="M0 1313v209h1198v-209h-496v-1313h-206v1313h-496z" />
<glyph unicode="U" horiz-adv-x="1415" d="M0 657v865h209v-815l2 -11v-37q2 -94 38 -176t97.5 -143t144 -96t177.5 -35q94 0 178 35t147.5 96t99 143t35.5 174v23q0 4 1 7t1 7v13v815h209v-863q0 -137 -53 -256.5t-143 -209t-213 -141.5t-260 -52q-139 0 -260 51q-121 49 -213 142q-94 90 -144 208 q-53 125 -53 256z" />
<glyph unicode="V" horiz-adv-x="1536" d="M0 1522h231l504 -1213l504 1213h231l-632 -1522h-205z" />
<glyph unicode="W" horiz-adv-x="1980" d="M0 1516h229l500 -1203l117 281l-123 295l-21 49h232l18 -49l9 -19l8 19l18 47h230l-19 -47l-123 -295l117 -281l500 1203h229l-627 -1510h-213v21l-120 290l-130 -311h-204z" />
<glyph unicode="X" d="M0 1522h244l325 -557l328 557h244l-449 -766l443 -756h-244l-322 547l-319 -547h-244l443 756z" />
<glyph unicode="Y" d="M0 1522h268l430 -553l430 553h269l-590 -758v-764h-213v758z" />
<glyph unicode="Z" d="M0 0v195l1182 1118h-1182v209h1516v-185l-19 -16l-1178 -1112h1203v-209h-1522z" />
<glyph unicode="[" horiz-adv-x="421" d="M16 -168v1583h355v-256h-148v-1071h148v-256h-355z" />
<glyph unicode="\" horiz-adv-x="1556" d="M20 1511l209 15l1131 -1682l-209 -14z" />
<glyph unicode="]" horiz-adv-x="409" d="M16 88h148v1071h-148v256h355v-1583h-355v256z" />
<glyph unicode="^" horiz-adv-x="1556" d="M240 836l454 684h142l454 -684l-28 -43h-146l-350 536l-352 -536h-146z" />
<glyph unicode="_" horiz-adv-x="1849" d="M0 -238h1683v-208h-1683v208z" />
<glyph unicode="`" horiz-adv-x="1359" d="M494 1550v80l172 2l129 -291v-86h-146z" />
<glyph unicode="a" horiz-adv-x="1271" d="M0 598v8v6v17v18v4v8v3q0 10 2 16v8v6v2v6q0 2 1 3.5t1 3.5v14q16 98 58 186t114 166q176 186 424 187q250 -1 426 -187q174 -180 174 -444v-629h-207v152q-29 -25 -59.5 -47.5t-63.5 -38.5q-66 -33 -132 -50.5t-138 -17.5q-246 0 -424 188q-72 70 -112.5 155t-57.5 183 q0 8 -2 17v10q0 4 -1 6t-1 4v4v2v6v9v2q-2 4 -2 14zM207 629q0 -170 117 -299q116 -123 276 -123q162 0 279 123q109 115 114 276v2v8v13v12v8q-6 160 -114 279q-119 123 -279 123t-276 -123q-117 -129 -117 -299z" />
<glyph unicode="b" horiz-adv-x="1239" d="M0 604v991h201v-546q43 47 102 81q125 80 275 80q241 0 411 -178q168 -174 168 -430q0 -252 -168 -426q-168 -180 -409 -180q-244 0 -412 180q-168 174 -168 428zM228.5 448.5q27.5 -71.5 84.5 -131.5q109 -120 265 -120t266 120q110 116 110 284v3q0 168 -110 289 q-113 117 -266 117q-154 0 -265 -117q-112 -118 -112 -286q0 -87 27.5 -158.5z" />
<glyph unicode="c" horiz-adv-x="1275" d="M0 629q0 262 176 448t428 187q188 0 342 -113q152 -111 217 -289l25 -63h-223l-13 26q-51 104 -143 166q-96 61 -205 62q-164 0 -276 -123q-117 -123 -117 -299t117 -301q113 -123 276 -123q113 0 207 63q94 66 143 170l13 27h223l-23 -64q-68 -182 -219 -292 q-152 -113 -344 -113q-254 0 -428 186q-176 182 -176 445z" />
<glyph unicode="d" horiz-adv-x="1222" d="M0 602q0 256 168 430q168 178 412 178q147 0 274 -80q59 -35 102 -81v546h201v-991q0 -254 -168 -428q-168 -180 -411 -180q-242 0 -410 180q-168 174 -168 426zM203 604q0 -170 110 -287q111 -120 267 -120t264 120q57 59 84.5 131t27.5 156q0 170 -112 289 q-111 117 -264 117q-154 0 -267 -117q-111 -121 -110 -289z" />
<glyph unicode="e" horiz-adv-x="1275" d="M0 629q0 262 176 448t428 187q250 0 426 -187q176 -186 176 -444v-47h-993q12 -147 115 -256q113 -123 276 -123q111 0 203 61q92 59 143 166l13 27h225l-25 -64q-66 -178 -217 -288q-152 -111 -342 -111q-254 0 -428 186q-176 182 -176 445zM240 795h727 q-41 100 -123 170q-106 88 -242 88q-134 0 -240 -88q-82 -70 -122 -170z" />
<glyph unicode="f" horiz-adv-x="700" d="M0 0v979q0 254 170 434q172 178 416 178h45v-200h-45q-123 0 -224 -78q-90 -74 -135 -187q0 -6 -2 -8h418v-203h-438v-915h-205z" />
<glyph unicode="g" horiz-adv-x="1300" d="M0 537q0 262 176 448t426 186q252 0 428 -186t176 -446v-408q0 -264 -176 -446q-174 -186 -426 -187q-104 0 -198 35l-25 8v236l53 -29q82 -41 170 -41q162 0 277 123q98 104 112 242q-41 -41 -102 -80q-133 -86 -287 -86q-254 0 -428 186q-10 6 -16 17l-6 6l-2 2 q0 2 -1 2t-1 2q-4 4 -5 6q-8 8 -10 12q-18 23 -33.5 46.5t-29.5 47.5q0 2 -1 3.5t-1 3.5q-2 2 -2 3t-2 3q0 4 -5 8q0 2 -1 3t-1 5q-59 129 -59 275zM211 539q0 -176 117 -299q112 -123 276 -123q162 0 277 123q116 122 116 296q0 179 -116 302q-115 123 -277 123 q-164 0 -276 -123q-117 -123 -117 -299z" />
<glyph unicode="h" horiz-adv-x="1146" d="M0 0v1587h205v-504q33 29 71 54q111 63 254 63q236 0 381 -158q144 -153 148 -405v-637h-203v627v16v2v2v2v6v4q-10 154 -86 242q-84 96 -240 96t-239 -96q-86 -102 -86 -274v-627h-205z" />
<glyph unicode="i" horiz-adv-x="245" d="M0 -4v1169h195v-1169h-195zM0 1290v297h195v-297h-195z" />
<glyph unicode="j" horiz-adv-x="512" d="M-37 -291h47q98 0 170 72t72 170v1182h211v-1182q0 -186 -133 -320q-133 -133 -320 -133h-47v211zM252 1260v307h211v-307h-211z" />
<glyph unicode="k" horiz-adv-x="1116" d="M0 0v1579h203v-791l530 373h338l-825 -579l837 -582h-335l-545 373v-373h-203z" />
<glyph unicode="l" horiz-adv-x="256" d="M0 0v1585h205v-1585h-205z" />
<glyph unicode="m" horiz-adv-x="1615" d="M0 -2v770q0 182 129 311t311 129q117 0 219 -65q68 -43 119 -107q27 31 55.5 57.5t63.5 49.5q100 65 216 65h3q184 0 314 -129q129 -133 129 -311v-770h-207v770q0 98 -70 168q-68 68 -166 68t-166 -70q-70 -68 -69 -166v-770h-203v770q0 94 -70 168q-72 68 -168 68 q-98 0 -166 -68q-70 -74 -69 -168v-770h-205z" />
<glyph unicode="n" horiz-adv-x="1120" d="M0 0v637q0 256 145 418q147 164 394 164q244 0 391 -164q145 -162 145 -418v-637h-205v637q0 176 -88 276q-90 100 -243 101q-154 0 -242 -101q-90 -100 -90 -276v-637h-207z" />
<glyph unicode="o" horiz-adv-x="1216" d="M0 610q0 254 170 434q172 182 416 183q243 -1 415 -183q170 -180 170 -434q0 -252 -170 -432q-172 -180 -415 -180q-244 0 -416 180q-170 180 -170 432zM317 322q111 -119 269 -119q160 0 270 119q113 123 113 290q0 168 -113 291q-113 119 -270 119q-156 0 -269 -119 q-112 -122 -112 -288q0 -171 112 -293z" />
<glyph unicode="p" horiz-adv-x="1243" d="M0 -406v981q0 252 166 424q168 178 407 179q236 0 406 -179q166 -172 166 -421q0 -252 -166 -426q-170 -176 -408 -177q-147 0 -272 80q-55 35 -100 80v-541h-199zM309 291q111 -117 262 -117q152 0 265 117q109 119 108 284q0 166 -108 285q-113 119 -265 119 q-154 0 -262 -119q-110 -116 -110 -282q0 -171 110 -287z" />
<glyph unicode="q" horiz-adv-x="1222" d="M0 578q0 250 166 421q168 178 405 179q238 0 408 -179q166 -172 166 -424v-981h-199v541q-45 -45 -100 -80q-127 -80 -273 -80q-237 1 -407 177q-166 174 -166 426zM309 291q113 -117 264 -117q152 0 263 117t110 284q0 168 -110 285q-109 119 -263 119q-152 0 -264 -119 q-108 -118 -108 -282q0 -169 108 -287z" />
<glyph unicode="r" horiz-adv-x="667" d="M0 2v584q0 250 168 428t412 178h45v-201h-45q-156 0 -267 -119q-111 -117 -110 -286v-584h-203z" />
<glyph unicode="s" horiz-adv-x="942" d="M0 358v45h209v-45q0 -63 67 -112q76 -51 166 -51q96 0 170 49q66 43 66 104q0 82 -135 141q-31 12 -117 37q-45 14 -82 26.5t-65 25.5l-3 2q-168 78 -223 204q-24 54 -24.5 111t24.5 117q43 102 154 164q106 59 235 59q178 0 293 -100q123 -102 123 -254v-47h-211v47 q0 68 -55 110q-66 47 -150 47q-63 0 -118 -22q-49 -23 -70 -60q-16 -30 -16 -57q0 -48 49 -86q70 -57 219 -98l12 -4l2 -2q4 0 21 -7q16 -4 30.5 -9t28.5 -9q27 -8 72 -29q23 -10 42 -21t36 -24q70 -51 102 -112q35 -64 35 -140q0 -80 -37 -147q-33 -63 -105 -115 q-133 -94 -303 -94q-168 0 -301 94q-70 49 -104 115q-37 68 -37 147z" />
<glyph unicode="t" horiz-adv-x="841" d="M0 965v202h113v418h206v-422h429v-202h-429v-381q0 -174 113 -293q111 -121 270 -121h46v-203h-46q-244 0 -417 180q-172 182 -172 437v385h-113z" />
<glyph unicode="u" horiz-adv-x="1132" d="M0 575v627h207v-627q0 -168 80 -266q85 -108 247 -108h3q156 0 245 100q86 100 86 274v627h205v-1202h-205v100q-137 -106 -331 -106q-256 0 -406 178q-131 158 -131 403z" />
<glyph unicode="v" horiz-adv-x="1265" d="M0 1176h215l395 -897l398 897h215l-523 -1178h-178z" />
<glyph unicode="w" horiz-adv-x="1812" d="M0 1190h217l399 -907l162 364l-237 543h215l401 -907l402 907h217l-529 -1188h-180l-180 404l-178 -404h-183z" />
<glyph unicode="x" horiz-adv-x="1239" d="M0 0l469 592l-469 590h260l338 -426l340 426h258l-467 -590l467 -592h-258l-340 430l-338 -430h-260z" />
<glyph unicode="y" horiz-adv-x="1294" d="M0 1169h225l400 -903l401 903h227l-725 -1634h-227l211 475z" />
<glyph unicode="z" horiz-adv-x="1189" d="M0 -2l752 971h-668v196h1075l-753 -970h665v-197h-1071z" />
<glyph unicode="{" horiz-adv-x="727" d="M0 565v228h74q47 0 67 38q20 47 21 130v276q0 51 7 116.5t38 123.5q72 127 237 127q51 0 117 -13l60 -12v-215l-84 12q-41 6 -66 6q-27 0 -37 -4t-14 -10q-20 -27 -21 -131v-276q0 -47 -4 -96.5t-20 -96.5q-16 -49 -53 -88q35 -35 53 -88q16 -47 20 -97.5t4 -97.5v-301 q0 -92 17 -121q4 -4 11 -9t36 -5q33 0 72 8l86 15v-230l-64 -8q-31 -4 -58.5 -7t-52.5 -3q-162 0 -231 104q-29 41 -41 102.5t-12 153.5v301q0 84 -21 131q-20 37 -67 37h-74z" />
<glyph unicode="|" horiz-adv-x="522" d="M160 -195v1684h209v-1684h-209z" />
<glyph unicode="}" horiz-adv-x="698" d="M0 -16l86 -15q39 -8 72 -8q29 0 36 5t11 9q16 29 16 121v301q0 47 4 97.5t21 97.5q18 53 53 88q-37 39 -53 88q-16 47 -20.5 96t-4.5 97v276q0 104 -20 131q-4 6 -14.5 10t-36.5 4q-27 0 -66 -6l-84 -12v215l59 12q63 12 117 13q166 0 238 -127q31 -57 38 -123t7 -117 v-276q0 -82 20 -130q20 -39 68 -38h74v-228h-74q-47 0 -68 -37q-20 -47 -20 -131v-301q0 -92 -12.5 -153.5t-40.5 -102.5q-35 -53 -91.5 -78.5t-140.5 -25.5q-25 0 -52.5 3t-58.5 7l-63 8v230z" />
<glyph unicode="~" horiz-adv-x="1445" d="M170 379l12 33q47 106 125 166q82 66 185 65q86 0 176 -49l209 -119q59 -33 108 -33q82 0 121 111l12 35l154 -60l-12 -32q-41 -111 -113 -169.5t-166 -58.5q-84 0 -168 45h-2l-223 129q-49 25 -96 25q-53 0 -97.5 -32t-66.5 -89l-17 -37z" />
<glyph unicode="&#xa1;" horiz-adv-x="331" d="M0 8h268l-30 1166h-209zM23 1327h217v195h-217v-195z" />
<glyph unicode="&#xa2;" horiz-adv-x="1275" d="M0 629q0 262 176 448t428 187q188 0 342 -113q152 -111 217 -289l25 -63h-223l-13 26q-51 104 -143 166q-96 61 -205 62q-164 0 -276 -123q-117 -123 -117 -299t117 -301q113 -123 276 -123q113 0 207 63q94 66 143 170l13 27h223l-23 -64q-68 -182 -219 -292 q-152 -113 -344 -113q-254 0 -428 186q-176 182 -176 445zM532 -195v1684h209v-1684h-209z" />
<glyph unicode="&#xa3;" horiz-adv-x="1185" d="M0 0v1522h215v-1307h881v-215h-1096zM47 981v209h1094v-209h-1094z" />
<glyph unicode="&#xa4;" />
<glyph unicode="&#xa5;" />
<glyph unicode="&#xa6;" d="M539 -330v729h188v-729l-188 729h188v-729h-188zM539 610v729h188v-729h-188zM539 610v729h188v-729h-188z" />
<glyph unicode="&#xa8;" horiz-adv-x="1404" d="M367 1352v250h249v-250h-249zM750 1350v249h249v-249h-249z" />
<glyph unicode="&#xa9;" d="M481 672q0 90 34 169t92.5 137t136 92t167.5 34t169 -34t137.5 -92t92 -137t33.5 -169t-33.5 -168t-92 -136.5t-137.5 -92t-169 -33.5t-167.5 33.5t-136 92t-92.5 136.5t-34 168zM561 672q0 -72 27.5 -136.5t75 -111.5t111.5 -74.5t136 -27.5q74 0 137.5 27.5t111.5 74.5 t76 111.5t28 136.5q0 74 -28 137t-76 111.5t-111.5 76t-137.5 27.5q-72 0 -136 -27.5t-111.5 -76t-75 -112t-27.5 -136.5zM655 668q0 53 20.5 100t55.5 83t83 56.5t101 20.5q70 0 129 -35q57 -33 95 -92l14 -25h-92l-4 6q-55 68 -142 68q-76 0 -129 -53.5t-53 -128.5 q0 -76 53.5 -129.5t128.5 -53.5q59 0 108.5 35t66.5 94l4 11h80l-7 -21q-23 -86 -91 -141t-161 -55q-53 0 -101 20.5t-83 55t-55.5 82.5t-20.5 102z" />
<glyph unicode="&#xaa;" horiz-adv-x="1271" d="M160 602v4v2v8v8v1v4v1q0 5 1 7v4v3v0v3q0 1 0.5 1.5t0.5 1.5v6q7 44 25.5 82.5t50.5 73.5q78 82 187 82q111 0 188 -82q77 -80 77 -196v-278h-91v67q-13 -11 -26.5 -21t-27.5 -17q-30 -14 -59 -22t-61 -8q-109 0 -187 83q-32 31 -50 68.5t-25 80.5q0 4 -1 8v4 q0 2 -0.5 3t-0.5 2v1v1v3v4v1q-1 2 -1 6zM251 616q0 -75 52 -132q51 -55 122 -55q72 0 123 55q49 50 51 122v0v4v6v5v4q-3 70 -51 123q-52 54 -123 54t-122 -54q-52 -57 -52 -132z" />
<glyph unicode="&#xad;" horiz-adv-x="1318" d="M86 559v209h1094v-209h-1094z" />
<glyph unicode="&#xae;" horiz-adv-x="929" d="M-16 662q0 88 33.5 166.5t92 138t136.5 93.5t168 34t169 -34t137 -93.5t92 -138t34 -166.5q0 -90 -34 -168t-92 -136.5t-137 -92.5t-169 -34t-168 34t-136.5 92.5t-92 136t-33.5 168.5zM63 662q0 -72 28 -136.5t75 -111.5t111.5 -75t136.5 -28q74 0 137 28t111.5 75 t76 111.5t27.5 136.5q0 74 -27.5 137t-76 111t-112 76t-136.5 28q-72 0 -136.5 -28t-111.5 -76t-75 -111.5t-28 -136.5zM219 424v506h283q2 0 25.5 -3t52.5 -18q27 -14 52 -46t25 -93q0 -37 -11 -63.5t-28.5 -45t-37 -28.5t-35.5 -17l112 -192h-82l-110 182h-170v-182h-76z M295 686h207q2 0 14 4t26.5 13.5t25 27t10.5 45.5q0 49 -37 68q-14 8 -25.5 9t-13.5 1h-207v-168z" />
<glyph unicode="&#xb0;" horiz-adv-x="1325" d="M444 1044q0 47 15.5 88.5t44.5 75.5q74 74 184 74q115 0 184 -74q61 -68 62 -164q0 -100 -62 -163q-67 -74 -184 -74q-115 0 -184 74q-29 33 -44.5 74.5t-15.5 88.5zM563 1047q0 -47 31 -88t96 -41q66 0 96.5 39.5t30.5 86.5t-31.5 87t-97.5 40t-95.5 -38.5t-29.5 -85.5z " />
<glyph unicode="&#xb1;" d="M221 0v117h811v-117h-811zM244 510v152h778v-152h-778zM569 186v811h140v-811h-140z" />
<glyph unicode="&#xb2;" horiz-adv-x="940" d="M132 744v25v1q3 30 16 56.5t35 47.5q22 20 50.5 31.5t58.5 11.5q33 0 62 -12.5t53 -35.5q22 -23 34 -52t12 -61q0 -33 -12 -62t-34 -52q-41 -42 -100 -47l-13 -1q-32 0 -54.5 -22t-22.5 -53v-105h236v-85h-320v190q0 31 12 60t34 52q43 42 100 47l13 1q16 0 30 6t24.5 16 t16.5 24.5t6 30.5q0 15 -6 29t-16.5 24.5t-24.5 16.5t-30 6q-28 0 -49.5 -18.5t-25.5 -45.5v-24h-85z" />
<glyph unicode="&#xb3;" horiz-adv-x="917" d="M106 788l2 15q2 31 15.5 59.5t37.5 50.5q23 21 52.5 33t61.5 12q34 0 65 -13.5t54 -36.5q24 -24 37 -54.5t13 -64.5q0 -41 -18.5 -76.5t-50.5 -59.5q32 -24 50.5 -59.5t18.5 -76.5q0 -35 -13.5 -65.5t-36.5 -53.5t-53.5 -36t-65.5 -13q-33 0 -64 12.5t-54 35.5 q-24 24 -36.5 54.5t-13.5 64.5v14h86v-14q0 -16 7 -31t18 -26t26 -17t31 -6q17 0 32 6.5t26 17.5t17.5 25.5t6.5 31.5q0 18 -6.5 32.5t-17.5 25.5t-26 17.5t-32 6.5l-14 1v107h14q17 0 32 6.5t26 17.5t17.5 25.5t6.5 32.5q0 17 -6.5 32t-17.5 26t-26 17.5t-32 6.5 q-31 0 -54 -20.5t-27 -50.5l-2 -12h-86z" />
<glyph unicode="&#xb4;" horiz-adv-x="1017" d="M348 1260v86l129 290l172 -2v-80l-155 -294h-146z" />
<glyph unicode="&#xb5;" d="M0 575v627h207v-627q0 -168 80 -266q86 -109 250 -108q156 0 245 100q86 100 86 274v627h205v-1202h-205v100q-137 -106 -331 -106q-256 0 -406 178q-131 158 -131 403zM6 -479v1683h209v-1683h-209z" />
<glyph unicode="&#xb7;" d="M586 487v293h213v-293h-213z" />
<glyph unicode="&#xb8;" horiz-adv-x="1583" d="M487 -432l9 104q37 4 81 18.5t80.5 35t59 45t16.5 49.5t-36.5 34t-65.5 9q-41 0 -90 -6l59 135l21 49l104 -16l-12 -43q72 -20 107.5 -43t51.5 -45q18 -25 21 -50q8 -43 -5.5 -77.5t-40 -62.5t-64.5 -49.5t-76 -35.5q-94 -37 -220 -51z" />
<glyph unicode="&#xb9;" horiz-adv-x="350" d="M45 894v83h104v-596h-82v513h-22z" />
<glyph unicode="&#xba;" horiz-adv-x="1216" d="M173 653q0 126 84 215q86 90 207 90t206 -90q84 -89 84 -215q0 -125 -84 -214q-85 -89 -206 -89t-207 89q-84 89 -84 214zM275 654q0 -83 55 -144q56 -59 134 -59q79 0 134 59q56 61 56 144t-56 144q-56 59 -134 59q-77 0 -134 -59q-56 -61 -55 -144z" />
<glyph unicode="&#xbc;" horiz-adv-x="2088" d="M0 1309v213h266v-1522h-211v1309h-55zM268 -129l938 1727l211 -7l-938 -1726zM1231 709l4 14l176 559l203 -63l-115 -361l56 27l8 4h188v633h211v-633h72v-213h-72v-676h-211v676h-141l-299 -139l-74 157z" />
<glyph unicode="&#xbd;" horiz-adv-x="2273" d="M0 1309v213h266v-1522h-211v1309h-55zM283 -86l938 1727l211 -7l-938 -1726zM1350 1073v66v2q8 78 42 146.5t91 121.5t130 82t151 29q84 0 159.5 -32t135.5 -91q59 -59 89.5 -134t30.5 -159t-30.5 -159t-89.5 -134q-104 -109 -256 -121l-35 -2q-82 0 -139.5 -57.5 t-57.5 -138.5v-271h608v-219h-827v490q0 82 31 156.5t90 133.5q109 109 256 121l35 2q41 0 76.5 15.5t63.5 42t43 63.5t15 78t-15 77t-43 62.5t-63.5 41.5t-76.5 15q-72 0 -128.5 -47t-66.5 -118v-62h-219z" />
<glyph unicode="&#xbe;" horiz-adv-x="2717" d="M0 1098l4 39q6 78 40 149.5t93 124.5t133 83t154 30q86 0 163 -33t136 -92t92 -136t33 -163q0 -102 -46 -191.5t-126 -148.5q80 -59 126 -148.5t46 -191.5q0 -88 -34 -165t-91 -134.5t-134 -90t-165 -32.5q-84 0 -161 30.5t-136 90.5q-59 59 -91 135t-34 162v35h217v-35 q0 -41 17.5 -78t45 -64.5t64.5 -43t78 -15.5q43 0 81 16.5t65.5 44t44 64.5t16.5 80t-16.5 80t-44 64.5t-65.5 44t-81 16.5l-35 2v268h35q43 0 81 16.5t65.5 44t44 64.5t16.5 80t-16.5 81t-44 65.5t-65.5 44t-81 16.5q-78 0 -135.5 -51.5t-67.5 -127.5l-4 -30h-217z M711 -195l938 1727l211 -7l-938 -1726zM1726 695l4 14l176 559l203 -63l-115 -361l56 27l8 4h188v633h211v-633h72v-213h-72v-676h-211v676h-141l-299 -139l-74 157z" />
<glyph unicode="&#xbf;" horiz-adv-x="1077" d="M0 486q0 98 36.5 185t104.5 157q59 61 138 99t165 46v246h211v-447h-121v-4h-37q-59 0 -111.5 -22.5t-90 -60.5t-60 -89t-22.5 -110q0 -57 22.5 -108.5t60 -89.5t90 -60.5t111.5 -22.5q53 0 100.5 17.5t85.5 49t63.5 75.5t33.5 96l6 28h211l-4 -39q-10 -90 -51 -169.5 t-111 -139.5q-70 -61 -155 -94t-179 -33q-100 0 -190 37t-160 107q-72 70 -109.5 158.5t-37.5 187.5zM444 1317v213h211v-213h-211z" />
<glyph unicode="&#xc0;" horiz-adv-x="1867" d="M0 0l772 1495l14 27h33h74h74h32l15 -27l772 -1495h-236l-278 541h-758l-278 -541h-236zM623 752h540l-270 522zM637 1886v80l172 2l129 -291v-86h-146z" />
<glyph unicode="&#xc1;" horiz-adv-x="1867" d="M0 0l772 1495l14 27h33h74h74h32l15 -27l772 -1495h-236l-278 541h-758l-278 -541h-236zM623 752h540l-270 522zM911 1582v86l129 290l172 -2v-80l-155 -294h-146z" />
<glyph unicode="&#xc2;" horiz-adv-x="1867" d="M0 0l772 1495l14 27h33h74h74h32l15 -27l772 -1495h-236l-278 541h-758l-278 -541h-236zM614 1632l240 363h92l241 -363l-28 -39h-92l-166 254l-166 -254h-94zM623 752h540l-270 522z" />
<glyph unicode="&#xc3;" horiz-adv-x="1867" d="M0 0l772 1495l14 27h33h74h74h32l15 -27l772 -1495h-236l-278 541h-758l-278 -541h-236zM512 1620l8 25q33 78 88 121q57 47 129 47q59 0 125 -37l145 -86q43 -23 78 -23q57 0 84 80l10 25l107 -43l-8 -23q-60 -166 -197 -166q-59 0 -117 33h-2l-157 94q-37 16 -68 17 q-37 0 -67.5 -22.5t-47.5 -63.5l-12 -27zM623 752h540l-270 522z" />
<glyph unicode="&#xc4;" horiz-adv-x="1867" d="M0 0l772 1495l14 27h33h74h74h32l15 -27l772 -1495h-236l-278 541h-758l-278 -541h-236zM580 1573v250h249v-250h-249zM623 752h540l-270 522zM963 1571v249h249v-249h-249z" />
<glyph unicode="&#xc5;" horiz-adv-x="1867" d="M0 0l772 1495l14 27h33h74h74h32l15 -27l772 -1495h-236l-278 541h-758l-278 -541h-236zM623 752h540l-270 522zM651 1800q0 47 15.5 88t44.5 76q74 74 184 74q115 0 184 -74q61 -68 62 -164q0 -100 -62 -164q-67 -74 -184 -74q-115 0 -184 74q-29 33 -44.5 75t-15.5 89z M770 1802q0 -47 31 -88t96 -41q66 0 96.5 40t30.5 87t-31.5 87t-97.5 40t-95.5 -39t-29.5 -86z" />
<glyph unicode="&#xc6;" horiz-adv-x="3119" d="M0 0l772 1495l14 27h33h74h74h32l15 -27l772 -1495h-236l-278 541h-758l-278 -541h-236zM623 752h540l-270 522zM1579 0v1522h1196v-211h-985v-424h985v-211h-985v-465h985v-211h-1196z" />
<glyph unicode="&#xc7;" horiz-adv-x="1566" d="M-2 762q0 156 61 295q29 70 69 129t93 112q104 104 242 164q143 59 297 60q201 0 377 -101q172 -96 272 -266l33 -53h-244l-10 14q-80 96 -191.5 148.5t-236.5 52.5q-115 0 -216.5 -44t-177 -119t-119.5 -176t-44 -216t44 -216.5t119.5 -177t177 -118.5t216.5 -43 q92 0 176 28.5t153.5 80t122 123t78.5 159.5l8 25h209l-10 -43q-33 -127 -100 -232q-70 -106 -166 -182q-98 -78 -217 -121q-123 -43 -254 -43q-154 0 -297 59q-68 29 -128.5 69t-113.5 93t-93 113.5t-69 128.5q-61 141 -61 297zM559 -432l9 104q37 4 81 18.5t80.5 35t59 45 t16.5 49.5t-36.5 34t-65.5 9q-41 0 -90 -6l59 135l21 49l104 -16l-12 -43q72 -20 107.5 -43t51.5 -45q18 -25 21 -50q8 -43 -5.5 -77.5t-40 -62.5t-64.5 -49.5t-76 -35.5q-94 -37 -220 -51z" />
<glyph unicode="&#xc8;" horiz-adv-x="1251" d="M0 0v1522h1196v-211h-985v-424h985v-211h-985v-465h985v-211h-1196zM410 1888v80l172 2l129 -291v-86h-146z" />
<glyph unicode="&#xc9;" horiz-adv-x="1251" d="M0 0v1522h1196v-211h-985v-424h985v-211h-985v-465h985v-211h-1196zM592 1596v86l129 290l172 -2v-80l-155 -294h-146z" />
<glyph unicode="&#xca;" horiz-adv-x="1251" d="M0 0v1522h1196v-211h-985v-424h985v-211h-985v-465h985v-211h-1196zM338 1632l240 363h92l241 -363l-28 -39h-92l-166 254l-166 -254h-94z" />
<glyph unicode="&#xcb;" horiz-adv-x="1251" d="M0 0v1522h1196v-211h-985v-424h985v-211h-985v-465h985v-211h-1196zM299 1618v250h249v-250h-249zM682 1616v249h249v-249h-249z" />
<glyph unicode="&#xcc;" horiz-adv-x="688" d="M0 0v213h219v1096h-219v213h639v-213h-219v-1096h219v-213h-639zM119 1882v80l172 2l129 -291v-86h-146z" />
<glyph unicode="&#xcd;" horiz-adv-x="688" d="M0 0v213h219v1096h-219v213h639v-213h-219v-1096h219v-213h-639zM242 1579v86l129 290l172 -2v-80l-155 -294h-146z" />
<glyph unicode="&#xce;" horiz-adv-x="688" d="M0 0v213h219v1096h-219v213h639v-213h-219v-1096h219v-213h-639zM59 1632l240 363h92l241 -363l-28 -39h-92l-166 254l-166 -254h-94z" />
<glyph unicode="&#xcf;" horiz-adv-x="688" d="M0 0v213h219v1096h-219v213h639v-213h-219v-1096h219v-213h-639zM15 1641v250h249v-250h-249zM398 1639v249h249v-249h-249z" />
<glyph unicode="&#xd0;" horiz-adv-x="1548" d="M-432 670v209h1094v-209h-1094zM0 2v1518h737h4q147 0 285 -60q131 -57 234 -164q102 -104 157 -241q57 -143 58 -295q0 -150 -58 -293q-55 -137 -157 -242q-102 -106 -234 -164q-137 -59 -285 -59h-4h-737zM209 211h467h2q4 -2 16 -2t21 2h22q111 0 208 43t170 117.5 t115 174t42 214.5t-42 215t-115 175t-170 118t-208 43h-22q-6 0 -11.5 1t-9.5 1t-8 -1t-8 -1h-2h-467v-1100z" />
<glyph unicode="&#xd1;" horiz-adv-x="1566" d="M0 0v1522h162h28l21 -23l1055 -1163v1186h211v-1522h-164h-29l-18 20l-1055 1166v-1186h-211zM301 1665l8 25q33 78 88 121q57 47 129 47q59 0 125 -37l145 -86q43 -23 78 -23q57 0 84 80l10 25l107 -43l-8 -23q-60 -166 -197 -166q-59 0 -117 33h-2l-157 94 q-37 16 -68 17q-37 0 -67.5 -22.5t-47.5 -63.5l-12 -27z" />
<glyph unicode="&#xd2;" horiz-adv-x="1581" d="M6 762q0 158 60 295q29 68 68.5 127t92.5 112t113.5 93.5t128.5 68.5q143 59 295 60q154 0 295 -60q68 -29 128 -68.5t113 -93.5q109 -109 162 -239q59 -137 60 -295q0 -158 -60 -295q-53 -131 -162 -240q-106 -106 -241 -161q-70 -31 -143.5 -45.5t-151.5 -14.5 q-158 0 -295 60q-135 55 -242 161q-109 109 -161 240q-59 137 -60 295zM209 762q0 -115 44 -215.5t118.5 -176t176 -118.5t216.5 -43t216 43t176 118.5t119 176t44 215.5t-44 215t-119 176t-176 119t-216 43t-216.5 -43t-176 -119t-118.5 -176t-44 -215zM500 1878v80l172 2 l129 -291v-86h-146z" />
<glyph unicode="&#xd3;" horiz-adv-x="1581" d="M6 762q0 158 60 295q29 68 68.5 127t92.5 112t113.5 93.5t128.5 68.5q143 59 295 60q154 0 295 -60q68 -29 128 -68.5t113 -93.5q109 -109 162 -239q59 -137 60 -295q0 -158 -60 -295q-53 -131 -162 -240q-106 -106 -241 -161q-70 -31 -143.5 -45.5t-151.5 -14.5 q-158 0 -295 60q-135 55 -242 161q-109 109 -161 240q-59 137 -60 295zM209 762q0 -115 44 -215.5t118.5 -176t176 -118.5t216.5 -43t216 43t176 118.5t119 176t44 215.5t-44 215t-119 176t-176 119t-216 43t-216.5 -43t-176 -119t-118.5 -176t-44 -215zM797 1604v86 l129 290l172 -2v-80l-155 -294h-146z" />
<glyph unicode="&#xd4;" horiz-adv-x="1581" d="M6 762q0 158 60 295q29 68 68.5 127t92.5 112t113.5 93.5t128.5 68.5q143 59 295 60q154 0 295 -60q68 -29 128 -68.5t113 -93.5q109 -109 162 -239q59 -137 60 -295q0 -158 -60 -295q-53 -131 -162 -240q-106 -106 -241 -161q-70 -31 -143.5 -45.5t-151.5 -14.5 q-158 0 -295 60q-135 55 -242 161q-109 109 -161 240q-59 137 -60 295zM209 762q0 -115 44 -215.5t118.5 -176t176 -118.5t216.5 -43t216 43t176 118.5t119 176t44 215.5t-44 215t-119 176t-176 119t-216 43t-216.5 -43t-176 -119t-118.5 -176t-44 -215z" />
<glyph unicode="&#xd5;" horiz-adv-x="1581" d="M6 762q0 158 60 295q29 68 68.5 127t92.5 112t113.5 93.5t128.5 68.5q143 59 295 60q154 0 295 -60q68 -29 128 -68.5t113 -93.5q109 -109 162 -239q59 -137 60 -295q0 -158 -60 -295q-53 -131 -162 -240q-106 -106 -241 -161q-70 -31 -143.5 -45.5t-151.5 -14.5 q-158 0 -295 60q-135 55 -242 161q-109 109 -161 240q-59 137 -60 295zM209 762q0 -115 44 -215.5t118.5 -176t176 -118.5t216.5 -43t216 43t176 118.5t119 176t44 215.5t-44 215t-119 176t-176 119t-216 43t-216.5 -43t-176 -119t-118.5 -176t-44 -215zM389 1654l8 25 q33 78 88 121q57 47 129 47q59 0 125 -37l145 -86q43 -23 78 -23q57 0 84 80l10 25l107 -43l-8 -23q-60 -166 -197 -166q-59 0 -117 33h-2l-157 94q-37 16 -68 17q-37 0 -67.5 -22.5t-47.5 -63.5l-12 -27z" />
<glyph unicode="&#xd6;" horiz-adv-x="1581" d="M6 762q0 158 60 295q29 68 68.5 127t92.5 112t113.5 93.5t128.5 68.5q143 59 295 60q154 0 295 -60q68 -29 128 -68.5t113 -93.5q109 -109 162 -239q59 -137 60 -295q0 -158 -60 -295q-53 -131 -162 -240q-106 -106 -241 -161q-70 -31 -143.5 -45.5t-151.5 -14.5 q-158 0 -295 60q-135 55 -242 161q-109 109 -161 240q-59 137 -60 295zM209 762q0 -115 44 -215.5t118.5 -176t176 -118.5t216.5 -43t216 43t176 118.5t119 176t44 215.5t-44 215t-119 176t-176 119t-216 43t-216.5 -43t-176 -119t-118.5 -176t-44 -215zM459 1637v250h249 v-250h-249zM842 1635v249h249v-249h-249z" />
<glyph unicode="&#xd7;" horiz-adv-x="1396" d="M262 244l354 446l-354 447h197l256 -322l256 322h196l-354 -447l354 -446h-196l-256 323l-256 -323h-197z" />
<glyph unicode="&#xd8;" horiz-adv-x="1581" d="M6 762q0 158 60 295q29 68 68.5 127t92.5 112t113.5 93.5t128.5 68.5q143 59 295 60q154 0 295 -60q68 -29 128 -68.5t113 -93.5q109 -109 162 -239q59 -137 60 -295q0 -158 -60 -295q-53 -131 -162 -240q-106 -106 -241 -161q-70 -31 -143.5 -45.5t-151.5 -14.5 q-158 0 -295 60q-135 55 -242 161q-109 109 -161 240q-59 137 -60 295zM209 762q0 -115 44 -215.5t118.5 -176t176 -118.5t216.5 -43t216 43t176 118.5t119 176t44 215.5t-44 215t-119 176t-176 119t-216 43t-216.5 -43t-176 -119t-118.5 -176t-44 -215zM215 -211l938 1727 l211 -7l-938 -1726z" />
<glyph unicode="&#xd9;" horiz-adv-x="1415" d="M0 657v865h209v-815l2 -11v-37q2 -94 38 -176t97.5 -143t144 -96t177.5 -35q94 0 178 35t147.5 96t99 143t35.5 174v23q0 4 1 7t1 7v13v815h209v-863q0 -137 -53 -256.5t-143 -209t-213 -141.5t-260 -52q-139 0 -260 51q-121 49 -213 142q-94 90 -144 208 q-53 125 -53 256zM445 1814v80l172 2l129 -291v-86h-146z" />
<glyph unicode="&#xda;" horiz-adv-x="1415" d="M0 657v865h209v-815l2 -11v-37q2 -94 38 -176t97.5 -143t144 -96t177.5 -35q94 0 178 35t147.5 96t99 143t35.5 174v23q0 4 1 7t1 7v13v815h209v-863q0 -137 -53 -256.5t-143 -209t-213 -141.5t-260 -52q-139 0 -260 51q-121 49 -213 142q-94 90 -144 208 q-53 125 -53 256zM627 1565v86l129 290l172 -2v-80l-155 -294h-146z" />
<glyph unicode="&#xdb;" horiz-adv-x="1415" d="M0 657v865h209v-815l2 -11v-37q2 -94 38 -176t97.5 -143t144 -96t177.5 -35q94 0 178 35t147.5 96t99 143t35.5 174v23q0 4 1 7t1 7v13v815h209v-863q0 -137 -53 -256.5t-143 -209t-213 -141.5t-260 -52q-139 0 -260 51q-121 49 -213 142q-94 90 -144 208 q-53 125 -53 256zM342 1632l240 363h92l241 -363l-28 -39h-92l-166 254l-166 -254h-94z" />
<glyph unicode="&#xdc;" horiz-adv-x="1415" d="M0 657v865h209v-815l2 -11v-37q2 -94 38 -176t97.5 -143t144 -96t177.5 -35q94 0 178 35t147.5 96t99 143t35.5 174v23q0 4 1 7t1 7v13v815h209v-863q0 -137 -53 -256.5t-143 -209t-213 -141.5t-260 -52q-139 0 -260 51q-121 49 -213 142q-94 90 -144 208 q-53 125 -53 256zM392 1774v250h249v-250h-249zM775 1772v249h249v-249h-249z" />
<glyph unicode="&#xdd;" d="M0 1522h268l430 -553l430 553h269l-590 -758v-764h-213v758zM663 1606v86l129 290l172 -2v-80l-155 -294h-146z" />
<glyph unicode="&#xde;" horiz-adv-x="974" d="M-2 4v1071h600q2 0 51 -6t109 -37q29 -14 57.5 -37.5t52 -58.5t39 -82t15.5 -111q0 -63 -15.5 -112t-39 -85t-52.5 -60.5t-57 -39.5q-31 -16 -59.5 -26t-51 -15.5t-37.5 -6.5l-14 -1h-2h-447v-393h-149zM0 1071v285h156v-285h-156zM147 555h449q6 2 31.5 8t54.5 25 q82 55 82 164q0 111 -80 153q-31 16 -57.5 20.5t-30.5 4.5h-449v-375z" />
<glyph unicode="&#xe0;" horiz-adv-x="1271" d="M0 598v8v6v17v18v4v8v3q0 10 2 16v8v6v2v6q0 2 1 3.5t1 3.5v14q16 98 58 186t114 166q176 186 424 187q250 -1 426 -187q174 -180 174 -444v-629h-207v152q-29 -25 -59.5 -47.5t-63.5 -38.5q-66 -33 -132 -50.5t-138 -17.5q-246 0 -424 188q-72 70 -112.5 155t-57.5 183 q0 8 -2 17v10q0 4 -1 6t-1 4v4v2v6v9v2q-2 4 -2 14zM207 629q0 -170 117 -299q116 -123 276 -123q162 0 279 123q109 115 114 276v2v8v13v12v8q-6 160 -114 279q-119 123 -279 123t-276 -123q-117 -129 -117 -299zM328 1654v80l172 2l129 -291v-86h-146z" />
<glyph unicode="&#xe1;" horiz-adv-x="1271" d="M0 598v8v6v17v18v4v8v3q0 10 2 16v8v6v2v6q0 2 1 3.5t1 3.5v14q16 98 58 186t114 166q176 186 424 187q250 -1 426 -187q174 -180 174 -444v-629h-207v152q-29 -25 -59.5 -47.5t-63.5 -38.5q-66 -33 -132 -50.5t-138 -17.5q-246 0 -424 188q-72 70 -112.5 155t-57.5 183 q0 8 -2 17v10q0 4 -1 6t-1 4v4v2v6v9v2q-2 4 -2 14zM207 629q0 -170 117 -299q116 -123 276 -123q162 0 279 123q109 115 114 276v2v8v13v12v8q-6 160 -114 279q-119 123 -279 123t-276 -123q-117 -129 -117 -299zM653 1328v86l129 290l172 -2v-80l-155 -294h-146z" />
<glyph unicode="&#xe2;" horiz-adv-x="1271" d="M0 598q0 -10 2 -14v-2v-9v-6v-2v-4q0 -2 1 -4t1 -6v-10q2 -8 2 -17q16 -98 57 -183t113 -155q178 -188 424 -188q72 0 138.5 17.5t131.5 50.5q33 16 64 38.5t59 47.5v-152h207v629q0 264 -174 444q-176 186 -426 187q-248 0 -424 -187q-72 -78 -114 -166t-58 -186v-14 q0 -2 -1 -3.5t-1 -3.5v-6v-2v-6v-8q-2 -6 -2 -16v-3v-8v-4v-18v-17v-6v-8zM207 629q0 170 117 299q117 123 276 123q160 0 279 -123q109 -119 114 -279v-8v-12v-13v-8v-2q-6 -162 -114 -276q-117 -123 -279 -123q-160 0 -276 123q-117 129 -117 299zM324 1354l239 362h92 l242 -362l-29 -39h-92l-166 254l-166 -254h-94z" />
<glyph unicode="&#xe3;" horiz-adv-x="1271" d="M0 598v8v6v17v18v4v8v3q0 10 2 16v8v6v2v6q0 2 1 3.5t1 3.5v14q16 98 58 186t114 166q176 186 424 187q250 -1 426 -187q174 -180 174 -444v-629h-207v152q-29 -25 -59.5 -47.5t-63.5 -38.5q-66 -33 -132 -50.5t-138 -17.5q-246 0 -424 188q-72 70 -112.5 155t-57.5 183 q0 8 -2 17v10q0 4 -1 6t-1 4v4v2v6v9v2q-2 4 -2 14zM207 629q0 -170 117 -299q116 -123 276 -123q162 0 279 123q109 115 114 276v2v8v13v12v8q-6 160 -114 279q-119 123 -279 123t-276 -123q-117 -129 -117 -299zM252 1380l8 25q33 78 88 121q57 47 129 47q59 0 125 -37 l145 -86q43 -23 78 -23q57 0 84 80l10 25l107 -43l-8 -23q-60 -166 -197 -166q-59 0 -117 33h-2l-157 94q-37 16 -68 17q-37 0 -67.5 -22.5t-47.5 -63.5l-12 -27z" />
<glyph unicode="&#xe4;" horiz-adv-x="1271" d="M0 598v8v6v17v18v4v8v3q0 10 2 16v8v6v2v6q0 2 1 3.5t1 3.5v14q16 98 58 186t114 166q176 186 424 187q250 -1 426 -187q174 -180 174 -444v-629h-207v152q-29 -25 -59.5 -47.5t-63.5 -38.5q-66 -33 -132 -50.5t-138 -17.5q-246 0 -424 188q-72 70 -112.5 155t-57.5 183 q0 8 -2 17v10q0 4 -1 6t-1 4v4v2v6v9v2q-2 4 -2 14zM207 629q0 -170 117 -299q116 -123 276 -123q162 0 279 123q109 115 114 276v2v8v13v12v8q-6 160 -114 279q-119 123 -279 123t-276 -123q-117 -129 -117 -299zM322 1352v250h249v-250h-249zM705 1350v249h249v-249h-249z " />
<glyph unicode="&#xe5;" horiz-adv-x="1271" d="M0 598v8v6v17v18v4v8v3q0 10 2 16v8v6v2v6q0 2 1 3.5t1 3.5v14q16 98 58 186t114 166q176 186 424 187q250 -1 426 -187q174 -180 174 -444v-629h-207v152q-29 -25 -59.5 -47.5t-63.5 -38.5q-66 -33 -132 -50.5t-138 -17.5q-246 0 -424 188q-72 70 -112.5 155t-57.5 183 q0 8 -2 17v10q0 4 -1 6t-1 4v4v2v6v9v2q-2 4 -2 14zM207 629q0 -170 117 -299q116 -123 276 -123q162 0 279 123q109 115 114 276v2v8v13v12v8q-6 160 -114 279q-119 123 -279 123t-276 -123q-117 -129 -117 -299zM364 1593q0 47 15.5 88t44.5 76q74 74 184 74 q115 0 184 -74q61 -68 62 -164q0 -100 -62 -164q-67 -74 -184 -74q-115 0 -184 74q-29 33 -44.5 75t-15.5 89zM483 1595q0 -47 31 -88t96 -41q66 0 96.5 40t30.5 87t-31.5 87t-97.5 40t-95.5 -39t-29.5 -86z" />
<glyph unicode="&#xe6;" horiz-adv-x="2547" d="M0 598v8v6v17v18v4v8v3q0 10 2 16v8v6v2v6q0 2 1 3.5t1 3.5v14q16 98 58 186t114 166q176 186 424 187q250 -1 426 -187q174 -180 174 -444v-629h-207v152q-29 -25 -59.5 -47.5t-63.5 -38.5q-66 -33 -132 -50.5t-138 -17.5q-246 0 -424 188q-72 70 -112.5 155t-57.5 183 q0 8 -2 17v10q0 4 -1 6t-1 4v4v2v6v9v2q-2 4 -2 14zM207 629q0 -170 117 -299q116 -123 276 -123q162 0 279 123q109 115 114 276v2v8v13v12v8q-6 160 -114 279q-119 123 -279 123t-276 -123q-117 -129 -117 -299zM1006 629q0 262 176 448t428 187q250 0 426 -187 q176 -186 176 -444v-47h-993q12 -147 115 -256q113 -123 276 -123q111 0 203 61q92 59 143 166l13 27h225l-25 -64q-66 -178 -217 -288q-152 -111 -342 -111q-254 0 -428 186q-176 182 -176 445zM1246 795h727q-41 100 -123 170q-106 88 -242 88q-134 0 -240 -88 q-82 -70 -122 -170z" />
<glyph unicode="&#xe7;" horiz-adv-x="1275" d="M0 629q0 262 176 448t428 187q188 0 342 -113q152 -111 217 -289l25 -63h-223l-13 26q-51 104 -143 166q-96 61 -205 62q-164 0 -276 -123q-117 -123 -117 -299t117 -301q113 -123 276 -123q113 0 207 63q94 66 143 170l13 27h223l-23 -64q-68 -182 -219 -292 q-152 -113 -344 -113q-254 0 -428 186q-176 182 -176 445zM415 -432l9 104q37 4 81 18.5t80.5 35t59 45t16.5 49.5t-36.5 34t-65.5 9q-41 0 -90 -6l59 135l21 49l104 -16l-12 -43q72 -20 107.5 -43t51.5 -45q18 -25 21 -50q8 -43 -5.5 -77.5t-40 -62.5t-64.5 -49.5 t-76 -35.5q-94 -37 -220 -51z" />
<glyph unicode="&#xe8;" horiz-adv-x="1275" d="M0 629q0 262 176 448t428 187q250 0 426 -187q176 -186 176 -444v-47h-993q12 -147 115 -256q113 -123 276 -123q111 0 203 61q92 59 143 166l13 27h225l-25 -64q-66 -178 -217 -288q-152 -111 -342 -111q-254 0 -428 186q-176 182 -176 445zM240 795h727 q-41 100 -123 170q-106 88 -242 88q-134 0 -240 -88q-82 -70 -122 -170zM351 1620v80l172 2l129 -291v-86h-146z" />
<glyph unicode="&#xe9;" horiz-adv-x="1275" d="M0 629q0 262 176 448t428 187q250 0 426 -187q176 -186 176 -444v-47h-993q12 -147 115 -256q113 -123 276 -123q111 0 203 61q92 59 143 166l13 27h225l-25 -64q-66 -178 -217 -288q-152 -111 -342 -111q-254 0 -428 186q-176 182 -176 445zM240 795h727 q-41 100 -123 170q-106 88 -242 88q-134 0 -240 -88q-82 -70 -122 -170zM565 1340v86l129 290l172 -2v-80l-155 -294h-146z" />
<glyph unicode="&#xea;" horiz-adv-x="1275" d="M0 629q0 262 176 448t428 187q250 0 426 -187q176 -186 176 -444v-47h-993q12 -147 115 -256q113 -123 276 -123q111 0 203 61q92 59 143 166l13 27h225l-25 -64q-66 -178 -217 -288q-152 -111 -342 -111q-254 0 -428 186q-176 182 -176 445zM240 795h727 q-41 100 -123 170q-106 88 -242 88q-134 0 -240 -88q-82 -70 -122 -170zM338 1351l240 363h92l241 -363l-28 -39h-92l-166 254l-166 -254h-94z" />
<glyph unicode="&#xeb;" horiz-adv-x="1275" d="M0 629q0 262 176 448t428 187q250 0 426 -187q176 -186 176 -444v-47h-993q12 -147 115 -256q113 -123 276 -123q111 0 203 61q92 59 143 166l13 27h225l-25 -64q-66 -178 -217 -288q-152 -111 -342 -111q-254 0 -428 186q-176 182 -176 445zM240 795h727 q-41 100 -123 170q-106 88 -242 88q-134 0 -240 -88q-82 -70 -122 -170zM324 1352v250h249v-250h-249zM707 1350v249h249v-249h-249z" />
<glyph unicode="&#xec;" horiz-adv-x="245" d="M-108 1984v80l172 2l129 -291v-86h-146zM0 -4v1169h195v-1169h-195zM0 1290v297h195v-297h-195z" />
<glyph unicode="&#xed;" horiz-adv-x="245" d="M0 -4v1169h195v-1169h-195zM0 1290v297h195v-297h-195zM74 1704v86l129 290l172 -2v-80l-155 -294h-146z" />
<glyph unicode="&#xee;" horiz-adv-x="245" d="M-174 1661l240 363h92l241 -363l-28 -39h-92l-166 254l-166 -254h-94zM0 -4v1169h195v-1169h-195zM0 1290v297h195v-297h-195z" />
<glyph unicode="&#xef;" horiz-adv-x="245" d="M-200 1678v250h249v-250h-249zM0 -4v1169h195v-1169h-195zM0 1290v297h195v-297h-195zM183 1676v249h249v-249h-249z" />
<glyph unicode="&#xf0;" horiz-adv-x="1241" d="M29 475q-16 111 10.5 216.5t93.5 195.5q66 90 159 145t204 72q82 12 153 4l-198 336l176 104l391 -653q41 -55 69.5 -119.5t38.5 -134.5q16 -111 -10 -217.5t-92 -196.5t-160 -146.5t-205 -72.5t-215 10.5t-194 92.5q-92 66 -148.5 160t-72.5 204zM240 508 q10 -72 46 -129t89 -97t118.5 -57.5t135.5 -7.5t127 46t96 89.5t56.5 119t6.5 136.5q-10 70 -45.5 127.5t-89 97t-119 57t-135.5 7.5t-127 -47t-96 -89t-56.5 -117.5t-6.5 -135.5zM649 1225l293 344l152 -127l-293 -346z" />
<glyph unicode="&#xf1;" horiz-adv-x="1120" d="M0 0v637q0 256 145 418q147 164 394 164q244 0 391 -164q145 -162 145 -418v-637h-205v637q0 176 -88 276q-90 100 -243 101q-154 0 -242 -101q-90 -100 -90 -276v-637h-207zM176 1380l8 25q33 78 88 121q57 47 129 47q59 0 125 -37l145 -86q43 -23 78 -23q57 0 84 80 l10 25l107 -43l-8 -23q-60 -166 -197 -166q-59 0 -117 33h-2l-157 94q-37 16 -68 17q-37 0 -67.5 -22.5t-47.5 -63.5l-12 -27z" />
<glyph unicode="&#xf2;" horiz-adv-x="1216" d="M0 610q0 254 170 434q172 182 416 183q243 -1 415 -183q170 -180 170 -434q0 -252 -170 -432q-172 -180 -415 -180q-244 0 -416 180q-170 180 -170 432zM205 612q0 -168 112 -290q111 -119 269 -119q160 0 270 119q113 123 113 290q0 168 -113 291q-113 119 -270 119 q-156 0 -269 -119q-113 -123 -112 -291zM328 1618v80l172 2l129 -291v-86h-146z" />
<glyph unicode="&#xf3;" horiz-adv-x="1216" d="M0 610q0 254 170 434q172 182 416 183q243 -1 415 -183q170 -180 170 -434q0 -252 -170 -432q-172 -180 -415 -180q-244 0 -416 180q-170 180 -170 432zM205 612q0 -168 112 -290q111 -119 269 -119q160 0 270 119q113 123 113 290q0 168 -113 291q-113 119 -270 119 q-156 0 -269 -119q-113 -123 -112 -291zM592 1299v86l129 290l172 -2v-80l-155 -294h-146z" />
<glyph unicode="&#xf4;" horiz-adv-x="1216" d="M0 610q0 254 170 434q172 182 416 183q243 -1 415 -183q170 -180 170 -434q0 -252 -170 -432q-172 -180 -415 -180q-244 0 -416 180q-170 180 -170 432zM205 612q0 -168 112 -290q111 -119 269 -119q160 0 270 119q113 123 113 290q0 168 -113 291q-113 119 -270 119 q-156 0 -269 -119q-113 -123 -112 -291zM297 1333l240 363h92l241 -363l-28 -39h-92l-166 254l-166 -254h-94z" />
<glyph unicode="&#xf5;" horiz-adv-x="1216" d="M0 610q0 254 170 434q172 182 416 183q243 -1 415 -183q170 -180 170 -434q0 -252 -170 -432q-172 -180 -415 -180q-244 0 -416 180q-170 180 -170 432zM205 612q0 -168 112 -290q111 -119 269 -119q160 0 270 119q113 123 113 290q0 168 -113 291q-113 119 -270 119 q-156 0 -269 -119q-113 -123 -112 -291zM223 1380l8 25q33 78 88 121q57 47 129 47q59 0 125 -37l145 -86q43 -23 78 -23q57 0 84 80l10 25l107 -43l-8 -23q-60 -166 -197 -166q-59 0 -117 33h-2l-157 94q-37 16 -68 17q-37 0 -67.5 -22.5t-47.5 -63.5l-12 -27z" />
<glyph unicode="&#xf6;" horiz-adv-x="1216" d="M0 610q0 254 170 434q172 182 416 183q243 -1 415 -183q170 -180 170 -434q0 -252 -170 -432q-172 -180 -415 -180q-244 0 -416 180q-170 180 -170 432zM205 612q0 -168 112 -290q111 -119 269 -119q160 0 270 119q113 123 113 290q0 168 -113 291q-113 119 -270 119 q-156 0 -269 -119q-113 -123 -112 -291zM295 1352v250h249v-250h-249zM678 1350v249h249v-249h-249z" />
<glyph unicode="&#xf7;" horiz-adv-x="1452" d="M213 596v144h891v-144h-891zM549 109v262h256v-262h-256zM549 955v262h256v-262h-256z" />
<glyph unicode="&#xf8;" horiz-adv-x="1216" d="M0 610q0 254 170 434q172 182 416 183q243 -1 415 -183q170 -180 170 -434q0 -252 -170 -432q-172 -180 -415 -180q-244 0 -416 180q-170 180 -170 432zM184 -14l654 1314h198l-653 -1314h-199zM205 612q0 -168 112 -290q111 -119 269 -119q160 0 270 119 q113 123 113 290q0 168 -113 291q-113 119 -270 119q-156 0 -269 -119q-113 -123 -112 -291z" />
<glyph unicode="&#xf9;" horiz-adv-x="1132" d="M0 575v627h207v-627q0 -168 80 -266q86 -109 250 -108q156 0 245 100q86 100 86 274v627h205v-1202h-205v100q-137 -106 -331 -106q-256 0 -406 178q-131 158 -131 403zM418 1550v80l172 2l129 -291v-86h-146z" />
<glyph unicode="&#xfa;" horiz-adv-x="1132" d="M0 575v627h207v-627q0 -168 80 -266q86 -109 250 -108q156 0 245 100q86 100 86 274v627h205v-1202h-205v100q-137 -106 -331 -106q-256 0 -406 178q-131 158 -131 403zM416 1260v86l129 290l172 -2v-80l-155 -294h-146z" />
<glyph unicode="&#xfb;" horiz-adv-x="1132" d="M0 575v627h207v-627q0 -168 80 -266q86 -109 250 -108q156 0 245 100q86 100 86 274v627h205v-1202h-205v100q-137 -106 -331 -106q-256 0 -406 178q-131 158 -131 403zM242 1286l239 363h92l242 -363l-29 -39h-92l-166 254l-166 -254h-94z" />
<glyph unicode="&#xfc;" horiz-adv-x="1132" d="M0 575v627h207v-627q0 -168 80 -266q86 -109 250 -108q156 0 245 100q86 100 86 274v627h205v-1202h-205v100q-137 -106 -331 -106q-256 0 -406 178q-131 158 -131 403zM252 1352v250h249v-250h-249zM635 1350v249h249v-249h-249z" />
<glyph unicode="&#xfd;" horiz-adv-x="1294" d="M0 1169h225l400 -903l401 903h227l-725 -1634h-227l211 475zM612 1248v86l129 290l172 -2v-80l-155 -294h-146z" />
<glyph unicode="&#xfe;" horiz-adv-x="1249" d="M0 -324v1409h195v-1409h-195zM0 604v991h201v-546q43 47 102 81q125 80 275 80q241 0 411 -178q168 -174 168 -430q0 -252 -168 -426q-168 -180 -409 -180q-244 0 -412 180q-168 174 -168 428zM201 604q0 -84 27.5 -155.5t84.5 -131.5q109 -120 265 -120t266 120 q111 117 110 287q0 168 -110 289q-113 117 -266 117q-154 0 -265 -117q-113 -119 -112 -289z" />
<glyph unicode="&#xff;" horiz-adv-x="1294" d="M0 1169h225l400 -903l401 903h227l-725 -1634h-227l211 475zM308 1264v250h249v-250h-249zM691 1262v249h249v-249h-249z" />
<glyph unicode="&#x152;" horiz-adv-x="2650" d="M6 762q0 158 60 295q29 68 68.5 127t92.5 112t113.5 93.5t128.5 68.5q143 59 295 60q154 0 295 -60q68 -29 128 -68.5t113 -93.5q109 -109 162 -239q59 -137 60 -295q0 -158 -60 -295q-53 -131 -162 -240q-106 -106 -241 -161q-70 -31 -143.5 -45.5t-151.5 -14.5 q-158 0 -295 60q-135 55 -242 161q-109 109 -161 240q-59 137 -60 295zM209 762q0 -115 44 -215.5t118.5 -176t176 -118.5t216.5 -43t216 43t176 118.5t119 176t44 215.5t-44 215t-119 176t-176 119t-216 43t-216.5 -43t-176 -119t-118.5 -176t-44 -215zM1333 0v1522h1196 v-211h-985v-424h985v-211h-985v-465h985v-211h-1196z" />
<glyph unicode="&#x153;" horiz-adv-x="2299" d="M0 610q0 254 170 434q172 182 416 183q243 -1 415 -183q170 -180 170 -434q0 -252 -170 -432q-172 -180 -415 -180q-244 0 -416 180q-170 180 -170 432zM205 612q0 -168 112 -290q111 -119 269 -119q160 0 270 119q113 123 113 290q0 168 -113 291q-113 119 -270 119 q-156 0 -269 -119q-113 -123 -112 -291zM969 629q0 262 176 448t428 187q250 0 426 -187q176 -186 176 -444v-47h-993q12 -147 115 -256q113 -123 276 -123q111 0 203 61q92 59 143 166l13 27h225l-25 -64q-66 -178 -217 -288q-152 -111 -342 -111q-254 0 -428 186 q-176 182 -176 445zM1209 795h727q-41 100 -123 170q-106 88 -242 88q-134 0 -240 -88q-82 -70 -122 -170z" />
<glyph unicode="&#x178;" d="M0 1522h268l430 -553l430 553h269l-590 -758v-764h-213v758z" />
<glyph unicode="&#x2c6;" horiz-adv-x="1183" d="M295 1210l240 363h92l241 -363l-28 -39h-92l-166 254l-166 -254h-94z" />
<glyph unicode="&#x2dc;" horiz-adv-x="1617" d="M461 1380l8 25q33 78 88 121q57 47 129 47q59 0 125 -37l145 -86q43 -23 78 -23q57 0 84 80l10 25l107 -43l-8 -23q-60 -166 -197 -166q-59 0 -117 33h-2l-157 94q-37 16 -68 17q-37 0 -67.5 -22.5t-47.5 -63.5l-12 -27z" />
<glyph unicode="&#x2000;" horiz-adv-x="1040" />
<glyph unicode="&#x2001;" horiz-adv-x="2080" />
<glyph unicode="&#x2002;" horiz-adv-x="1040" />
<glyph unicode="&#x2003;" horiz-adv-x="2080" />
<glyph unicode="&#x2004;" horiz-adv-x="693" />
<glyph unicode="&#x2005;" horiz-adv-x="520" />
<glyph unicode="&#x2006;" horiz-adv-x="346" />
<glyph unicode="&#x2007;" horiz-adv-x="346" />
<glyph unicode="&#x2008;" horiz-adv-x="260" />
<glyph unicode="&#x2009;" horiz-adv-x="416" />
<glyph unicode="&#x200a;" horiz-adv-x="115" />
<glyph unicode="&#x2010;" horiz-adv-x="1318" d="M86 559v209h1094v-209h-1094z" />
<glyph unicode="&#x2011;" horiz-adv-x="1318" d="M86 559v209h1094v-209h-1094z" />
<glyph unicode="&#x2012;" horiz-adv-x="1318" d="M86 559v209h1094v-209h-1094z" />
<glyph unicode="&#x2013;" d="M231 475v139h791v-139h-791z" />
<glyph unicode="&#x2014;" d="M98 469v156h1071v-156h-1071z" />
<glyph unicode="&#x2018;" horiz-adv-x="434" d="M16 1026v291h2q4 51 29 97t53 81q35 39 76 74l96 -78q-12 -4 -32.5 -24.5t-39 -46t-33.5 -54.5t-17 -49h122v-291h-256z" />
<glyph unicode="&#x2019;" horiz-adv-x="434" d="M100 1104q12 4 33 24.5t39 46t32.5 54t18.5 49.5h-123v291h256v-291h-2q-4 -53 -28.5 -98t-53.5 -80q-35 -39 -75 -74z" />
<glyph unicode="&#x201a;" horiz-adv-x="1316" d="M551 27v290h256v-290h-2q-4 -53 -28.5 -98.5t-53.5 -80.5q-35 -39 -76 -73l-96 78q12 4 32.5 24.5t39 46t33 54t18.5 49.5h-123z" />
<glyph unicode="&#x201c;" horiz-adv-x="835" d="M2 1085v291h2q4 51 28.5 97.5t53.5 80.5q35 39 76 74l96 -78q-12 -4 -32.5 -24.5t-39 -46t-34 -54t-17.5 -49.5h123v-291h-256zM385 1083v291h2q4 51 28.5 97.5t53.5 80.5q35 39 76 74l96 -78q-12 -4 -32.5 -24.5t-39 -46t-34 -54t-17.5 -49.5h123v-291h-256z" />
<glyph unicode="&#x201d;" horiz-adv-x="751" d="M51 1130q12 4 32.5 25t39 46.5t33 54t18.5 49.5h-123v290h256v-290h-2q-4 -53 -28.5 -98.5t-53.5 -80.5q-35 -39 -76 -73zM434 1128q12 4 32.5 25t39 46.5t33 54t18.5 49.5h-123v290h256v-290h-2q-4 -53 -28.5 -98.5t-53.5 -80.5q-35 -39 -76 -73z" />
<glyph unicode="&#x201e;" horiz-adv-x="1288" d="M322 12v291h256v-291h-3q-4 -53 -28.5 -98t-52.5 -80q-35 -39 -76 -74l-96 78q12 4 32.5 24.5t39 46t32.5 54.5t18 49h-122zM739 12v291h256v-291h-2q-4 -53 -28.5 -98t-53.5 -80q-35 -39 -75 -74l-97 78q12 4 33 24.5t39 46t32.5 54.5t18.5 49h-123z" />
<glyph unicode="&#x2022;" horiz-adv-x="1312" d="M446 649q0 51 18.5 95t51.5 77t77 52.5t95 19.5t95 -19.5t77 -52.5t52.5 -77t19.5 -95t-19.5 -95t-52.5 -77t-77 -51t-95 -18t-95 18t-77 51t-51.5 77t-18.5 95z" />
<glyph unicode="&#x2026;" horiz-adv-x="958" d="M0 6v262h256v-262h-256zM319 6v262h256v-262h-256zM639 6v262h256v-262h-256z" />
<glyph unicode="&#x202f;" horiz-adv-x="416" />
<glyph unicode="&#x2039;" />
<glyph unicode="&#x205f;" horiz-adv-x="520" />
<glyph unicode="&#x2122;" horiz-adv-x="1562" d="M129 1493v86h487v-86h-200v-535h-84v535h-203zM645 958v621h82l6 -10l271 -512l272 512l4 10h82v-621h-86v426l-227 -426h-88l-230 428v-428h-86z" />
<glyph unicode="&#x25fc;" horiz-adv-x="1177" d="M0 0v1178h1178v-1178h-1178z" />
<glyph unicode="&#xfb01;" horiz-adv-x="946" d="M0 0v979q0 254 170 434q172 178 416 178h45v-200h-45q-123 0 -224 -78q-90 -74 -135 -187q0 -6 -2 -8h418v-203h-438v-915h-205zM618 -4v1169h195v-1169h-195zM618 1290v297h195v-297h-195z" />
<glyph unicode="&#xfb02;" horiz-adv-x="956" d="M0 0v979q0 254 170 434q172 178 416 178h45v-200h-45q-123 0 -224 -78q-90 -74 -135 -187q0 -6 -2 -8h418v-203h-438v-915h-205zM631 0v1585h205v-1585h-205z" />
</font>
</defs>
</svg>
